<?xml version="1.0" encoding="utf-8" standalone="no"?>
<!DOCTYPE svg PUBLIC "-//W3C//DTD SVG 1.1//EN"
  "http://www.w3.org/Graphics/SVG/1.1/DTD/svg11.dtd">
<svg xmlns:xlink="http://www.w3.org/1999/xlink" width="864pt" height="504pt" viewBox="0 0 864 504" xmlns="http://www.w3.org/2000/svg" version="1.1">
 <metadata>
  <rdf:RDF xmlns:dc="http://purl.org/dc/elements/1.1/" xmlns:cc="http://creativecommons.org/ns#" xmlns:rdf="http://www.w3.org/1999/02/22-rdf-syntax-ns#">
   <cc:Work>
    <dc:type rdf:resource="http://purl.org/dc/dcmitype/StillImage"/>
    <dc:date>2023-12-18T05:34:13.378336</dc:date>
    <dc:format>image/svg+xml</dc:format>
    <dc:creator>
     <cc:Agent>
      <dc:title>Matplotlib v3.8.2, https://matplotlib.org/</dc:title>
     </cc:Agent>
    </dc:creator>
   </cc:Work>
  </rdf:RDF>
 </metadata>
 <defs>
  <style type="text/css">*{stroke-linejoin: round; stroke-linecap: butt}</style>
 </defs>
 <g id="figure_1">
  <g id="patch_1">
   <path d="M 0 504 
L 864 504 
L 864 0 
L 0 0 
z
" style="fill: #ffffff"/>
  </g>
  <g id="axes_1">
   <g id="patch_2">
    <path d="M 47.72 443.52 
L 853.2 443.52 
L 853.2 50.4 
L 47.72 50.4 
z
" style="fill: #ffffff"/>
   </g>
   <g id="PathCollection_1">
    <defs>
     <path id="m8ad4a25d2e" d="M 0 1.936492 
C 0.513564 1.936492 1.006162 1.732451 1.369306 1.369306 
C 1.732451 1.006162 1.936492 0.513564 1.936492 0 
C 1.936492 -0.513564 1.732451 -1.006162 1.369306 -1.369306 
C 1.006162 -1.732451 0.513564 -1.936492 0 -1.936492 
C -0.513564 -1.936492 -1.006162 -1.732451 -1.369306 -1.369306 
C -1.732451 -1.006162 -1.936492 -0.513564 -1.936492 0 
C -1.936492 0.513564 -1.732451 1.006162 -1.369306 1.369306 
C -1.006162 1.732451 -0.513564 1.936492 0 1.936492 
z
" style="stroke: #ffa500"/>
    </defs>
    <g clip-path="url(#pd449b7cbb7)">
     <use xlink:href="#m8ad4a25d2e" x="785.694933" y="68.269091" style="fill: #ffa500; stroke: #ffa500"/>
    </g>
   </g>
   <g id="PathCollection_2">
    <defs>
     <path id="m1268cfef28" d="M 0 1.936492 
C 0.513564 1.936492 1.006162 1.732451 1.369306 1.369306 
C 1.732451 1.006162 1.936492 0.513564 1.936492 0 
C 1.936492 -0.513564 1.732451 -1.006162 1.369306 -1.369306 
C 1.006162 -1.732451 0.513564 -1.936492 0 -1.936492 
C -0.513564 -1.936492 -1.006162 -1.732451 -1.369306 -1.369306 
C -1.732451 -1.006162 -1.936492 -0.513564 -1.936492 0 
C -1.936492 0.513564 -1.732451 1.006162 -1.369306 1.369306 
C -1.006162 1.732451 -0.513564 1.936492 0 1.936492 
z
" style="stroke: #c83cbc"/>
    </defs>
    <g clip-path="url(#pd449b7cbb7)">
     <use xlink:href="#m1268cfef28" x="462.933057" y="68.269091" style="fill: #c83cbc; stroke: #c83cbc"/>
    </g>
   </g>
   <g id="PathCollection_3">
    <defs>
     <path id="ma680906e62" d="M 0 1.936492 
C 0.513564 1.936492 1.006162 1.732451 1.369306 1.369306 
C 1.732451 1.006162 1.936492 0.513564 1.936492 0 
C 1.936492 -0.513564 1.732451 -1.006162 1.369306 -1.369306 
C 1.006162 -1.732451 0.513564 -1.936492 0 -1.936492 
C -0.513564 -1.936492 -1.006162 -1.732451 -1.369306 -1.369306 
C -1.732451 -1.006162 -1.936492 -0.513564 -1.936492 0 
C -1.936492 0.513564 -1.732451 1.006162 -1.369306 1.369306 
C -1.006162 1.732451 -0.513564 1.936492 0 1.936492 
z
" style="stroke: #1c1c84"/>
    </defs>
    <g clip-path="url(#pd449b7cbb7)">
     <use xlink:href="#ma680906e62" x="351.94924" y="68.269091" style="fill: #1c1c84; stroke: #1c1c84"/>
    </g>
   </g>
   <g id="PathCollection_4">
    <defs>
     <path id="m620b6c5f75" d="M 0 1.936492 
C 0.513564 1.936492 1.006162 1.732451 1.369306 1.369306 
C 1.732451 1.006162 1.936492 0.513564 1.936492 0 
C 1.936492 -0.513564 1.732451 -1.006162 1.369306 -1.369306 
C 1.006162 -1.732451 0.513564 -1.936492 0 -1.936492 
C -0.513564 -1.936492 -1.006162 -1.732451 -1.369306 -1.369306 
C -1.732451 -1.006162 -1.936492 -0.513564 -1.936492 0 
C -1.936492 0.513564 -1.732451 1.006162 -1.369306 1.369306 
C -1.006162 1.732451 -0.513564 1.936492 0 1.936492 
z
" style="stroke: #ff0000"/>
    </defs>
    <g clip-path="url(#pd449b7cbb7)">
     <use xlink:href="#m620b6c5f75" x="816.587273" y="68.269091" style="fill: #ff0000; stroke: #ff0000"/>
    </g>
   </g>
   <g id="matplotlib.axis_1">
    <g id="xtick_1">
     <g id="line2d_1">
      <path d="M 84.332727 443.52 
L 84.332727 50.4 
" clip-path="url(#pd449b7cbb7)" style="fill: none; stroke: #b0b0b0; stroke-width: 0.8; stroke-linecap: square"/>
     </g>
     <g id="line2d_2">
      <defs>
       <path id="m72cb6624ca" d="M 0 0 
L 0 3.5 
" style="stroke: #000000; stroke-width: 0.8"/>
      </defs>
      <g>
       <use xlink:href="#m72cb6624ca" x="84.332727" y="443.52" style="stroke: #000000; stroke-width: 0.8"/>
      </g>
     </g>
     <g id="text_1">
      <!-- 0 -->
      <g transform="translate(81.151477 458.118438) scale(0.1 -0.1)">
       <defs>
        <path id="DejaVuSans-30" d="M 2034 4250 
Q 1547 4250 1301 3770 
Q 1056 3291 1056 2328 
Q 1056 1369 1301 889 
Q 1547 409 2034 409 
Q 2525 409 2770 889 
Q 3016 1369 3016 2328 
Q 3016 3291 2770 3770 
Q 2525 4250 2034 4250 
z
M 2034 4750 
Q 2819 4750 3233 4129 
Q 3647 3509 3647 2328 
Q 3647 1150 3233 529 
Q 2819 -91 2034 -91 
Q 1250 -91 836 529 
Q 422 1150 422 2328 
Q 422 3509 836 4129 
Q 1250 4750 2034 4750 
z
" transform="scale(0.015625)"/>
       </defs>
       <use xlink:href="#DejaVuSans-30"/>
      </g>
     </g>
    </g>
    <g id="xtick_2">
     <g id="line2d_3">
      <path d="M 196.802235 443.52 
L 196.802235 50.4 
" clip-path="url(#pd449b7cbb7)" style="fill: none; stroke: #b0b0b0; stroke-width: 0.8; stroke-linecap: square"/>
     </g>
     <g id="line2d_4">
      <g>
       <use xlink:href="#m72cb6624ca" x="196.802235" y="443.52" style="stroke: #000000; stroke-width: 0.8"/>
      </g>
     </g>
     <g id="text_2">
      <!-- 20 -->
      <g transform="translate(190.439735 458.118438) scale(0.1 -0.1)">
       <defs>
        <path id="DejaVuSans-32" d="M 1228 531 
L 3431 531 
L 3431 0 
L 469 0 
L 469 531 
Q 828 903 1448 1529 
Q 2069 2156 2228 2338 
Q 2531 2678 2651 2914 
Q 2772 3150 2772 3378 
Q 2772 3750 2511 3984 
Q 2250 4219 1831 4219 
Q 1534 4219 1204 4116 
Q 875 4013 500 3803 
L 500 4441 
Q 881 4594 1212 4672 
Q 1544 4750 1819 4750 
Q 2544 4750 2975 4387 
Q 3406 4025 3406 3419 
Q 3406 3131 3298 2873 
Q 3191 2616 2906 2266 
Q 2828 2175 2409 1742 
Q 1991 1309 1228 531 
z
" transform="scale(0.015625)"/>
       </defs>
       <use xlink:href="#DejaVuSans-32"/>
       <use xlink:href="#DejaVuSans-30" x="63.623047"/>
      </g>
     </g>
    </g>
    <g id="xtick_3">
     <g id="line2d_5">
      <path d="M 309.271743 443.52 
L 309.271743 50.4 
" clip-path="url(#pd449b7cbb7)" style="fill: none; stroke: #b0b0b0; stroke-width: 0.8; stroke-linecap: square"/>
     </g>
     <g id="line2d_6">
      <g>
       <use xlink:href="#m72cb6624ca" x="309.271743" y="443.52" style="stroke: #000000; stroke-width: 0.8"/>
      </g>
     </g>
     <g id="text_3">
      <!-- 40 -->
      <g transform="translate(302.909243 458.118438) scale(0.1 -0.1)">
       <defs>
        <path id="DejaVuSans-34" d="M 2419 4116 
L 825 1625 
L 2419 1625 
L 2419 4116 
z
M 2253 4666 
L 3047 4666 
L 3047 1625 
L 3713 1625 
L 3713 1100 
L 3047 1100 
L 3047 0 
L 2419 0 
L 2419 1100 
L 313 1100 
L 313 1709 
L 2253 4666 
z
" transform="scale(0.015625)"/>
       </defs>
       <use xlink:href="#DejaVuSans-34"/>
       <use xlink:href="#DejaVuSans-30" x="63.623047"/>
      </g>
     </g>
    </g>
    <g id="xtick_4">
     <g id="line2d_7">
      <path d="M 421.741251 443.52 
L 421.741251 50.4 
" clip-path="url(#pd449b7cbb7)" style="fill: none; stroke: #b0b0b0; stroke-width: 0.8; stroke-linecap: square"/>
     </g>
     <g id="line2d_8">
      <g>
       <use xlink:href="#m72cb6624ca" x="421.741251" y="443.52" style="stroke: #000000; stroke-width: 0.8"/>
      </g>
     </g>
     <g id="text_4">
      <!-- 60 -->
      <g transform="translate(415.378751 458.118438) scale(0.1 -0.1)">
       <defs>
        <path id="DejaVuSans-36" d="M 2113 2584 
Q 1688 2584 1439 2293 
Q 1191 2003 1191 1497 
Q 1191 994 1439 701 
Q 1688 409 2113 409 
Q 2538 409 2786 701 
Q 3034 994 3034 1497 
Q 3034 2003 2786 2293 
Q 2538 2584 2113 2584 
z
M 3366 4563 
L 3366 3988 
Q 3128 4100 2886 4159 
Q 2644 4219 2406 4219 
Q 1781 4219 1451 3797 
Q 1122 3375 1075 2522 
Q 1259 2794 1537 2939 
Q 1816 3084 2150 3084 
Q 2853 3084 3261 2657 
Q 3669 2231 3669 1497 
Q 3669 778 3244 343 
Q 2819 -91 2113 -91 
Q 1303 -91 875 529 
Q 447 1150 447 2328 
Q 447 3434 972 4092 
Q 1497 4750 2381 4750 
Q 2619 4750 2861 4703 
Q 3103 4656 3366 4563 
z
" transform="scale(0.015625)"/>
       </defs>
       <use xlink:href="#DejaVuSans-36"/>
       <use xlink:href="#DejaVuSans-30" x="63.623047"/>
      </g>
     </g>
    </g>
    <g id="xtick_5">
     <g id="line2d_9">
      <path d="M 534.210759 443.52 
L 534.210759 50.4 
" clip-path="url(#pd449b7cbb7)" style="fill: none; stroke: #b0b0b0; stroke-width: 0.8; stroke-linecap: square"/>
     </g>
     <g id="line2d_10">
      <g>
       <use xlink:href="#m72cb6624ca" x="534.210759" y="443.52" style="stroke: #000000; stroke-width: 0.8"/>
      </g>
     </g>
     <g id="text_5">
      <!-- 80 -->
      <g transform="translate(527.848259 458.118438) scale(0.1 -0.1)">
       <defs>
        <path id="DejaVuSans-38" d="M 2034 2216 
Q 1584 2216 1326 1975 
Q 1069 1734 1069 1313 
Q 1069 891 1326 650 
Q 1584 409 2034 409 
Q 2484 409 2743 651 
Q 3003 894 3003 1313 
Q 3003 1734 2745 1975 
Q 2488 2216 2034 2216 
z
M 1403 2484 
Q 997 2584 770 2862 
Q 544 3141 544 3541 
Q 544 4100 942 4425 
Q 1341 4750 2034 4750 
Q 2731 4750 3128 4425 
Q 3525 4100 3525 3541 
Q 3525 3141 3298 2862 
Q 3072 2584 2669 2484 
Q 3125 2378 3379 2068 
Q 3634 1759 3634 1313 
Q 3634 634 3220 271 
Q 2806 -91 2034 -91 
Q 1263 -91 848 271 
Q 434 634 434 1313 
Q 434 1759 690 2068 
Q 947 2378 1403 2484 
z
M 1172 3481 
Q 1172 3119 1398 2916 
Q 1625 2713 2034 2713 
Q 2441 2713 2670 2916 
Q 2900 3119 2900 3481 
Q 2900 3844 2670 4047 
Q 2441 4250 2034 4250 
Q 1625 4250 1398 4047 
Q 1172 3844 1172 3481 
z
" transform="scale(0.015625)"/>
       </defs>
       <use xlink:href="#DejaVuSans-38"/>
       <use xlink:href="#DejaVuSans-30" x="63.623047"/>
      </g>
     </g>
    </g>
    <g id="xtick_6">
     <g id="line2d_11">
      <path d="M 646.680267 443.52 
L 646.680267 50.4 
" clip-path="url(#pd449b7cbb7)" style="fill: none; stroke: #b0b0b0; stroke-width: 0.8; stroke-linecap: square"/>
     </g>
     <g id="line2d_12">
      <g>
       <use xlink:href="#m72cb6624ca" x="646.680267" y="443.52" style="stroke: #000000; stroke-width: 0.8"/>
      </g>
     </g>
     <g id="text_6">
      <!-- 100 -->
      <g transform="translate(637.136517 458.118438) scale(0.1 -0.1)">
       <defs>
        <path id="DejaVuSans-31" d="M 794 531 
L 1825 531 
L 1825 4091 
L 703 3866 
L 703 4441 
L 1819 4666 
L 2450 4666 
L 2450 531 
L 3481 531 
L 3481 0 
L 794 0 
L 794 531 
z
" transform="scale(0.015625)"/>
       </defs>
       <use xlink:href="#DejaVuSans-31"/>
       <use xlink:href="#DejaVuSans-30" x="63.623047"/>
       <use xlink:href="#DejaVuSans-30" x="127.246094"/>
      </g>
     </g>
    </g>
    <g id="xtick_7">
     <g id="line2d_13">
      <path d="M 759.149775 443.52 
L 759.149775 50.4 
" clip-path="url(#pd449b7cbb7)" style="fill: none; stroke: #b0b0b0; stroke-width: 0.8; stroke-linecap: square"/>
     </g>
     <g id="line2d_14">
      <g>
       <use xlink:href="#m72cb6624ca" x="759.149775" y="443.52" style="stroke: #000000; stroke-width: 0.8"/>
      </g>
     </g>
     <g id="text_7">
      <!-- 120 -->
      <g transform="translate(749.606025 458.118438) scale(0.1 -0.1)">
       <use xlink:href="#DejaVuSans-31"/>
       <use xlink:href="#DejaVuSans-32" x="63.623047"/>
       <use xlink:href="#DejaVuSans-30" x="127.246094"/>
      </g>
     </g>
    </g>
    <g id="text_8">
     <!-- Used gradients / n -->
     <g transform="translate(404.657656 471.796562) scale(0.1 -0.1)">
      <defs>
       <path id="DejaVuSans-55" d="M 556 4666 
L 1191 4666 
L 1191 1831 
Q 1191 1081 1462 751 
Q 1734 422 2344 422 
Q 2950 422 3222 751 
Q 3494 1081 3494 1831 
L 3494 4666 
L 4128 4666 
L 4128 1753 
Q 4128 841 3676 375 
Q 3225 -91 2344 -91 
Q 1459 -91 1007 375 
Q 556 841 556 1753 
L 556 4666 
z
" transform="scale(0.015625)"/>
       <path id="DejaVuSans-73" d="M 2834 3397 
L 2834 2853 
Q 2591 2978 2328 3040 
Q 2066 3103 1784 3103 
Q 1356 3103 1142 2972 
Q 928 2841 928 2578 
Q 928 2378 1081 2264 
Q 1234 2150 1697 2047 
L 1894 2003 
Q 2506 1872 2764 1633 
Q 3022 1394 3022 966 
Q 3022 478 2636 193 
Q 2250 -91 1575 -91 
Q 1294 -91 989 -36 
Q 684 19 347 128 
L 347 722 
Q 666 556 975 473 
Q 1284 391 1588 391 
Q 1994 391 2212 530 
Q 2431 669 2431 922 
Q 2431 1156 2273 1281 
Q 2116 1406 1581 1522 
L 1381 1569 
Q 847 1681 609 1914 
Q 372 2147 372 2553 
Q 372 3047 722 3315 
Q 1072 3584 1716 3584 
Q 2034 3584 2315 3537 
Q 2597 3491 2834 3397 
z
" transform="scale(0.015625)"/>
       <path id="DejaVuSans-65" d="M 3597 1894 
L 3597 1613 
L 953 1613 
Q 991 1019 1311 708 
Q 1631 397 2203 397 
Q 2534 397 2845 478 
Q 3156 559 3463 722 
L 3463 178 
Q 3153 47 2828 -22 
Q 2503 -91 2169 -91 
Q 1331 -91 842 396 
Q 353 884 353 1716 
Q 353 2575 817 3079 
Q 1281 3584 2069 3584 
Q 2775 3584 3186 3129 
Q 3597 2675 3597 1894 
z
M 3022 2063 
Q 3016 2534 2758 2815 
Q 2500 3097 2075 3097 
Q 1594 3097 1305 2825 
Q 1016 2553 972 2059 
L 3022 2063 
z
" transform="scale(0.015625)"/>
       <path id="DejaVuSans-64" d="M 2906 2969 
L 2906 4863 
L 3481 4863 
L 3481 0 
L 2906 0 
L 2906 525 
Q 2725 213 2448 61 
Q 2172 -91 1784 -91 
Q 1150 -91 751 415 
Q 353 922 353 1747 
Q 353 2572 751 3078 
Q 1150 3584 1784 3584 
Q 2172 3584 2448 3432 
Q 2725 3281 2906 2969 
z
M 947 1747 
Q 947 1113 1208 752 
Q 1469 391 1925 391 
Q 2381 391 2643 752 
Q 2906 1113 2906 1747 
Q 2906 2381 2643 2742 
Q 2381 3103 1925 3103 
Q 1469 3103 1208 2742 
Q 947 2381 947 1747 
z
" transform="scale(0.015625)"/>
       <path id="DejaVuSans-20" transform="scale(0.015625)"/>
       <path id="DejaVuSans-67" d="M 2906 1791 
Q 2906 2416 2648 2759 
Q 2391 3103 1925 3103 
Q 1463 3103 1205 2759 
Q 947 2416 947 1791 
Q 947 1169 1205 825 
Q 1463 481 1925 481 
Q 2391 481 2648 825 
Q 2906 1169 2906 1791 
z
M 3481 434 
Q 3481 -459 3084 -895 
Q 2688 -1331 1869 -1331 
Q 1566 -1331 1297 -1286 
Q 1028 -1241 775 -1147 
L 775 -588 
Q 1028 -725 1275 -790 
Q 1522 -856 1778 -856 
Q 2344 -856 2625 -561 
Q 2906 -266 2906 331 
L 2906 616 
Q 2728 306 2450 153 
Q 2172 0 1784 0 
Q 1141 0 747 490 
Q 353 981 353 1791 
Q 353 2603 747 3093 
Q 1141 3584 1784 3584 
Q 2172 3584 2450 3431 
Q 2728 3278 2906 2969 
L 2906 3500 
L 3481 3500 
L 3481 434 
z
" transform="scale(0.015625)"/>
       <path id="DejaVuSans-72" d="M 2631 2963 
Q 2534 3019 2420 3045 
Q 2306 3072 2169 3072 
Q 1681 3072 1420 2755 
Q 1159 2438 1159 1844 
L 1159 0 
L 581 0 
L 581 3500 
L 1159 3500 
L 1159 2956 
Q 1341 3275 1631 3429 
Q 1922 3584 2338 3584 
Q 2397 3584 2469 3576 
Q 2541 3569 2628 3553 
L 2631 2963 
z
" transform="scale(0.015625)"/>
       <path id="DejaVuSans-61" d="M 2194 1759 
Q 1497 1759 1228 1600 
Q 959 1441 959 1056 
Q 959 750 1161 570 
Q 1363 391 1709 391 
Q 2188 391 2477 730 
Q 2766 1069 2766 1631 
L 2766 1759 
L 2194 1759 
z
M 3341 1997 
L 3341 0 
L 2766 0 
L 2766 531 
Q 2569 213 2275 61 
Q 1981 -91 1556 -91 
Q 1019 -91 701 211 
Q 384 513 384 1019 
Q 384 1609 779 1909 
Q 1175 2209 1959 2209 
L 2766 2209 
L 2766 2266 
Q 2766 2663 2505 2880 
Q 2244 3097 1772 3097 
Q 1472 3097 1187 3025 
Q 903 2953 641 2809 
L 641 3341 
Q 956 3463 1253 3523 
Q 1550 3584 1831 3584 
Q 2591 3584 2966 3190 
Q 3341 2797 3341 1997 
z
" transform="scale(0.015625)"/>
       <path id="DejaVuSans-69" d="M 603 3500 
L 1178 3500 
L 1178 0 
L 603 0 
L 603 3500 
z
M 603 4863 
L 1178 4863 
L 1178 4134 
L 603 4134 
L 603 4863 
z
" transform="scale(0.015625)"/>
       <path id="DejaVuSans-6e" d="M 3513 2113 
L 3513 0 
L 2938 0 
L 2938 2094 
Q 2938 2591 2744 2837 
Q 2550 3084 2163 3084 
Q 1697 3084 1428 2787 
Q 1159 2491 1159 1978 
L 1159 0 
L 581 0 
L 581 3500 
L 1159 3500 
L 1159 2956 
Q 1366 3272 1645 3428 
Q 1925 3584 2291 3584 
Q 2894 3584 3203 3211 
Q 3513 2838 3513 2113 
z
" transform="scale(0.015625)"/>
       <path id="DejaVuSans-74" d="M 1172 4494 
L 1172 3500 
L 2356 3500 
L 2356 3053 
L 1172 3053 
L 1172 1153 
Q 1172 725 1289 603 
Q 1406 481 1766 481 
L 2356 481 
L 2356 0 
L 1766 0 
Q 1100 0 847 248 
Q 594 497 594 1153 
L 594 3053 
L 172 3053 
L 172 3500 
L 594 3500 
L 594 4494 
L 1172 4494 
z
" transform="scale(0.015625)"/>
       <path id="DejaVuSans-2f" d="M 1625 4666 
L 2156 4666 
L 531 -594 
L 0 -594 
L 1625 4666 
z
" transform="scale(0.015625)"/>
      </defs>
      <use xlink:href="#DejaVuSans-55"/>
      <use xlink:href="#DejaVuSans-73" x="73.193359"/>
      <use xlink:href="#DejaVuSans-65" x="125.292969"/>
      <use xlink:href="#DejaVuSans-64" x="186.816406"/>
      <use xlink:href="#DejaVuSans-20" x="250.292969"/>
      <use xlink:href="#DejaVuSans-67" x="282.080078"/>
      <use xlink:href="#DejaVuSans-72" x="345.556641"/>
      <use xlink:href="#DejaVuSans-61" x="386.669922"/>
      <use xlink:href="#DejaVuSans-64" x="447.949219"/>
      <use xlink:href="#DejaVuSans-69" x="511.425781"/>
      <use xlink:href="#DejaVuSans-65" x="539.208984"/>
      <use xlink:href="#DejaVuSans-6e" x="600.732422"/>
      <use xlink:href="#DejaVuSans-74" x="664.111328"/>
      <use xlink:href="#DejaVuSans-73" x="703.320312"/>
      <use xlink:href="#DejaVuSans-20" x="755.419922"/>
      <use xlink:href="#DejaVuSans-2f" x="787.207031"/>
      <use xlink:href="#DejaVuSans-20" x="820.898438"/>
      <use xlink:href="#DejaVuSans-6e" x="852.685547"/>
     </g>
    </g>
   </g>
   <g id="matplotlib.axis_2">
    <g id="ytick_1">
     <g id="line2d_15">
      <path d="M 47.72 414.087649 
L 853.2 414.087649 
" clip-path="url(#pd449b7cbb7)" style="fill: none; stroke: #b0b0b0; stroke-width: 0.8; stroke-linecap: square"/>
     </g>
     <g id="line2d_16">
      <defs>
       <path id="m0a205bd75e" d="M 0 0 
L -3.5 0 
" style="stroke: #000000; stroke-width: 0.8"/>
      </defs>
      <g>
       <use xlink:href="#m0a205bd75e" x="47.72" y="414.087649" style="stroke: #000000; stroke-width: 0.8"/>
      </g>
     </g>
     <g id="text_9">
      <!-- 0.3 -->
      <g transform="translate(24.816875 417.886868) scale(0.1 -0.1)">
       <defs>
        <path id="DejaVuSans-2e" d="M 684 794 
L 1344 794 
L 1344 0 
L 684 0 
L 684 794 
z
" transform="scale(0.015625)"/>
        <path id="DejaVuSans-33" d="M 2597 2516 
Q 3050 2419 3304 2112 
Q 3559 1806 3559 1356 
Q 3559 666 3084 287 
Q 2609 -91 1734 -91 
Q 1441 -91 1130 -33 
Q 819 25 488 141 
L 488 750 
Q 750 597 1062 519 
Q 1375 441 1716 441 
Q 2309 441 2620 675 
Q 2931 909 2931 1356 
Q 2931 1769 2642 2001 
Q 2353 2234 1838 2234 
L 1294 2234 
L 1294 2753 
L 1863 2753 
Q 2328 2753 2575 2939 
Q 2822 3125 2822 3475 
Q 2822 3834 2567 4026 
Q 2313 4219 1838 4219 
Q 1578 4219 1281 4162 
Q 984 4106 628 3988 
L 628 4550 
Q 988 4650 1302 4700 
Q 1616 4750 1894 4750 
Q 2613 4750 3031 4423 
Q 3450 4097 3450 3541 
Q 3450 3153 3228 2886 
Q 3006 2619 2597 2516 
z
" transform="scale(0.015625)"/>
       </defs>
       <use xlink:href="#DejaVuSans-30"/>
       <use xlink:href="#DejaVuSans-2e" x="63.623047"/>
       <use xlink:href="#DejaVuSans-33" x="95.410156"/>
      </g>
     </g>
    </g>
    <g id="ytick_2">
     <g id="line2d_17">
      <path d="M 47.72 363.98019 
L 853.2 363.98019 
" clip-path="url(#pd449b7cbb7)" style="fill: none; stroke: #b0b0b0; stroke-width: 0.8; stroke-linecap: square"/>
     </g>
     <g id="line2d_18">
      <g>
       <use xlink:href="#m0a205bd75e" x="47.72" y="363.98019" style="stroke: #000000; stroke-width: 0.8"/>
      </g>
     </g>
     <g id="text_10">
      <!-- 0.4 -->
      <g transform="translate(24.816875 367.779409) scale(0.1 -0.1)">
       <use xlink:href="#DejaVuSans-30"/>
       <use xlink:href="#DejaVuSans-2e" x="63.623047"/>
       <use xlink:href="#DejaVuSans-34" x="95.410156"/>
      </g>
     </g>
    </g>
    <g id="ytick_3">
     <g id="line2d_19">
      <path d="M 47.72 313.87273 
L 853.2 313.87273 
" clip-path="url(#pd449b7cbb7)" style="fill: none; stroke: #b0b0b0; stroke-width: 0.8; stroke-linecap: square"/>
     </g>
     <g id="line2d_20">
      <g>
       <use xlink:href="#m0a205bd75e" x="47.72" y="313.87273" style="stroke: #000000; stroke-width: 0.8"/>
      </g>
     </g>
     <g id="text_11">
      <!-- 0.5 -->
      <g transform="translate(24.816875 317.671949) scale(0.1 -0.1)">
       <defs>
        <path id="DejaVuSans-35" d="M 691 4666 
L 3169 4666 
L 3169 4134 
L 1269 4134 
L 1269 2991 
Q 1406 3038 1543 3061 
Q 1681 3084 1819 3084 
Q 2600 3084 3056 2656 
Q 3513 2228 3513 1497 
Q 3513 744 3044 326 
Q 2575 -91 1722 -91 
Q 1428 -91 1123 -41 
Q 819 9 494 109 
L 494 744 
Q 775 591 1075 516 
Q 1375 441 1709 441 
Q 2250 441 2565 725 
Q 2881 1009 2881 1497 
Q 2881 1984 2565 2268 
Q 2250 2553 1709 2553 
Q 1456 2553 1204 2497 
Q 953 2441 691 2322 
L 691 4666 
z
" transform="scale(0.015625)"/>
       </defs>
       <use xlink:href="#DejaVuSans-30"/>
       <use xlink:href="#DejaVuSans-2e" x="63.623047"/>
       <use xlink:href="#DejaVuSans-35" x="95.410156"/>
      </g>
     </g>
    </g>
    <g id="ytick_4">
     <g id="line2d_21">
      <path d="M 47.72 263.765271 
L 853.2 263.765271 
" clip-path="url(#pd449b7cbb7)" style="fill: none; stroke: #b0b0b0; stroke-width: 0.8; stroke-linecap: square"/>
     </g>
     <g id="line2d_22">
      <g>
       <use xlink:href="#m0a205bd75e" x="47.72" y="263.765271" style="stroke: #000000; stroke-width: 0.8"/>
      </g>
     </g>
     <g id="text_12">
      <!-- 0.6 -->
      <g transform="translate(24.816875 267.56449) scale(0.1 -0.1)">
       <use xlink:href="#DejaVuSans-30"/>
       <use xlink:href="#DejaVuSans-2e" x="63.623047"/>
       <use xlink:href="#DejaVuSans-36" x="95.410156"/>
      </g>
     </g>
    </g>
    <g id="ytick_5">
     <g id="line2d_23">
      <path d="M 47.72 213.657812 
L 853.2 213.657812 
" clip-path="url(#pd449b7cbb7)" style="fill: none; stroke: #b0b0b0; stroke-width: 0.8; stroke-linecap: square"/>
     </g>
     <g id="line2d_24">
      <g>
       <use xlink:href="#m0a205bd75e" x="47.72" y="213.657812" style="stroke: #000000; stroke-width: 0.8"/>
      </g>
     </g>
     <g id="text_13">
      <!-- 0.7 -->
      <g transform="translate(24.816875 217.45703) scale(0.1 -0.1)">
       <defs>
        <path id="DejaVuSans-37" d="M 525 4666 
L 3525 4666 
L 3525 4397 
L 1831 0 
L 1172 0 
L 2766 4134 
L 525 4134 
L 525 4666 
z
" transform="scale(0.015625)"/>
       </defs>
       <use xlink:href="#DejaVuSans-30"/>
       <use xlink:href="#DejaVuSans-2e" x="63.623047"/>
       <use xlink:href="#DejaVuSans-37" x="95.410156"/>
      </g>
     </g>
    </g>
    <g id="ytick_6">
     <g id="line2d_25">
      <path d="M 47.72 163.550352 
L 853.2 163.550352 
" clip-path="url(#pd449b7cbb7)" style="fill: none; stroke: #b0b0b0; stroke-width: 0.8; stroke-linecap: square"/>
     </g>
     <g id="line2d_26">
      <g>
       <use xlink:href="#m0a205bd75e" x="47.72" y="163.550352" style="stroke: #000000; stroke-width: 0.8"/>
      </g>
     </g>
     <g id="text_14">
      <!-- 0.8 -->
      <g transform="translate(24.816875 167.349571) scale(0.1 -0.1)">
       <use xlink:href="#DejaVuSans-30"/>
       <use xlink:href="#DejaVuSans-2e" x="63.623047"/>
       <use xlink:href="#DejaVuSans-38" x="95.410156"/>
      </g>
     </g>
    </g>
    <g id="ytick_7">
     <g id="line2d_27">
      <path d="M 47.72 113.442893 
L 853.2 113.442893 
" clip-path="url(#pd449b7cbb7)" style="fill: none; stroke: #b0b0b0; stroke-width: 0.8; stroke-linecap: square"/>
     </g>
     <g id="line2d_28">
      <g>
       <use xlink:href="#m0a205bd75e" x="47.72" y="113.442893" style="stroke: #000000; stroke-width: 0.8"/>
      </g>
     </g>
     <g id="text_15">
      <!-- 0.9 -->
      <g transform="translate(24.816875 117.242112) scale(0.1 -0.1)">
       <defs>
        <path id="DejaVuSans-39" d="M 703 97 
L 703 672 
Q 941 559 1184 500 
Q 1428 441 1663 441 
Q 2288 441 2617 861 
Q 2947 1281 2994 2138 
Q 2813 1869 2534 1725 
Q 2256 1581 1919 1581 
Q 1219 1581 811 2004 
Q 403 2428 403 3163 
Q 403 3881 828 4315 
Q 1253 4750 1959 4750 
Q 2769 4750 3195 4129 
Q 3622 3509 3622 2328 
Q 3622 1225 3098 567 
Q 2575 -91 1691 -91 
Q 1453 -91 1209 -44 
Q 966 3 703 97 
z
M 1959 2075 
Q 2384 2075 2632 2365 
Q 2881 2656 2881 3163 
Q 2881 3666 2632 3958 
Q 2384 4250 1959 4250 
Q 1534 4250 1286 3958 
Q 1038 3666 1038 3163 
Q 1038 2656 1286 2365 
Q 1534 2075 1959 2075 
z
" transform="scale(0.015625)"/>
       </defs>
       <use xlink:href="#DejaVuSans-30"/>
       <use xlink:href="#DejaVuSans-2e" x="63.623047"/>
       <use xlink:href="#DejaVuSans-39" x="95.410156"/>
      </g>
     </g>
    </g>
    <g id="ytick_8">
     <g id="line2d_29">
      <path d="M 47.72 63.335433 
L 853.2 63.335433 
" clip-path="url(#pd449b7cbb7)" style="fill: none; stroke: #b0b0b0; stroke-width: 0.8; stroke-linecap: square"/>
     </g>
     <g id="line2d_30">
      <g>
       <use xlink:href="#m0a205bd75e" x="47.72" y="63.335433" style="stroke: #000000; stroke-width: 0.8"/>
      </g>
     </g>
     <g id="text_16">
      <!-- 1.0 -->
      <g transform="translate(24.816875 67.134652) scale(0.1 -0.1)">
       <use xlink:href="#DejaVuSans-31"/>
       <use xlink:href="#DejaVuSans-2e" x="63.623047"/>
       <use xlink:href="#DejaVuSans-30" x="95.410156"/>
      </g>
     </g>
    </g>
    <g id="text_17">
     <!-- Accuracy -->
     <g transform="translate(18.737188 269.788125) rotate(-90) scale(0.1 -0.1)">
      <defs>
       <path id="DejaVuSans-41" d="M 2188 4044 
L 1331 1722 
L 3047 1722 
L 2188 4044 
z
M 1831 4666 
L 2547 4666 
L 4325 0 
L 3669 0 
L 3244 1197 
L 1141 1197 
L 716 0 
L 50 0 
L 1831 4666 
z
" transform="scale(0.015625)"/>
       <path id="DejaVuSans-63" d="M 3122 3366 
L 3122 2828 
Q 2878 2963 2633 3030 
Q 2388 3097 2138 3097 
Q 1578 3097 1268 2742 
Q 959 2388 959 1747 
Q 959 1106 1268 751 
Q 1578 397 2138 397 
Q 2388 397 2633 464 
Q 2878 531 3122 666 
L 3122 134 
Q 2881 22 2623 -34 
Q 2366 -91 2075 -91 
Q 1284 -91 818 406 
Q 353 903 353 1747 
Q 353 2603 823 3093 
Q 1294 3584 2113 3584 
Q 2378 3584 2631 3529 
Q 2884 3475 3122 3366 
z
" transform="scale(0.015625)"/>
       <path id="DejaVuSans-75" d="M 544 1381 
L 544 3500 
L 1119 3500 
L 1119 1403 
Q 1119 906 1312 657 
Q 1506 409 1894 409 
Q 2359 409 2629 706 
Q 2900 1003 2900 1516 
L 2900 3500 
L 3475 3500 
L 3475 0 
L 2900 0 
L 2900 538 
Q 2691 219 2414 64 
Q 2138 -91 1772 -91 
Q 1169 -91 856 284 
Q 544 659 544 1381 
z
M 1991 3584 
L 1991 3584 
z
" transform="scale(0.015625)"/>
       <path id="DejaVuSans-79" d="M 2059 -325 
Q 1816 -950 1584 -1140 
Q 1353 -1331 966 -1331 
L 506 -1331 
L 506 -850 
L 844 -850 
Q 1081 -850 1212 -737 
Q 1344 -625 1503 -206 
L 1606 56 
L 191 3500 
L 800 3500 
L 1894 763 
L 2988 3500 
L 3597 3500 
L 2059 -325 
z
" transform="scale(0.015625)"/>
      </defs>
      <use xlink:href="#DejaVuSans-41"/>
      <use xlink:href="#DejaVuSans-63" x="66.658203"/>
      <use xlink:href="#DejaVuSans-63" x="121.638672"/>
      <use xlink:href="#DejaVuSans-75" x="176.619141"/>
      <use xlink:href="#DejaVuSans-72" x="239.998047"/>
      <use xlink:href="#DejaVuSans-61" x="281.111328"/>
      <use xlink:href="#DejaVuSans-63" x="342.390625"/>
      <use xlink:href="#DejaVuSans-79" x="397.371094"/>
     </g>
    </g>
   </g>
   <g id="line2d_31">
    <path d="M 84.332727 425.650909 
L 101.031827 154.916451 
L 117.730928 92.012318 
L 134.430028 102.187987 
L 151.129128 76.286284 
L 167.828228 76.594638 
L 184.527328 73.202748 
L 201.226428 72.894395 
L 217.925528 72.277688 
L 234.624628 71.352627 
L 251.323729 71.044273 
L 268.022829 70.73592 
L 284.721929 70.73592 
L 301.421029 70.73592 
L 318.120129 70.73592 
L 334.819229 70.73592 
L 351.518329 70.73592 
L 368.217429 70.73592 
L 384.91653 70.427566 
L 401.61563 70.427566 
L 418.31473 70.119212 
L 435.01383 70.119212 
L 451.71293 69.502505 
L 468.41203 69.502505 
L 485.11113 69.502505 
L 501.81023 69.502505 
L 518.509331 69.502505 
L 535.208431 69.502505 
L 551.907531 69.502505 
L 568.606631 69.502505 
L 585.305731 69.502505 
L 602.004831 69.502505 
L 618.703931 69.502505 
L 635.403031 69.194152 
L 652.102132 69.194152 
L 668.801232 69.194152 
L 685.500332 69.194152 
L 702.199432 68.885798 
L 718.898532 68.885798 
L 735.597632 68.577445 
L 752.296732 68.577445 
L 768.995832 68.577445 
L 785.694933 68.269091 
" clip-path="url(#pd449b7cbb7)" style="fill: none; stroke: #ffa500; stroke-width: 1.5; stroke-linecap: square"/>
   </g>
   <g id="line2d_32">
    <path d="M 84.332727 425.650909 
L 85.44029 355.346289 
L 86.215583 327.286112 
L 87.544658 275.174354 
L 87.766171 268.390575 
L 88.319952 254.20631 
L 88.652221 244.955702 
L 88.98449 237.555215 
L 89.206002 228.921315 
L 89.427515 221.829182 
L 89.538271 221.520828 
L 90.313565 187.293579 
L 90.867346 167.250595 
L 91.753396 139.190418 
L 91.864152 138.573711 
L 92.196421 130.248164 
L 92.417933 126.856274 
L 92.860958 122.847677 
L 93.082471 118.839081 
L 94.190033 107.738351 
L 94.411546 106.504937 
L 94.522302 106.504937 
L 95.076083 103.729754 
L 95.18684 103.729754 
L 95.851377 101.879633 
L 96.072889 100.954572 
L 96.294402 100.337865 
L 96.515914 99.412804 
L 96.626671 100.646219 
L 96.848183 99.721158 
L 97.069696 98.17939 
L 97.180452 99.721158 
L 97.512721 97.871036 
L 97.734233 98.17939 
L 98.066502 96.020915 
L 98.177258 96.329268 
L 98.288014 96.020915 
L 98.398771 96.329268 
L 98.620283 95.404207 
L 98.731039 95.095854 
L 98.841796 95.404207 
L 99.174064 94.7875 
L 99.284821 94.7875 
L 99.395577 94.479147 
L 99.617089 95.404207 
L 99.727846 96.637622 
L 99.949358 94.479147 
L 100.281627 92.937379 
L 100.392383 92.937379 
L 100.503139 91.395611 
L 100.613896 92.012318 
L 100.724652 91.395611 
L 100.835408 91.703964 
L 101.056921 91.395611 
L 101.167677 91.395611 
L 101.278433 90.778903 
L 101.389189 89.237135 
L 101.610702 90.778903 
L 101.721458 89.853843 
L 101.832214 90.47055 
L 101.942971 88.312075 
L 102.164483 90.162196 
L 102.275239 89.853843 
L 102.496752 91.087257 
L 102.607508 90.778903 
L 102.718264 91.087257 
L 102.939777 89.545489 
L 103.161289 90.47055 
L 103.272046 90.47055 
L 103.493558 89.237135 
L 103.604314 89.237135 
L 103.715071 89.853843 
L 103.936583 89.237135 
L 104.158096 86.153599 
L 104.268852 86.153599 
L 104.601121 89.237135 
L 104.822633 85.536892 
L 105.044146 85.536892 
L 105.265658 86.153599 
L 105.376414 86.153599 
L 105.597927 85.228539 
L 105.708683 85.536892 
L 106.040952 84.303478 
L 106.594733 83.070064 
L 106.816245 83.378417 
L 107.148514 83.378417 
L 107.370027 83.995124 
L 107.702295 83.995124 
L 107.813052 83.378417 
L 108.034564 83.995124 
L 108.14532 83.378417 
L 108.256077 83.686771 
L 108.477589 83.378417 
L 108.588345 82.145003 
L 108.809858 83.070064 
L 108.920614 82.453356 
L 109.03137 83.070064 
L 109.252883 82.76171 
L 109.363639 83.070064 
L 109.585152 82.453356 
L 109.695908 82.453356 
L 109.91742 81.219942 
L 110.028177 81.836649 
L 110.249689 81.219942 
L 110.360445 82.145003 
L 110.692714 81.528296 
L 110.80347 82.145003 
L 111.024983 81.219942 
L 111.135739 81.528296 
L 111.246495 81.219942 
L 111.468008 81.836649 
L 111.578764 80.294881 
L 111.800277 81.528296 
L 111.911033 81.219942 
L 112.021789 81.836649 
L 112.243302 81.219942 
L 112.354058 81.528296 
L 112.464814 82.453356 
L 112.686327 81.528296 
L 112.797083 82.145003 
L 113.129352 80.911588 
L 113.240108 80.911588 
L 113.46162 78.753113 
L 113.572377 78.753113 
L 113.793889 78.44476 
L 114.901452 78.44476 
L 115.676745 76.594638 
L 115.787501 76.594638 
L 115.898258 76.902992 
L 116.341283 75.977931 
L 116.673551 75.977931 
L 116.784308 75.669577 
L 117.00582 76.902992 
L 117.116576 76.594638 
L 117.227333 77.211345 
L 117.559601 76.594638 
L 117.670358 76.594638 
L 117.89187 76.902992 
L 118.002626 76.902992 
L 118.224139 76.594638 
L 118.334895 76.594638 
L 118.556408 76.902992 
L 118.667164 76.286284 
L 118.77792 76.902992 
L 119.110189 76.286284 
L 119.220945 76.286284 
L 119.442458 75.977931 
L 119.553214 75.977931 
L 119.885483 75.361224 
L 119.996239 75.361224 
L 120.217751 74.744516 
L 120.771533 74.744516 
L 120.993045 75.05287 
L 121.103801 75.05287 
L 121.325314 74.744516 
L 121.43607 75.05287 
L 121.657583 74.436163 
L 121.879095 75.05287 
L 122.32212 74.127809 
L 122.875901 75.361224 
L 122.986658 75.361224 
L 123.097414 75.05287 
L 123.20817 75.361224 
L 123.651195 74.436163 
L 123.872708 74.744516 
L 123.983464 74.744516 
L 124.09422 75.05287 
L 124.537245 74.127809 
L 124.648001 74.436163 
L 124.869514 74.127809 
L 124.98027 74.127809 
L 125.534051 72.894395 
L 125.977076 73.819456 
L 126.198589 72.894395 
L 126.309345 72.894395 
L 126.530857 73.202748 
L 126.75237 73.202748 
L 126.973882 72.894395 
L 128.081445 72.894395 
L 128.302957 73.202748 
L 128.856739 73.202748 
L 129.078251 72.894395 
L 131.736401 72.894395 
L 131.847157 72.586041 
L 132.06867 72.894395 
L 132.179426 72.894395 
L 132.400939 72.586041 
L 132.622451 72.586041 
L 132.843964 72.894395 
L 133.286989 72.894395 
L 133.508501 72.586041 
L 133.619257 72.586041 
L 133.84077 72.894395 
L 134.062282 72.586041 
L 134.173039 72.586041 
L 134.394551 72.894395 
L 135.169845 72.894395 
L 135.502114 72.277688 
L 135.723626 72.894395 
L 135.834382 72.586041 
L 135.945139 73.202748 
L 136.166651 72.277688 
L 136.388163 72.586041 
L 136.609676 72.277688 
L 136.831188 72.894395 
L 140.596901 72.894395 
L 140.707657 72.586041 
L 140.818413 72.894395 
L 141.039926 72.277688 
L 141.261438 72.277688 
L 141.482951 72.894395 
L 141.704463 71.969334 
L 141.81522 71.969334 
L 142.147488 72.894395 
L 142.369001 72.586041 
L 142.590513 72.586041 
L 142.70127 72.277688 
L 142.922782 72.586041 
L 143.144295 72.277688 
L 143.808832 72.277688 
L 144.030345 72.894395 
L 144.141101 72.894395 
L 144.251857 72.586041 
L 144.362613 72.894395 
L 144.584126 72.277688 
L 145.470176 72.277688 
L 145.691688 71.969334 
L 146.688494 71.969334 
L 146.910007 72.277688 
L 147.131519 72.277688 
L 147.353032 71.969334 
L 148.571351 71.969334 
L 148.682107 72.277688 
L 148.792863 71.969334 
L 149.014376 72.277688 
L 149.568157 72.277688 
L 149.678913 71.969334 
L 149.789669 72.277688 
L 150.011182 71.66098 
L 151.451013 71.66098 
L 151.672526 71.352627 
L 151.894038 71.352627 
L 152.115551 71.969334 
L 152.226307 72.277688 
L 152.447819 71.352627 
L 152.669332 71.969334 
L 152.780088 71.969334 
L 152.890844 71.66098 
L 153.112357 72.277688 
L 153.555382 71.352627 
L 153.666138 71.352627 
L 153.776894 71.969334 
L 153.998407 71.352627 
L 154.109163 71.352627 
L 154.219919 71.044273 
L 154.441432 71.352627 
L 154.884457 71.352627 
L 154.995213 71.044273 
L 155.216726 71.352627 
L 155.327482 71.352627 
L 155.438238 71.969334 
L 155.659751 71.352627 
L 155.770507 71.352627 
L 155.992019 71.044273 
L 156.102776 71.044273 
L 156.324288 71.352627 
L 156.656557 71.352627 
L 156.988825 71.969334 
L 157.099582 71.969334 
L 157.321094 71.352627 
L 157.43185 71.352627 
L 157.542607 71.044273 
L 157.653363 71.352627 
L 157.874875 71.044273 
L 158.096388 71.352627 
L 158.428657 71.352627 
L 158.539413 71.044273 
L 158.760925 71.352627 
L 158.871682 71.044273 
L 159.093194 71.352627 
L 159.314707 71.352627 
L 159.536219 72.277688 
L 159.646975 71.969334 
L 159.868488 72.277688 
L 160.200757 72.277688 
L 160.643782 71.352627 
L 161.308319 71.352627 
L 161.751344 72.277688 
L 162.305125 72.277688 
L 162.415882 71.66098 
L 162.637394 72.277688 
L 162.969663 72.277688 
L 163.080419 71.352627 
L 163.523444 72.277688 
L 163.744957 72.277688 
L 163.855713 72.586041 
L 163.966469 72.277688 
L 164.077225 72.586041 
L 164.187982 72.277688 
L 164.52025 73.511102 
L 164.741763 72.277688 
L 165.295544 71.044273 
L 165.517057 71.352627 
L 165.849325 71.352627 
L 166.070838 71.044273 
L 166.29235 71.352627 
L 166.846131 71.352627 
L 166.956888 71.044273 
L 167.067644 71.352627 
L 167.289156 71.044273 
L 167.621425 71.044273 
L 167.732181 71.352627 
L 167.842938 71.044273 
L 168.06445 71.352627 
L 168.285963 71.044273 
L 168.507475 71.044273 
L 168.618231 71.352627 
L 168.728988 71.044273 
L 168.9505 71.352627 
L 169.172013 71.352627 
L 169.282769 71.044273 
L 169.393525 71.352627 
L 169.615038 71.044273 
L 172.605456 71.044273 
L 172.826969 71.352627 
L 173.38075 71.352627 
L 173.602263 71.044273 
L 173.823775 71.044273 
L 174.045288 71.352627 
L 174.377556 71.352627 
L 174.488313 71.044273 
L 174.709825 71.352627 
L 174.820581 71.044273 
L 175.042094 71.352627 
L 175.374363 71.352627 
L 175.485119 71.044273 
L 175.706631 71.352627 
L 176.260413 71.352627 
L 176.481925 71.66098 
L 176.814194 71.66098 
L 176.92495 71.352627 
L 177.146462 71.66098 
L 177.257219 71.66098 
L 177.367975 71.044273 
L 177.589487 71.66098 
L 177.811 71.352627 
L 177.921756 71.352627 
L 178.143269 71.66098 
L 178.254025 71.66098 
L 178.586294 71.044273 
L 178.69705 71.044273 
L 179.029319 71.66098 
L 179.250831 71.352627 
L 179.361587 71.352627 
L 179.5831 71.66098 
L 180.912175 71.66098 
L 181.022931 71.352627 
L 181.244444 71.66098 
L 182.24125 71.66098 
L 182.462762 71.352627 
L 182.573519 71.66098 
L 182.905787 71.044273 
L 183.016544 71.352627 
L 183.238056 71.044273 
L 183.570325 71.66098 
L 183.791837 71.66098 
L 184.01335 71.352627 
L 184.234862 71.352627 
L 184.345619 71.044273 
L 184.677887 71.66098 
L 184.788644 71.352627 
L 184.8994 71.66098 
L 185.231669 71.044273 
L 185.342425 71.044273 
L 185.563937 71.352627 
L 185.674694 71.352627 
L 185.896206 71.66098 
L 186.006962 71.66098 
L 186.339231 71.044273 
L 186.560744 71.352627 
L 186.6715 71.352627 
L 186.893012 71.044273 
L 187.003768 71.044273 
L 187.114525 71.352627 
L 187.225281 71.044273 
L 187.55755 71.66098 
L 187.779062 71.044273 
L 188.222087 71.044273 
L 188.4436 70.73592 
L 201.291324 70.73592 
L 201.402081 71.044273 
L 201.623593 70.73592 
L 201.734349 70.73592 
L 201.955862 71.66098 
L 202.066618 70.73592 
L 202.177374 71.352627 
L 202.398887 70.73592 
L 206.053843 70.73592 
L 206.275356 71.044273 
L 206.386112 70.73592 
L 206.496868 71.044273 
L 206.718381 70.73592 
L 206.829137 70.73592 
L 207.050649 71.044273 
L 207.272162 71.044273 
L 207.493674 70.73592 
L 208.49048 70.73592 
L 208.711993 71.044273 
L 209.708799 71.044273 
L 209.819555 71.352627 
L 210.041068 71.044273 
L 210.151824 71.044273 
L 210.26258 71.352627 
L 210.594849 70.73592 
L 211.037874 70.73592 
L 211.259387 71.044273 
L 211.370143 71.044273 
L 211.480899 70.73592 
L 211.702412 71.352627 
L 211.813168 70.73592 
L 211.923924 71.044273 
L 212.145437 70.73592 
L 212.256193 71.044273 
L 212.477705 70.73592 
L 212.588462 71.044273 
L 212.809974 70.73592 
L 213.474512 70.73592 
L 213.696024 71.044273 
L 213.917537 70.73592 
L 214.914343 70.73592 
L 215.135855 70.427566 
L 215.357368 70.73592 
L 215.468124 70.73592 
L 215.57888 70.427566 
L 215.800393 70.73592 
L 218.347786 70.73592 
L 218.569299 70.119212 
L 218.790811 70.427566 
L 219.012324 70.119212 
L 219.12308 70.119212 
L 219.344593 70.427566 
L 219.566105 70.119212 
L 219.676861 70.119212 
L 220.00913 70.73592 
L 220.562911 70.73592 
L 220.673668 70.119212 
L 220.89518 70.427566 
L 221.005936 70.427566 
L 221.227449 70.73592 
L 221.338205 70.427566 
L 221.559718 70.73592 
L 223.996355 70.73592 
L 224.328624 70.119212 
L 224.550136 70.73592 
L 224.771649 70.119212 
L 224.882405 70.119212 
L 225.214674 70.73592 
L 225.32543 70.119212 
L 225.546943 70.73592 
L 228.980386 70.73592 
L 229.091142 70.119212 
L 229.312655 70.73592 
L 237.951642 70.73592 
L 238.173155 70.427566 
L 238.283911 70.73592 
L 238.61618 70.119212 
L 238.726936 70.119212 
L 238.948448 69.810859 
L 239.391473 69.810859 
L 239.612986 70.119212 
L 240.499036 70.119212 
L 240.609792 70.73592 
L 240.831305 69.810859 
L 241.052817 70.119212 
L 241.495842 70.119212 
L 241.717355 69.810859 
L 242.714161 69.810859 
L 242.935673 70.119212 
L 244.153992 70.119212 
L 244.486261 69.502505 
L 244.707773 69.810859 
L 244.929286 69.502505 
L 245.040042 69.810859 
L 245.261555 69.502505 
L 246.479873 69.502505 
L 246.701386 69.810859 
L 246.812142 69.810859 
L 246.922898 70.119212 
L 247.255167 69.502505 
L 247.47668 69.810859 
L 248.362729 69.810859 
L 248.473486 69.502505 
L 248.694998 69.810859 
L 249.027267 69.810859 
L 249.138023 69.502505 
L 249.248779 69.810859 
L 249.470292 69.502505 
L 250.356342 69.502505 
L 250.467098 69.810859 
L 250.688611 69.502505 
L 259.191749 69.502505 
L 259.413261 69.810859 
L 265.172586 69.810859 
L 265.283342 70.119212 
L 265.504855 69.810859 
L 265.726367 70.119212 
L 269.381323 70.119212 
L 269.602836 69.810859 
L 282.45056 69.810859 
L 282.561317 69.502505 
L 282.782829 69.810859 
L 284.554929 69.810859 
L 284.776442 69.502505 
L 371.448397 69.502505 
L 371.669909 69.194152 
L 403.899977 69.194152 
L 404.12149 68.885798 
L 443.772226 68.885798 
L 443.882983 68.577445 
L 444.104495 68.885798 
L 444.326008 68.577445 
L 462.822301 68.577445 
L 462.933057 68.269091 
L 462.933057 68.269091 
" clip-path="url(#pd449b7cbb7)" style="fill: none; stroke: #c83cbc; stroke-width: 1.5; stroke-linecap: square"/>
   </g>
   <g id="line2d_33">
    <path d="M 84.332727 425.650909 
L 92.534747 97.562683 
L 98.538947 97.254329 
L 104.820037 94.479147 
L 113.177807 75.669577 
L 120.341487 73.819456 
L 127.816668 72.277688 
L 135.447601 71.352627 
L 141.538329 71.044273 
L 147.836725 71.044273 
L 154.706208 70.73592 
L 161.921805 70.73592 
L 170.054602 70.73592 
L 178.412372 70.73592 
L 184.779991 70.73592 
L 190.576523 70.73592 
L 198.311289 70.427566 
L 204.523157 70.119212 
L 210.579274 70.119212 
L 216.912282 69.810859 
L 224.508603 69.810859 
L 232.208758 69.502505 
L 239.493577 69.502505 
L 247.574457 69.502505 
L 254.807359 69.502505 
L 262.732487 69.502505 
L 269.72311 69.502505 
L 277.579016 69.194152 
L 284.258137 69.194152 
L 290.521922 69.194152 
L 297.097209 69.194152 
L 303.118715 68.885798 
L 310.213171 68.885798 
L 317.169183 68.885798 
L 323.415662 68.885798 
L 330.735093 68.577445 
L 338.833278 68.577445 
L 345.131674 68.577445 
L 351.94924 68.269091 
" clip-path="url(#pd449b7cbb7)" style="fill: none; stroke: #1c1c84; stroke-width: 1.5; stroke-linecap: square"/>
   </g>
   <g id="line2d_34">
    <path d="M 84.332727 425.650909 
L 84.40195 425.650909 
L 84.592312 418.558776 
L 84.609618 418.558776 
L 84.79998 414.858533 
L 84.817286 414.858533 
L 85.007648 410.233229 
L 85.076871 410.233229 
L 85.544124 380.014577 
L 85.561429 380.014577 
L 85.751792 375.697626 
L 85.821014 375.697626 
L 86.340184 350.412632 
L 86.461324 350.412632 
L 86.824743 343.012145 
L 86.842049 343.012145 
L 87.118939 331.911416 
L 87.482358 331.911416 
L 87.67272 329.444587 
L 87.828471 329.444587 
L 88.018834 325.744344 
L 88.139973 325.744344 
L 88.451475 317.110443 
L 88.468781 317.110443 
L 88.884117 303.542885 
L 88.953339 303.542885 
L 89.143702 297.684167 
L 89.212924 297.684167 
L 89.403287 293.983923 
L 89.472509 293.983923 
L 89.7494 286.583437 
L 90.26857 286.583437 
L 90.458932 284.116608 
L 90.78774 284.116608 
L 90.978102 280.108012 
L 91.06463 280.108012 
L 91.254993 275.174354 
L 91.497272 275.174354 
L 91.687634 268.390575 
L 91.70494 268.390575 
L 91.895302 264.998685 
L 92.033748 264.998685 
L 92.379861 248.039238 
L 92.501001 248.039238 
L 92.691363 245.264055 
L 92.950948 245.264055 
L 93.158616 235.705094 
L 93.193227 235.705094 
L 93.435506 227.379547 
L 93.53934 227.379547 
L 93.729703 220.904121 
L 93.920065 215.66211 
L 94.196956 207.95327 
L 94.266178 207.95327 
L 94.768042 192.53559 
L 94.837265 192.53559 
L 95.027627 187.293579 
L 95.183378 187.293579 
L 95.373741 184.82675 
L 95.425658 184.82675 
L 95.61602 179.584739 
L 95.789077 179.584739 
L 95.979439 176.809557 
L 96.031356 176.809557 
L 96.221718 173.726021 
L 96.342858 173.726021 
L 96.429386 171.875899 
L 96.619748 165.708827 
L 96.948556 165.708827 
L 97.138918 163.241999 
L 97.242752 163.241999 
L 97.433115 162.933645 
L 97.675394 162.933645 
L 98.108036 150.907855 
L 98.159953 150.907855 
L 98.350315 145.665844 
L 98.36762 145.665844 
L 98.557983 143.815722 
L 98.765651 143.815722 
L 99.232904 135.490175 
L 99.630934 133.3317 
L 99.855908 133.3317 
L 100.04627 131.173225 
L 100.305855 131.173225 
L 100.392383 130.556517 
L 100.686579 125.314506 
L 100.703885 125.314506 
L 100.894247 124.697799 
L 100.96347 124.697799 
L 101.326889 122.847677 
L 101.638391 122.847677 
L 101.828753 122.23097 
L 101.915282 122.23097 
L 102.174866 118.222374 
L 102.330617 118.222374 
L 102.624814 114.213777 
L 102.867093 114.213777 
L 103.057455 112.672009 
L 103.195901 112.672009 
L 103.420874 110.821887 
L 103.472791 110.821887 
L 103.784293 108.663412 
L 103.888127 108.663412 
L 104.251546 106.81329 
L 104.614965 106.81329 
L 104.805327 106.504937 
L 105.307192 106.504937 
L 105.549471 104.963169 
L 105.566777 104.963169 
L 105.757139 105.579876 
L 106.224392 105.579876 
L 106.397448 104.654815 
L 106.587811 104.038108 
L 106.674339 104.038108 
L 106.95123 103.421401 
L 107.106981 103.421401 
L 107.297343 103.113047 
L 107.331954 103.113047 
L 107.522317 102.187987 
L 107.626151 102.187987 
L 108.041486 100.954572 
L 108.26646 100.954572 
L 108.456822 100.646219 
L 108.958687 100.646219 
L 109.149049 99.721158 
L 109.339411 100.029511 
L 109.685525 100.029511 
L 109.875887 99.412804 
L 110.170083 99.412804 
L 110.360445 98.796097 
L 111.191117 98.796097 
L 111.38148 98.487743 
L 111.450702 98.487743 
L 111.641064 98.17939 
L 111.65837 98.17939 
L 111.848732 97.254329 
L 112.039095 96.637622 
L 112.229457 97.254329 
L 112.419819 97.254329 
L 112.610182 96.637622 
L 112.714016 96.329268 
L 112.904378 95.095854 
L 113.112046 95.095854 
L 113.319714 96.020915 
L 113.440854 95.095854 
L 115.29256 95.095854 
L 115.552144 94.479147 
L 115.742507 95.095854 
L 115.915563 95.095854 
L 116.105926 94.479147 
L 116.20976 94.7875 
L 116.400122 94.170793 
L 116.867375 94.170793 
L 117.057737 94.479147 
L 117.974937 94.479147 
L 118.251828 93.862439 
L 118.511413 93.862439 
L 118.736387 93.245732 
L 118.926749 93.554086 
L 119.0825 93.554086 
L 119.272862 93.245732 
L 119.394002 93.245732 
L 119.584364 92.012318 
L 119.757421 92.012318 
L 119.982394 91.087257 
L 120.017006 91.087257 
L 120.155451 90.47055 
L 120.293896 90.778903 
L 120.484259 90.47055 
L 122.647467 90.47055 
L 122.837829 90.162196 
L 125.104871 90.162196 
L 125.295233 89.545489 
L 127.164245 89.545489 
L 127.354607 88.928782 
L 127.389218 88.928782 
L 127.475747 89.237135 
L 127.666109 87.695367 
L 127.804554 87.695367 
L 127.994917 86.461953 
L 128.064139 86.461953 
L 128.185279 86.153599 
L 129.240924 86.153599 
L 129.37937 85.228539 
L 129.569732 85.536892 
L 129.604343 85.536892 
L 129.794706 85.228539 
L 129.985068 85.228539 
L 130.106208 84.920185 
L 131.33491 84.920185 
L 131.525272 84.611832 
L 134.60568 84.611832 
L 134.796042 83.686771 
L 135.24599 83.686771 
L 135.436352 83.070064 
L 135.678631 83.070064 
L 135.868994 83.378417 
L 135.938216 83.378417 
L 136.059356 83.070064 
L 136.249718 83.378417 
L 136.768888 83.378417 
L 136.95925 83.070064 
L 137.443809 83.070064 
L 137.807228 82.145003 
L 137.928368 82.145003 
L 138.101424 82.76171 
L 138.291786 82.453356 
L 138.447537 82.453356 
L 138.6379 82.145003 
L 138.880179 82.145003 
L 138.984013 83.070064 
L 139.174375 81.528296 
L 139.364738 81.528296 
L 139.641628 82.145003 
L 140.316549 82.145003 
L 140.454994 81.528296 
L 140.645357 82.145003 
L 140.853025 82.145003 
L 141.043387 81.219942 
L 141.095304 81.219942 
L 141.372195 80.603235 
L 141.839448 80.603235 
L 142.012504 80.911588 
L 142.185561 80.603235 
L 143.673848 80.603235 
L 143.86421 80.294881 
L 144.071878 80.294881 
L 144.244935 80.603235 
L 144.435297 79.986528 
L 145.058301 79.986528 
L 145.179441 80.294881 
L 145.404414 79.36982 
L 145.906278 79.36982 
L 146.096641 78.753113 
L 146.356226 78.753113 
L 146.546588 78.44476 
L 148.4156 78.44476 
L 148.536739 78.136406 
L 150.059638 78.136406 
L 150.198083 77.828052 
L 150.388445 78.136406 
L 150.630725 78.136406 
L 150.751864 77.519699 
L 151.080672 77.519699 
L 151.271034 77.211345 
L 151.876732 77.211345 
L 152.032483 76.594638 
L 152.153623 76.902992 
L 152.343985 76.594638 
L 156.549262 76.594638 
L 156.670401 76.286284 
L 156.929986 76.286284 
L 157.120349 76.594638 
L 158.002937 76.594638 
L 158.1933 76.286284 
L 158.452885 76.286284 
L 158.643247 75.977931 
L 158.747081 75.977931 
L 158.902832 76.286284 
L 159.370085 76.286284 
L 159.543141 75.977931 
L 160.443036 75.977931 
L 160.633398 76.286284 
L 161.498681 76.286284 
L 161.637127 75.977931 
L 161.758266 75.977931 
L 161.948629 75.669577 
L 165.392456 75.669577 
L 165.582818 75.361224 
L 166.482713 75.361224 
L 166.673075 75.05287 
L 167.555664 75.05287 
L 167.746026 74.744516 
L 168.870894 74.744516 
L 168.992034 75.05287 
L 169.182396 74.744516 
L 169.251619 74.744516 
L 169.441981 75.05287 
L 170.861045 75.05287 
L 171.051408 74.744516 
L 171.622495 74.744516 
L 171.743634 75.05287 
L 171.916691 74.744516 
L 173.803008 74.744516 
L 173.993371 74.436163 
L 175.412435 74.436163 
L 175.602797 74.127809 
L 178.856262 74.127809 
L 179.046624 73.819456 
L 179.167764 73.819456 
L 179.358126 74.127809 
L 179.617711 74.127809 
L 179.70424 73.511102 
L 179.825379 73.819456 
L 179.963825 73.511102 
L 180.552217 73.511102 
L 180.742579 73.819456 
L 181.625168 73.819456 
L 181.815531 73.511102 
L 182.040504 73.511102 
L 182.230866 73.202748 
L 182.45584 73.202748 
L 182.646202 73.511102 
L 182.923093 73.511102 
L 183.165372 72.894395 
L 183.978738 72.894395 
L 184.169101 73.202748 
L 184.636354 73.202748 
L 184.826716 72.894395 
L 185.743916 72.894395 
L 185.882361 73.202748 
L 186.072724 72.894395 
L 186.816867 72.894395 
L 187.00723 73.202748 
L 187.059147 73.202748 
L 187.249509 72.894395 
L 187.457177 72.894395 
L 187.647539 72.586041 
L 187.80329 72.586041 
L 187.993652 72.894395 
L 188.408988 72.894395 
L 188.599351 73.202748 
L 189.256966 73.202748 
L 189.343494 72.894395 
L 189.533857 73.202748 
L 189.724219 72.894395 
L 191.022144 72.894395 
L 191.299034 72.277688 
L 191.679759 72.277688 
L 191.870121 72.586041 
L 192.700793 72.586041 
L 192.804627 72.277688 
L 193.064212 72.894395 
L 195.192809 72.894395 
L 195.383171 72.277688 
L 202.963052 72.277688 
L 203.153414 71.969334 
L 203.56875 71.969334 
L 203.655278 72.277688 
L 203.84564 71.969334 
L 219.801462 71.969334 
L 219.991825 72.277688 
L 220.857108 72.277688 
L 221.04747 71.969334 
L 222.172338 71.969334 
L 222.345395 72.277688 
L 223.193372 72.277688 
L 223.349123 71.969334 
L 238.093549 71.969334 
L 238.283911 71.66098 
L 238.318522 71.66098 
L 238.439662 71.352627 
L 239.841421 71.352627 
L 240.031783 71.044273 
L 240.274062 71.044273 
L 240.464425 71.352627 
L 241.364319 71.352627 
L 241.554681 71.044273 
L 241.693127 71.044273 
L 241.883489 71.352627 
L 242.506493 71.352627 
L 242.696855 71.044273 
L 242.766078 71.044273 
L 242.887218 71.352627 
L 244.444727 71.352627 
L 244.617784 71.044273 
L 245.448456 71.044273 
L 245.604207 71.352627 
L 246.642547 71.352627 
L 246.832909 71.044273 
L 273.84705 71.044273 
L 274.020106 70.73592 
L 274.193163 71.044273 
L 274.781556 71.044273 
L 274.971918 70.73592 
L 284.749618 70.73592 
L 284.93998 71.044273 
L 286.203294 71.044273 
L 286.393656 70.73592 
L 286.964743 70.73592 
L 287.068577 71.044273 
L 287.172411 70.73592 
L 287.362773 71.044273 
L 288.141528 71.044273 
L 288.33189 70.73592 
L 417.847477 70.73592 
L 418.037839 70.427566 
L 421.135553 70.427566 
L 421.30861 70.73592 
L 421.481666 70.427566 
L 428.767351 70.427566 
L 428.957713 70.119212 
L 438.025881 70.119212 
L 438.216243 69.810859 
L 438.510439 69.810859 
L 438.648885 69.502505 
L 669.714105 69.502505 
L 669.904468 69.194152 
L 679.180303 69.194152 
L 679.336054 68.885798 
L 680.530145 68.885798 
L 680.720508 69.194152 
L 682.208795 69.194152 
L 682.399157 68.885798 
L 683.229829 68.885798 
L 683.420191 69.194152 
L 683.610553 68.885798 
L 683.627859 68.885798 
L 683.78361 69.194152 
L 700.898911 69.194152 
L 701.089274 68.885798 
L 702.317976 68.885798 
L 702.508338 69.194152 
L 702.906368 69.194152 
L 703.027508 68.885798 
L 703.165953 68.885798 
L 703.304399 69.194152 
L 705.450301 69.194152 
L 705.640663 68.885798 
L 708.28843 68.885798 
L 708.444181 69.194152 
L 708.669154 69.194152 
L 708.8076 68.885798 
L 722.115655 68.885798 
L 722.306017 69.194152 
L 723.119383 69.194152 
L 723.275134 68.885798 
L 723.465497 69.194152 
L 723.517414 69.194152 
L 723.673165 68.885798 
L 723.776999 69.194152 
L 723.967361 68.885798 
L 750.393109 68.885798 
L 750.583472 68.577445 
L 761.122621 68.577445 
L 761.312983 68.885798 
L 761.330289 68.885798 
L 761.503345 68.577445 
L 795.612808 68.577445 
L 795.803171 68.885798 
L 795.872393 68.885798 
L 796.010839 68.577445 
L 796.201201 68.885798 
L 796.426175 68.885798 
L 796.616537 68.577445 
L 797.343375 68.577445 
L 797.48182 68.885798 
L 797.585654 68.885798 
L 797.776016 68.577445 
L 804.594448 68.577445 
L 804.715587 68.885798 
L 810.166872 68.885798 
L 810.357234 68.577445 
L 810.409151 68.577445 
L 810.599513 68.885798 
L 811.343657 68.885798 
L 811.534019 68.577445 
L 816.500744 68.577445 
L 816.587273 68.269091 
L 816.587273 68.269091 
" clip-path="url(#pd449b7cbb7)" style="fill: none; stroke: #ff0000; stroke-width: 1.5; stroke-linecap: square"/>
   </g>
   <g id="patch_3">
    <path d="M 47.72 443.52 
L 47.72 50.4 
" style="fill: none; stroke: #000000; stroke-width: 0.8; stroke-linejoin: miter; stroke-linecap: square"/>
   </g>
   <g id="patch_4">
    <path d="M 853.2 443.52 
L 853.2 50.4 
" style="fill: none; stroke: #000000; stroke-width: 0.8; stroke-linejoin: miter; stroke-linecap: square"/>
   </g>
   <g id="patch_5">
    <path d="M 47.72 443.52 
L 853.2 443.52 
" style="fill: none; stroke: #000000; stroke-width: 0.8; stroke-linejoin: miter; stroke-linecap: square"/>
   </g>
   <g id="patch_6">
    <path d="M 47.72 50.4 
L 853.2 50.4 
" style="fill: none; stroke: #000000; stroke-width: 0.8; stroke-linejoin: miter; stroke-linecap: square"/>
   </g>
   <g id="text_18">
    <!-- Accuracy over Used gradients -->
    <g transform="translate(360.54625 44.4) scale(0.12 -0.12)">
     <defs>
      <path id="DejaVuSans-6f" d="M 1959 3097 
Q 1497 3097 1228 2736 
Q 959 2375 959 1747 
Q 959 1119 1226 758 
Q 1494 397 1959 397 
Q 2419 397 2687 759 
Q 2956 1122 2956 1747 
Q 2956 2369 2687 2733 
Q 2419 3097 1959 3097 
z
M 1959 3584 
Q 2709 3584 3137 3096 
Q 3566 2609 3566 1747 
Q 3566 888 3137 398 
Q 2709 -91 1959 -91 
Q 1206 -91 779 398 
Q 353 888 353 1747 
Q 353 2609 779 3096 
Q 1206 3584 1959 3584 
z
" transform="scale(0.015625)"/>
      <path id="DejaVuSans-76" d="M 191 3500 
L 800 3500 
L 1894 563 
L 2988 3500 
L 3597 3500 
L 2284 0 
L 1503 0 
L 191 3500 
z
" transform="scale(0.015625)"/>
     </defs>
     <use xlink:href="#DejaVuSans-41"/>
     <use xlink:href="#DejaVuSans-63" x="66.658203"/>
     <use xlink:href="#DejaVuSans-63" x="121.638672"/>
     <use xlink:href="#DejaVuSans-75" x="176.619141"/>
     <use xlink:href="#DejaVuSans-72" x="239.998047"/>
     <use xlink:href="#DejaVuSans-61" x="281.111328"/>
     <use xlink:href="#DejaVuSans-63" x="342.390625"/>
     <use xlink:href="#DejaVuSans-79" x="397.371094"/>
     <use xlink:href="#DejaVuSans-20" x="456.550781"/>
     <use xlink:href="#DejaVuSans-6f" x="488.337891"/>
     <use xlink:href="#DejaVuSans-76" x="549.519531"/>
     <use xlink:href="#DejaVuSans-65" x="608.699219"/>
     <use xlink:href="#DejaVuSans-72" x="670.222656"/>
     <use xlink:href="#DejaVuSans-20" x="711.335938"/>
     <use xlink:href="#DejaVuSans-55" x="743.123047"/>
     <use xlink:href="#DejaVuSans-73" x="816.316406"/>
     <use xlink:href="#DejaVuSans-65" x="868.416016"/>
     <use xlink:href="#DejaVuSans-64" x="929.939453"/>
     <use xlink:href="#DejaVuSans-20" x="993.416016"/>
     <use xlink:href="#DejaVuSans-67" x="1025.203125"/>
     <use xlink:href="#DejaVuSans-72" x="1088.679688"/>
     <use xlink:href="#DejaVuSans-61" x="1129.792969"/>
     <use xlink:href="#DejaVuSans-64" x="1191.072266"/>
     <use xlink:href="#DejaVuSans-69" x="1254.548828"/>
     <use xlink:href="#DejaVuSans-65" x="1282.332031"/>
     <use xlink:href="#DejaVuSans-6e" x="1343.855469"/>
     <use xlink:href="#DejaVuSans-74" x="1407.234375"/>
     <use xlink:href="#DejaVuSans-73" x="1446.443359"/>
    </g>
   </g>
   <g id="legend_1">
    <g id="patch_7">
     <path d="M 777.309375 438.52 
L 846.2 438.52 
Q 848.2 438.52 848.2 436.52 
L 848.2 378.8075 
Q 848.2 376.8075 846.2 376.8075 
L 777.309375 376.8075 
Q 775.309375 376.8075 775.309375 378.8075 
L 775.309375 436.52 
Q 775.309375 438.52 777.309375 438.52 
z
" style="fill: #ffffff; opacity: 0.8; stroke: #cccccc; stroke-linejoin: miter"/>
    </g>
    <g id="line2d_35">
     <path d="M 779.309375 384.905937 
L 789.309375 384.905937 
L 799.309375 384.905937 
" style="fill: none; stroke: #ffa500; stroke-width: 1.5; stroke-linecap: square"/>
    </g>
    <g id="text_19">
     <!-- SVRG -->
     <g transform="translate(807.309375 388.405937) scale(0.1 -0.1)">
      <defs>
       <path id="DejaVuSans-53" d="M 3425 4513 
L 3425 3897 
Q 3066 4069 2747 4153 
Q 2428 4238 2131 4238 
Q 1616 4238 1336 4038 
Q 1056 3838 1056 3469 
Q 1056 3159 1242 3001 
Q 1428 2844 1947 2747 
L 2328 2669 
Q 3034 2534 3370 2195 
Q 3706 1856 3706 1288 
Q 3706 609 3251 259 
Q 2797 -91 1919 -91 
Q 1588 -91 1214 -16 
Q 841 59 441 206 
L 441 856 
Q 825 641 1194 531 
Q 1563 422 1919 422 
Q 2459 422 2753 634 
Q 3047 847 3047 1241 
Q 3047 1584 2836 1778 
Q 2625 1972 2144 2069 
L 1759 2144 
Q 1053 2284 737 2584 
Q 422 2884 422 3419 
Q 422 4038 858 4394 
Q 1294 4750 2059 4750 
Q 2388 4750 2728 4690 
Q 3069 4631 3425 4513 
z
" transform="scale(0.015625)"/>
       <path id="DejaVuSans-56" d="M 1831 0 
L 50 4666 
L 709 4666 
L 2188 738 
L 3669 4666 
L 4325 4666 
L 2547 0 
L 1831 0 
z
" transform="scale(0.015625)"/>
       <path id="DejaVuSans-52" d="M 2841 2188 
Q 3044 2119 3236 1894 
Q 3428 1669 3622 1275 
L 4263 0 
L 3584 0 
L 2988 1197 
Q 2756 1666 2539 1819 
Q 2322 1972 1947 1972 
L 1259 1972 
L 1259 0 
L 628 0 
L 628 4666 
L 2053 4666 
Q 2853 4666 3247 4331 
Q 3641 3997 3641 3322 
Q 3641 2881 3436 2590 
Q 3231 2300 2841 2188 
z
M 1259 4147 
L 1259 2491 
L 2053 2491 
Q 2509 2491 2742 2702 
Q 2975 2913 2975 3322 
Q 2975 3731 2742 3939 
Q 2509 4147 2053 4147 
L 1259 4147 
z
" transform="scale(0.015625)"/>
       <path id="DejaVuSans-47" d="M 3809 666 
L 3809 1919 
L 2778 1919 
L 2778 2438 
L 4434 2438 
L 4434 434 
Q 4069 175 3628 42 
Q 3188 -91 2688 -91 
Q 1594 -91 976 548 
Q 359 1188 359 2328 
Q 359 3472 976 4111 
Q 1594 4750 2688 4750 
Q 3144 4750 3555 4637 
Q 3966 4525 4313 4306 
L 4313 3634 
Q 3963 3931 3569 4081 
Q 3175 4231 2741 4231 
Q 1884 4231 1454 3753 
Q 1025 3275 1025 2328 
Q 1025 1384 1454 906 
Q 1884 428 2741 428 
Q 3075 428 3337 486 
Q 3600 544 3809 666 
z
" transform="scale(0.015625)"/>
      </defs>
      <use xlink:href="#DejaVuSans-53"/>
      <use xlink:href="#DejaVuSans-56" x="63.476562"/>
      <use xlink:href="#DejaVuSans-52" x="131.884766"/>
      <use xlink:href="#DejaVuSans-47" x="201.367188"/>
     </g>
    </g>
    <g id="line2d_36">
     <path d="M 779.309375 399.584063 
L 789.309375 399.584063 
L 799.309375 399.584063 
" style="fill: none; stroke: #c83cbc; stroke-width: 1.5; stroke-linecap: square"/>
    </g>
    <g id="text_20">
     <!-- L-SVRG -->
     <g transform="translate(807.309375 403.084063) scale(0.1 -0.1)">
      <defs>
       <path id="DejaVuSans-4c" d="M 628 4666 
L 1259 4666 
L 1259 531 
L 3531 531 
L 3531 0 
L 628 0 
L 628 4666 
z
" transform="scale(0.015625)"/>
       <path id="DejaVuSans-2d" d="M 313 2009 
L 1997 2009 
L 1997 1497 
L 313 1497 
L 313 2009 
z
" transform="scale(0.015625)"/>
      </defs>
      <use xlink:href="#DejaVuSans-4c"/>
      <use xlink:href="#DejaVuSans-2d" x="53.962891"/>
      <use xlink:href="#DejaVuSans-53" x="90.046875"/>
      <use xlink:href="#DejaVuSans-56" x="153.523438"/>
      <use xlink:href="#DejaVuSans-52" x="221.931641"/>
      <use xlink:href="#DejaVuSans-47" x="291.414062"/>
     </g>
    </g>
    <g id="line2d_37">
     <path d="M 779.309375 414.262187 
L 789.309375 414.262187 
L 799.309375 414.262187 
" style="fill: none; stroke: #1c1c84; stroke-width: 1.5; stroke-linecap: square"/>
    </g>
    <g id="text_21">
     <!-- SARAH -->
     <g transform="translate(807.309375 417.762187) scale(0.1 -0.1)">
      <defs>
       <path id="DejaVuSans-48" d="M 628 4666 
L 1259 4666 
L 1259 2753 
L 3553 2753 
L 3553 4666 
L 4184 4666 
L 4184 0 
L 3553 0 
L 3553 2222 
L 1259 2222 
L 1259 0 
L 628 0 
L 628 4666 
z
" transform="scale(0.015625)"/>
      </defs>
      <use xlink:href="#DejaVuSans-53"/>
      <use xlink:href="#DejaVuSans-41" x="65.351562"/>
      <use xlink:href="#DejaVuSans-52" x="133.759766"/>
      <use xlink:href="#DejaVuSans-41" x="199.242188"/>
      <use xlink:href="#DejaVuSans-48" x="267.650391"/>
     </g>
    </g>
    <g id="line2d_38">
     <path d="M 779.309375 428.940313 
L 789.309375 428.940313 
L 799.309375 428.940313 
" style="fill: none; stroke: #ff0000; stroke-width: 1.5; stroke-linecap: square"/>
    </g>
    <g id="text_22">
     <!-- PAGE -->
     <g transform="translate(807.309375 432.440313) scale(0.1 -0.1)">
      <defs>
       <path id="DejaVuSans-50" d="M 1259 4147 
L 1259 2394 
L 2053 2394 
Q 2494 2394 2734 2622 
Q 2975 2850 2975 3272 
Q 2975 3691 2734 3919 
Q 2494 4147 2053 4147 
L 1259 4147 
z
M 628 4666 
L 2053 4666 
Q 2838 4666 3239 4311 
Q 3641 3956 3641 3272 
Q 3641 2581 3239 2228 
Q 2838 1875 2053 1875 
L 1259 1875 
L 1259 0 
L 628 0 
L 628 4666 
z
" transform="scale(0.015625)"/>
       <path id="DejaVuSans-45" d="M 628 4666 
L 3578 4666 
L 3578 4134 
L 1259 4134 
L 1259 2753 
L 3481 2753 
L 3481 2222 
L 1259 2222 
L 1259 531 
L 3634 531 
L 3634 0 
L 628 0 
L 628 4666 
z
" transform="scale(0.015625)"/>
      </defs>
      <use xlink:href="#DejaVuSans-50"/>
      <use xlink:href="#DejaVuSans-41" x="53.927734"/>
      <use xlink:href="#DejaVuSans-47" x="120.585938"/>
      <use xlink:href="#DejaVuSans-45" x="198.076172"/>
     </g>
    </g>
   </g>
  </g>
  <g id="text_23">
   <!-- Mushrooms | OneLayerFC -->
   <g transform="translate(342.196562 20.779063) scale(0.14 -0.14)">
    <defs>
     <path id="DejaVuSans-4d" d="M 628 4666 
L 1569 4666 
L 2759 1491 
L 3956 4666 
L 4897 4666 
L 4897 0 
L 4281 0 
L 4281 4097 
L 3078 897 
L 2444 897 
L 1241 4097 
L 1241 0 
L 628 0 
L 628 4666 
z
" transform="scale(0.015625)"/>
     <path id="DejaVuSans-68" d="M 3513 2113 
L 3513 0 
L 2938 0 
L 2938 2094 
Q 2938 2591 2744 2837 
Q 2550 3084 2163 3084 
Q 1697 3084 1428 2787 
Q 1159 2491 1159 1978 
L 1159 0 
L 581 0 
L 581 4863 
L 1159 4863 
L 1159 2956 
Q 1366 3272 1645 3428 
Q 1925 3584 2291 3584 
Q 2894 3584 3203 3211 
Q 3513 2838 3513 2113 
z
" transform="scale(0.015625)"/>
     <path id="DejaVuSans-6d" d="M 3328 2828 
Q 3544 3216 3844 3400 
Q 4144 3584 4550 3584 
Q 5097 3584 5394 3201 
Q 5691 2819 5691 2113 
L 5691 0 
L 5113 0 
L 5113 2094 
Q 5113 2597 4934 2840 
Q 4756 3084 4391 3084 
Q 3944 3084 3684 2787 
Q 3425 2491 3425 1978 
L 3425 0 
L 2847 0 
L 2847 2094 
Q 2847 2600 2669 2842 
Q 2491 3084 2119 3084 
Q 1678 3084 1418 2786 
Q 1159 2488 1159 1978 
L 1159 0 
L 581 0 
L 581 3500 
L 1159 3500 
L 1159 2956 
Q 1356 3278 1631 3431 
Q 1906 3584 2284 3584 
Q 2666 3584 2933 3390 
Q 3200 3197 3328 2828 
z
" transform="scale(0.015625)"/>
     <path id="DejaVuSans-7c" d="M 1344 4891 
L 1344 -1509 
L 813 -1509 
L 813 4891 
L 1344 4891 
z
" transform="scale(0.015625)"/>
     <path id="DejaVuSans-4f" d="M 2522 4238 
Q 1834 4238 1429 3725 
Q 1025 3213 1025 2328 
Q 1025 1447 1429 934 
Q 1834 422 2522 422 
Q 3209 422 3611 934 
Q 4013 1447 4013 2328 
Q 4013 3213 3611 3725 
Q 3209 4238 2522 4238 
z
M 2522 4750 
Q 3503 4750 4090 4092 
Q 4678 3434 4678 2328 
Q 4678 1225 4090 567 
Q 3503 -91 2522 -91 
Q 1538 -91 948 565 
Q 359 1222 359 2328 
Q 359 3434 948 4092 
Q 1538 4750 2522 4750 
z
" transform="scale(0.015625)"/>
     <path id="DejaVuSans-46" d="M 628 4666 
L 3309 4666 
L 3309 4134 
L 1259 4134 
L 1259 2759 
L 3109 2759 
L 3109 2228 
L 1259 2228 
L 1259 0 
L 628 0 
L 628 4666 
z
" transform="scale(0.015625)"/>
     <path id="DejaVuSans-43" d="M 4122 4306 
L 4122 3641 
Q 3803 3938 3442 4084 
Q 3081 4231 2675 4231 
Q 1875 4231 1450 3742 
Q 1025 3253 1025 2328 
Q 1025 1406 1450 917 
Q 1875 428 2675 428 
Q 3081 428 3442 575 
Q 3803 722 4122 1019 
L 4122 359 
Q 3791 134 3420 21 
Q 3050 -91 2638 -91 
Q 1578 -91 968 557 
Q 359 1206 359 2328 
Q 359 3453 968 4101 
Q 1578 4750 2638 4750 
Q 3056 4750 3426 4639 
Q 3797 4528 4122 4306 
z
" transform="scale(0.015625)"/>
    </defs>
    <use xlink:href="#DejaVuSans-4d"/>
    <use xlink:href="#DejaVuSans-75" x="86.279297"/>
    <use xlink:href="#DejaVuSans-73" x="149.658203"/>
    <use xlink:href="#DejaVuSans-68" x="201.757812"/>
    <use xlink:href="#DejaVuSans-72" x="265.136719"/>
    <use xlink:href="#DejaVuSans-6f" x="304"/>
    <use xlink:href="#DejaVuSans-6f" x="365.181641"/>
    <use xlink:href="#DejaVuSans-6d" x="426.363281"/>
    <use xlink:href="#DejaVuSans-73" x="523.775391"/>
    <use xlink:href="#DejaVuSans-20" x="575.875"/>
    <use xlink:href="#DejaVuSans-7c" x="607.662109"/>
    <use xlink:href="#DejaVuSans-20" x="641.353516"/>
    <use xlink:href="#DejaVuSans-4f" x="673.140625"/>
    <use xlink:href="#DejaVuSans-6e" x="751.851562"/>
    <use xlink:href="#DejaVuSans-65" x="815.230469"/>
    <use xlink:href="#DejaVuSans-4c" x="876.753906"/>
    <use xlink:href="#DejaVuSans-61" x="932.466797"/>
    <use xlink:href="#DejaVuSans-79" x="993.746094"/>
    <use xlink:href="#DejaVuSans-65" x="1052.925781"/>
    <use xlink:href="#DejaVuSans-72" x="1114.449219"/>
    <use xlink:href="#DejaVuSans-46" x="1155.5625"/>
    <use xlink:href="#DejaVuSans-43" x="1213.082031"/>
   </g>
  </g>
 </g>
 <defs>
  <clipPath id="pd449b7cbb7">
   <rect x="47.72" y="50.4" width="805.48" height="393.12"/>
  </clipPath>
 </defs>
</svg>
