<?xml version="1.0" encoding="utf-8" standalone="no"?>
<!DOCTYPE svg PUBLIC "-//W3C//DTD SVG 1.1//EN"
  "http://www.w3.org/Graphics/SVG/1.1/DTD/svg11.dtd">
<svg xmlns:xlink="http://www.w3.org/1999/xlink" width="864pt" height="504pt" viewBox="0 0 864 504" xmlns="http://www.w3.org/2000/svg" version="1.1">
 <metadata>
  <rdf:RDF xmlns:dc="http://purl.org/dc/elements/1.1/" xmlns:cc="http://creativecommons.org/ns#" xmlns:rdf="http://www.w3.org/1999/02/22-rdf-syntax-ns#">
   <cc:Work>
    <dc:type rdf:resource="http://purl.org/dc/dcmitype/StillImage"/>
    <dc:date>2023-12-18T05:34:13.686818</dc:date>
    <dc:format>image/svg+xml</dc:format>
    <dc:creator>
     <cc:Agent>
      <dc:title>Matplotlib v3.8.2, https://matplotlib.org/</dc:title>
     </cc:Agent>
    </dc:creator>
   </cc:Work>
  </rdf:RDF>
 </metadata>
 <defs>
  <style type="text/css">*{stroke-linejoin: round; stroke-linecap: butt}</style>
 </defs>
 <g id="figure_1">
  <g id="patch_1">
   <path d="M 0 504 
L 864 504 
L 864 0 
L 0 0 
z
" style="fill: #ffffff"/>
  </g>
  <g id="axes_1">
   <g id="patch_2">
    <path d="M 72.791112 443.52 
L 853.2 443.52 
L 853.2 50.4 
L 72.791112 50.4 
z
" style="fill: #ffffff"/>
   </g>
   <g id="PathCollection_1">
    <defs>
     <path id="m6a55fdda79" d="M 0 1.936492 
C 0.513564 1.936492 1.006162 1.732451 1.369306 1.369306 
C 1.732451 1.006162 1.936492 0.513564 1.936492 0 
C 1.936492 -0.513564 1.732451 -1.006162 1.369306 -1.369306 
C 1.006162 -1.732451 0.513564 -1.936492 0 -1.936492 
C -0.513564 -1.936492 -1.006162 -1.732451 -1.369306 -1.369306 
C -1.732451 -1.006162 -1.936492 -0.513564 -1.936492 0 
C -1.936492 0.513564 -1.732451 1.006162 -1.369306 1.369306 
C -1.006162 1.732451 -0.513564 1.936492 0 1.936492 
z
" style="stroke: #ffa500"/>
    </defs>
    <g clip-path="url(#p831708fe8c)">
     <use xlink:href="#m6a55fdda79" x="109.253632" y="425.650909" style="fill: #ffa500; stroke: #ffa500"/>
    </g>
   </g>
   <g id="PathCollection_2">
    <defs>
     <path id="m4487dc6005" d="M 0 1.936492 
C 0.513564 1.936492 1.006162 1.732451 1.369306 1.369306 
C 1.732451 1.006162 1.936492 0.513564 1.936492 0 
C 1.936492 -0.513564 1.732451 -1.006162 1.369306 -1.369306 
C 1.006162 -1.732451 0.513564 -1.936492 0 -1.936492 
C -0.513564 -1.936492 -1.006162 -1.732451 -1.369306 -1.369306 
C -1.732451 -1.006162 -1.936492 -0.513564 -1.936492 0 
C -1.936492 0.513564 -1.732451 1.006162 -1.369306 1.369306 
C -1.006162 1.732451 -0.513564 1.936492 0 1.936492 
z
" style="stroke: #c83cbc"/>
    </defs>
    <g clip-path="url(#p831708fe8c)">
     <use xlink:href="#m4487dc6005" x="185.201021" y="421.457429" style="fill: #c83cbc; stroke: #c83cbc"/>
    </g>
   </g>
   <g id="PathCollection_3">
    <defs>
     <path id="mccea6045d2" d="M 0 1.936492 
C 0.513564 1.936492 1.006162 1.732451 1.369306 1.369306 
C 1.732451 1.006162 1.936492 0.513564 1.936492 0 
C 1.936492 -0.513564 1.732451 -1.006162 1.369306 -1.369306 
C 1.006162 -1.732451 0.513564 -1.936492 0 -1.936492 
C -0.513564 -1.936492 -1.006162 -1.732451 -1.369306 -1.369306 
C -1.732451 -1.006162 -1.936492 -0.513564 -1.936492 0 
C -1.936492 0.513564 -1.732451 1.006162 -1.369306 1.369306 
C -1.006162 1.732451 -0.513564 1.936492 0 1.936492 
z
" style="stroke: #1c1c84"/>
    </defs>
    <g clip-path="url(#p831708fe8c)">
     <use xlink:href="#mccea6045d2" x="109.159404" y="420.911383" style="fill: #1c1c84; stroke: #1c1c84"/>
    </g>
   </g>
   <g id="PathCollection_4">
    <defs>
     <path id="me7322f9acf" d="M 0 1.936492 
C 0.513564 1.936492 1.006162 1.732451 1.369306 1.369306 
C 1.732451 1.006162 1.936492 0.513564 1.936492 0 
C 1.936492 -0.513564 1.732451 -1.006162 1.369306 -1.369306 
C 1.006162 -1.732451 0.513564 -1.936492 0 -1.936492 
C -0.513564 -1.936492 -1.006162 -1.732451 -1.369306 -1.369306 
C -1.732451 -1.006162 -1.936492 -0.513564 -1.936492 0 
C -1.936492 0.513564 -1.732451 1.006162 -1.369306 1.369306 
C -1.006162 1.732451 -0.513564 1.936492 0 1.936492 
z
" style="stroke: #ff0000"/>
    </defs>
    <g clip-path="url(#p831708fe8c)">
     <use xlink:href="#me7322f9acf" x="817.726869" y="420.815691" style="fill: #ff0000; stroke: #ff0000"/>
    </g>
   </g>
   <g id="matplotlib.axis_1">
    <g id="xtick_1">
     <g id="line2d_1">
      <path d="M 108.264243 443.52 
L 108.264243 50.4 
" clip-path="url(#p831708fe8c)" style="fill: none; stroke: #b0b0b0; stroke-width: 0.8; stroke-linecap: square"/>
     </g>
     <g id="line2d_2">
      <defs>
       <path id="m5091e66e15" d="M 0 0 
L 0 3.5 
" style="stroke: #000000; stroke-width: 0.8"/>
      </defs>
      <g>
       <use xlink:href="#m5091e66e15" x="108.264243" y="443.52" style="stroke: #000000; stroke-width: 0.8"/>
      </g>
     </g>
     <g id="text_1">
      <!-- 0 -->
      <g transform="translate(105.082993 458.118438) scale(0.1 -0.1)">
       <defs>
        <path id="DejaVuSans-30" d="M 2034 4250 
Q 1547 4250 1301 3770 
Q 1056 3291 1056 2328 
Q 1056 1369 1301 889 
Q 1547 409 2034 409 
Q 2525 409 2770 889 
Q 3016 1369 3016 2328 
Q 3016 3291 2770 3770 
Q 2525 4250 2034 4250 
z
M 2034 4750 
Q 2819 4750 3233 4129 
Q 3647 3509 3647 2328 
Q 3647 1150 3233 529 
Q 2819 -91 2034 -91 
Q 1250 -91 836 529 
Q 422 1150 422 2328 
Q 422 3509 836 4129 
Q 1250 4750 2034 4750 
z
" transform="scale(0.015625)"/>
       </defs>
       <use xlink:href="#DejaVuSans-30"/>
      </g>
     </g>
    </g>
    <g id="xtick_2">
     <g id="line2d_3">
      <path d="M 226.048655 443.52 
L 226.048655 50.4 
" clip-path="url(#p831708fe8c)" style="fill: none; stroke: #b0b0b0; stroke-width: 0.8; stroke-linecap: square"/>
     </g>
     <g id="line2d_4">
      <g>
       <use xlink:href="#m5091e66e15" x="226.048655" y="443.52" style="stroke: #000000; stroke-width: 0.8"/>
      </g>
     </g>
     <g id="text_2">
      <!-- 5000 -->
      <g transform="translate(213.323655 458.118438) scale(0.1 -0.1)">
       <defs>
        <path id="DejaVuSans-35" d="M 691 4666 
L 3169 4666 
L 3169 4134 
L 1269 4134 
L 1269 2991 
Q 1406 3038 1543 3061 
Q 1681 3084 1819 3084 
Q 2600 3084 3056 2656 
Q 3513 2228 3513 1497 
Q 3513 744 3044 326 
Q 2575 -91 1722 -91 
Q 1428 -91 1123 -41 
Q 819 9 494 109 
L 494 744 
Q 775 591 1075 516 
Q 1375 441 1709 441 
Q 2250 441 2565 725 
Q 2881 1009 2881 1497 
Q 2881 1984 2565 2268 
Q 2250 2553 1709 2553 
Q 1456 2553 1204 2497 
Q 953 2441 691 2322 
L 691 4666 
z
" transform="scale(0.015625)"/>
       </defs>
       <use xlink:href="#DejaVuSans-35"/>
       <use xlink:href="#DejaVuSans-30" x="63.623047"/>
       <use xlink:href="#DejaVuSans-30" x="127.246094"/>
       <use xlink:href="#DejaVuSans-30" x="190.869141"/>
      </g>
     </g>
    </g>
    <g id="xtick_3">
     <g id="line2d_5">
      <path d="M 343.833066 443.52 
L 343.833066 50.4 
" clip-path="url(#p831708fe8c)" style="fill: none; stroke: #b0b0b0; stroke-width: 0.8; stroke-linecap: square"/>
     </g>
     <g id="line2d_6">
      <g>
       <use xlink:href="#m5091e66e15" x="343.833066" y="443.52" style="stroke: #000000; stroke-width: 0.8"/>
      </g>
     </g>
     <g id="text_3">
      <!-- 10000 -->
      <g transform="translate(327.926816 458.118438) scale(0.1 -0.1)">
       <defs>
        <path id="DejaVuSans-31" d="M 794 531 
L 1825 531 
L 1825 4091 
L 703 3866 
L 703 4441 
L 1819 4666 
L 2450 4666 
L 2450 531 
L 3481 531 
L 3481 0 
L 794 0 
L 794 531 
z
" transform="scale(0.015625)"/>
       </defs>
       <use xlink:href="#DejaVuSans-31"/>
       <use xlink:href="#DejaVuSans-30" x="63.623047"/>
       <use xlink:href="#DejaVuSans-30" x="127.246094"/>
       <use xlink:href="#DejaVuSans-30" x="190.869141"/>
       <use xlink:href="#DejaVuSans-30" x="254.492188"/>
      </g>
     </g>
    </g>
    <g id="xtick_4">
     <g id="line2d_7">
      <path d="M 461.617478 443.52 
L 461.617478 50.4 
" clip-path="url(#p831708fe8c)" style="fill: none; stroke: #b0b0b0; stroke-width: 0.8; stroke-linecap: square"/>
     </g>
     <g id="line2d_8">
      <g>
       <use xlink:href="#m5091e66e15" x="461.617478" y="443.52" style="stroke: #000000; stroke-width: 0.8"/>
      </g>
     </g>
     <g id="text_4">
      <!-- 15000 -->
      <g transform="translate(445.711228 458.118438) scale(0.1 -0.1)">
       <use xlink:href="#DejaVuSans-31"/>
       <use xlink:href="#DejaVuSans-35" x="63.623047"/>
       <use xlink:href="#DejaVuSans-30" x="127.246094"/>
       <use xlink:href="#DejaVuSans-30" x="190.869141"/>
       <use xlink:href="#DejaVuSans-30" x="254.492188"/>
      </g>
     </g>
    </g>
    <g id="xtick_5">
     <g id="line2d_9">
      <path d="M 579.40189 443.52 
L 579.40189 50.4 
" clip-path="url(#p831708fe8c)" style="fill: none; stroke: #b0b0b0; stroke-width: 0.8; stroke-linecap: square"/>
     </g>
     <g id="line2d_10">
      <g>
       <use xlink:href="#m5091e66e15" x="579.40189" y="443.52" style="stroke: #000000; stroke-width: 0.8"/>
      </g>
     </g>
     <g id="text_5">
      <!-- 20000 -->
      <g transform="translate(563.49564 458.118438) scale(0.1 -0.1)">
       <defs>
        <path id="DejaVuSans-32" d="M 1228 531 
L 3431 531 
L 3431 0 
L 469 0 
L 469 531 
Q 828 903 1448 1529 
Q 2069 2156 2228 2338 
Q 2531 2678 2651 2914 
Q 2772 3150 2772 3378 
Q 2772 3750 2511 3984 
Q 2250 4219 1831 4219 
Q 1534 4219 1204 4116 
Q 875 4013 500 3803 
L 500 4441 
Q 881 4594 1212 4672 
Q 1544 4750 1819 4750 
Q 2544 4750 2975 4387 
Q 3406 4025 3406 3419 
Q 3406 3131 3298 2873 
Q 3191 2616 2906 2266 
Q 2828 2175 2409 1742 
Q 1991 1309 1228 531 
z
" transform="scale(0.015625)"/>
       </defs>
       <use xlink:href="#DejaVuSans-32"/>
       <use xlink:href="#DejaVuSans-30" x="63.623047"/>
       <use xlink:href="#DejaVuSans-30" x="127.246094"/>
       <use xlink:href="#DejaVuSans-30" x="190.869141"/>
       <use xlink:href="#DejaVuSans-30" x="254.492188"/>
      </g>
     </g>
    </g>
    <g id="xtick_6">
     <g id="line2d_11">
      <path d="M 697.186302 443.52 
L 697.186302 50.4 
" clip-path="url(#p831708fe8c)" style="fill: none; stroke: #b0b0b0; stroke-width: 0.8; stroke-linecap: square"/>
     </g>
     <g id="line2d_12">
      <g>
       <use xlink:href="#m5091e66e15" x="697.186302" y="443.52" style="stroke: #000000; stroke-width: 0.8"/>
      </g>
     </g>
     <g id="text_6">
      <!-- 25000 -->
      <g transform="translate(681.280052 458.118438) scale(0.1 -0.1)">
       <use xlink:href="#DejaVuSans-32"/>
       <use xlink:href="#DejaVuSans-35" x="63.623047"/>
       <use xlink:href="#DejaVuSans-30" x="127.246094"/>
       <use xlink:href="#DejaVuSans-30" x="190.869141"/>
       <use xlink:href="#DejaVuSans-30" x="254.492188"/>
      </g>
     </g>
    </g>
    <g id="xtick_7">
     <g id="line2d_13">
      <path d="M 814.970713 443.52 
L 814.970713 50.4 
" clip-path="url(#p831708fe8c)" style="fill: none; stroke: #b0b0b0; stroke-width: 0.8; stroke-linecap: square"/>
     </g>
     <g id="line2d_14">
      <g>
       <use xlink:href="#m5091e66e15" x="814.970713" y="443.52" style="stroke: #000000; stroke-width: 0.8"/>
      </g>
     </g>
     <g id="text_7">
      <!-- 30000 -->
      <g transform="translate(799.064463 458.118438) scale(0.1 -0.1)">
       <defs>
        <path id="DejaVuSans-33" d="M 2597 2516 
Q 3050 2419 3304 2112 
Q 3559 1806 3559 1356 
Q 3559 666 3084 287 
Q 2609 -91 1734 -91 
Q 1441 -91 1130 -33 
Q 819 25 488 141 
L 488 750 
Q 750 597 1062 519 
Q 1375 441 1716 441 
Q 2309 441 2620 675 
Q 2931 909 2931 1356 
Q 2931 1769 2642 2001 
Q 2353 2234 1838 2234 
L 1294 2234 
L 1294 2753 
L 1863 2753 
Q 2328 2753 2575 2939 
Q 2822 3125 2822 3475 
Q 2822 3834 2567 4026 
Q 2313 4219 1838 4219 
Q 1578 4219 1281 4162 
Q 984 4106 628 3988 
L 628 4550 
Q 988 4650 1302 4700 
Q 1616 4750 1894 4750 
Q 2613 4750 3031 4423 
Q 3450 4097 3450 3541 
Q 3450 3153 3228 2886 
Q 3006 2619 2597 2516 
z
" transform="scale(0.015625)"/>
       </defs>
       <use xlink:href="#DejaVuSans-33"/>
       <use xlink:href="#DejaVuSans-30" x="63.623047"/>
       <use xlink:href="#DejaVuSans-30" x="127.246094"/>
       <use xlink:href="#DejaVuSans-30" x="190.869141"/>
       <use xlink:href="#DejaVuSans-30" x="254.492188"/>
      </g>
     </g>
    </g>
    <g id="text_8">
     <!-- Iterations -->
     <g transform="translate(439.182275 471.796562) scale(0.1 -0.1)">
      <defs>
       <path id="DejaVuSans-49" d="M 628 4666 
L 1259 4666 
L 1259 0 
L 628 0 
L 628 4666 
z
" transform="scale(0.015625)"/>
       <path id="DejaVuSans-74" d="M 1172 4494 
L 1172 3500 
L 2356 3500 
L 2356 3053 
L 1172 3053 
L 1172 1153 
Q 1172 725 1289 603 
Q 1406 481 1766 481 
L 2356 481 
L 2356 0 
L 1766 0 
Q 1100 0 847 248 
Q 594 497 594 1153 
L 594 3053 
L 172 3053 
L 172 3500 
L 594 3500 
L 594 4494 
L 1172 4494 
z
" transform="scale(0.015625)"/>
       <path id="DejaVuSans-65" d="M 3597 1894 
L 3597 1613 
L 953 1613 
Q 991 1019 1311 708 
Q 1631 397 2203 397 
Q 2534 397 2845 478 
Q 3156 559 3463 722 
L 3463 178 
Q 3153 47 2828 -22 
Q 2503 -91 2169 -91 
Q 1331 -91 842 396 
Q 353 884 353 1716 
Q 353 2575 817 3079 
Q 1281 3584 2069 3584 
Q 2775 3584 3186 3129 
Q 3597 2675 3597 1894 
z
M 3022 2063 
Q 3016 2534 2758 2815 
Q 2500 3097 2075 3097 
Q 1594 3097 1305 2825 
Q 1016 2553 972 2059 
L 3022 2063 
z
" transform="scale(0.015625)"/>
       <path id="DejaVuSans-72" d="M 2631 2963 
Q 2534 3019 2420 3045 
Q 2306 3072 2169 3072 
Q 1681 3072 1420 2755 
Q 1159 2438 1159 1844 
L 1159 0 
L 581 0 
L 581 3500 
L 1159 3500 
L 1159 2956 
Q 1341 3275 1631 3429 
Q 1922 3584 2338 3584 
Q 2397 3584 2469 3576 
Q 2541 3569 2628 3553 
L 2631 2963 
z
" transform="scale(0.015625)"/>
       <path id="DejaVuSans-61" d="M 2194 1759 
Q 1497 1759 1228 1600 
Q 959 1441 959 1056 
Q 959 750 1161 570 
Q 1363 391 1709 391 
Q 2188 391 2477 730 
Q 2766 1069 2766 1631 
L 2766 1759 
L 2194 1759 
z
M 3341 1997 
L 3341 0 
L 2766 0 
L 2766 531 
Q 2569 213 2275 61 
Q 1981 -91 1556 -91 
Q 1019 -91 701 211 
Q 384 513 384 1019 
Q 384 1609 779 1909 
Q 1175 2209 1959 2209 
L 2766 2209 
L 2766 2266 
Q 2766 2663 2505 2880 
Q 2244 3097 1772 3097 
Q 1472 3097 1187 3025 
Q 903 2953 641 2809 
L 641 3341 
Q 956 3463 1253 3523 
Q 1550 3584 1831 3584 
Q 2591 3584 2966 3190 
Q 3341 2797 3341 1997 
z
" transform="scale(0.015625)"/>
       <path id="DejaVuSans-69" d="M 603 3500 
L 1178 3500 
L 1178 0 
L 603 0 
L 603 3500 
z
M 603 4863 
L 1178 4863 
L 1178 4134 
L 603 4134 
L 603 4863 
z
" transform="scale(0.015625)"/>
       <path id="DejaVuSans-6f" d="M 1959 3097 
Q 1497 3097 1228 2736 
Q 959 2375 959 1747 
Q 959 1119 1226 758 
Q 1494 397 1959 397 
Q 2419 397 2687 759 
Q 2956 1122 2956 1747 
Q 2956 2369 2687 2733 
Q 2419 3097 1959 3097 
z
M 1959 3584 
Q 2709 3584 3137 3096 
Q 3566 2609 3566 1747 
Q 3566 888 3137 398 
Q 2709 -91 1959 -91 
Q 1206 -91 779 398 
Q 353 888 353 1747 
Q 353 2609 779 3096 
Q 1206 3584 1959 3584 
z
" transform="scale(0.015625)"/>
       <path id="DejaVuSans-6e" d="M 3513 2113 
L 3513 0 
L 2938 0 
L 2938 2094 
Q 2938 2591 2744 2837 
Q 2550 3084 2163 3084 
Q 1697 3084 1428 2787 
Q 1159 2491 1159 1978 
L 1159 0 
L 581 0 
L 581 3500 
L 1159 3500 
L 1159 2956 
Q 1366 3272 1645 3428 
Q 1925 3584 2291 3584 
Q 2894 3584 3203 3211 
Q 3513 2838 3513 2113 
z
" transform="scale(0.015625)"/>
       <path id="DejaVuSans-73" d="M 2834 3397 
L 2834 2853 
Q 2591 2978 2328 3040 
Q 2066 3103 1784 3103 
Q 1356 3103 1142 2972 
Q 928 2841 928 2578 
Q 928 2378 1081 2264 
Q 1234 2150 1697 2047 
L 1894 2003 
Q 2506 1872 2764 1633 
Q 3022 1394 3022 966 
Q 3022 478 2636 193 
Q 2250 -91 1575 -91 
Q 1294 -91 989 -36 
Q 684 19 347 128 
L 347 722 
Q 666 556 975 473 
Q 1284 391 1588 391 
Q 1994 391 2212 530 
Q 2431 669 2431 922 
Q 2431 1156 2273 1281 
Q 2116 1406 1581 1522 
L 1381 1569 
Q 847 1681 609 1914 
Q 372 2147 372 2553 
Q 372 3047 722 3315 
Q 1072 3584 1716 3584 
Q 2034 3584 2315 3537 
Q 2597 3491 2834 3397 
z
" transform="scale(0.015625)"/>
      </defs>
      <use xlink:href="#DejaVuSans-49"/>
      <use xlink:href="#DejaVuSans-74" x="29.492188"/>
      <use xlink:href="#DejaVuSans-65" x="68.701172"/>
      <use xlink:href="#DejaVuSans-72" x="130.224609"/>
      <use xlink:href="#DejaVuSans-61" x="171.337891"/>
      <use xlink:href="#DejaVuSans-74" x="232.617188"/>
      <use xlink:href="#DejaVuSans-69" x="271.826172"/>
      <use xlink:href="#DejaVuSans-6f" x="299.609375"/>
      <use xlink:href="#DejaVuSans-6e" x="360.791016"/>
      <use xlink:href="#DejaVuSans-73" x="424.169922"/>
     </g>
    </g>
   </g>
   <g id="matplotlib.axis_2">
    <g id="ytick_1">
     <g id="line2d_15">
      <defs>
       <path id="m4134aa689d" d="M 0 0 
L -2 0 
" style="stroke: #000000; stroke-width: 0.6"/>
      </defs>
      <g>
       <use xlink:href="#m4134aa689d" x="72.791112" y="355.160423" style="stroke: #000000; stroke-width: 0.6"/>
      </g>
     </g>
     <g id="text_9">
      <!-- $\mathdefault{4\times10^{-1}}$ -->
      <g transform="translate(25.291112 358.959642) scale(0.1 -0.1)">
       <defs>
        <path id="DejaVuSans-34" d="M 2419 4116 
L 825 1625 
L 2419 1625 
L 2419 4116 
z
M 2253 4666 
L 3047 4666 
L 3047 1625 
L 3713 1625 
L 3713 1100 
L 3047 1100 
L 3047 0 
L 2419 0 
L 2419 1100 
L 313 1100 
L 313 1709 
L 2253 4666 
z
" transform="scale(0.015625)"/>
        <path id="DejaVuSans-d7" d="M 4488 3438 
L 3059 2003 
L 4488 575 
L 4116 197 
L 2681 1631 
L 1247 197 
L 878 575 
L 2303 2003 
L 878 3438 
L 1247 3816 
L 2681 2381 
L 4116 3816 
L 4488 3438 
z
" transform="scale(0.015625)"/>
        <path id="DejaVuSans-2212" d="M 678 2272 
L 4684 2272 
L 4684 1741 
L 678 1741 
L 678 2272 
z
" transform="scale(0.015625)"/>
       </defs>
       <use xlink:href="#DejaVuSans-34" transform="translate(0 0.684375)"/>
       <use xlink:href="#DejaVuSans-d7" transform="translate(83.105469 0.684375)"/>
       <use xlink:href="#DejaVuSans-31" transform="translate(186.376953 0.684375)"/>
       <use xlink:href="#DejaVuSans-30" transform="translate(250 0.684375)"/>
       <use xlink:href="#DejaVuSans-2212" transform="translate(314.580078 38.965625) scale(0.7)"/>
       <use xlink:href="#DejaVuSans-31" transform="translate(373.232422 38.965625) scale(0.7)"/>
      </g>
     </g>
    </g>
    <g id="ytick_2">
     <g id="line2d_16">
      <g>
       <use xlink:href="#m4134aa689d" x="72.791112" y="276.631587" style="stroke: #000000; stroke-width: 0.6"/>
      </g>
     </g>
    </g>
    <g id="ytick_3">
     <g id="line2d_17">
      <g>
       <use xlink:href="#m4134aa689d" x="72.791112" y="212.468857" style="stroke: #000000; stroke-width: 0.6"/>
      </g>
     </g>
     <g id="text_10">
      <!-- $\mathdefault{6\times10^{-1}}$ -->
      <g transform="translate(25.291112 216.268075) scale(0.1 -0.1)">
       <defs>
        <path id="DejaVuSans-36" d="M 2113 2584 
Q 1688 2584 1439 2293 
Q 1191 2003 1191 1497 
Q 1191 994 1439 701 
Q 1688 409 2113 409 
Q 2538 409 2786 701 
Q 3034 994 3034 1497 
Q 3034 2003 2786 2293 
Q 2538 2584 2113 2584 
z
M 3366 4563 
L 3366 3988 
Q 3128 4100 2886 4159 
Q 2644 4219 2406 4219 
Q 1781 4219 1451 3797 
Q 1122 3375 1075 2522 
Q 1259 2794 1537 2939 
Q 1816 3084 2150 3084 
Q 2853 3084 3261 2657 
Q 3669 2231 3669 1497 
Q 3669 778 3244 343 
Q 2819 -91 2113 -91 
Q 1303 -91 875 529 
Q 447 1150 447 2328 
Q 447 3434 972 4092 
Q 1497 4750 2381 4750 
Q 2619 4750 2861 4703 
Q 3103 4656 3366 4563 
z
" transform="scale(0.015625)"/>
       </defs>
       <use xlink:href="#DejaVuSans-36" transform="translate(0 0.684375)"/>
       <use xlink:href="#DejaVuSans-d7" transform="translate(83.105469 0.684375)"/>
       <use xlink:href="#DejaVuSans-31" transform="translate(186.376953 0.684375)"/>
       <use xlink:href="#DejaVuSans-30" transform="translate(250 0.684375)"/>
       <use xlink:href="#DejaVuSans-2212" transform="translate(314.580078 38.965625) scale(0.7)"/>
       <use xlink:href="#DejaVuSans-31" transform="translate(373.232422 38.965625) scale(0.7)"/>
      </g>
     </g>
    </g>
    <g id="ytick_4">
     <g id="line2d_18">
      <g>
       <use xlink:href="#m4134aa689d" x="72.791112" y="158.220041" style="stroke: #000000; stroke-width: 0.6"/>
      </g>
     </g>
    </g>
    <g id="ytick_5">
     <g id="line2d_19">
      <g>
       <use xlink:href="#m4134aa689d" x="72.791112" y="111.227579" style="stroke: #000000; stroke-width: 0.6"/>
      </g>
     </g>
    </g>
    <g id="ytick_6">
     <g id="line2d_20">
      <g>
       <use xlink:href="#m4134aa689d" x="72.791112" y="69.77729" style="stroke: #000000; stroke-width: 0.6"/>
      </g>
     </g>
    </g>
    <g id="text_11">
     <!-- Loss, log scale -->
     <g transform="translate(19.211424 283.200625) rotate(-90) scale(0.1 -0.1)">
      <defs>
       <path id="DejaVuSans-4c" d="M 628 4666 
L 1259 4666 
L 1259 531 
L 3531 531 
L 3531 0 
L 628 0 
L 628 4666 
z
" transform="scale(0.015625)"/>
       <path id="DejaVuSans-2c" d="M 750 794 
L 1409 794 
L 1409 256 
L 897 -744 
L 494 -744 
L 750 256 
L 750 794 
z
" transform="scale(0.015625)"/>
       <path id="DejaVuSans-20" transform="scale(0.015625)"/>
       <path id="DejaVuSans-6c" d="M 603 4863 
L 1178 4863 
L 1178 0 
L 603 0 
L 603 4863 
z
" transform="scale(0.015625)"/>
       <path id="DejaVuSans-67" d="M 2906 1791 
Q 2906 2416 2648 2759 
Q 2391 3103 1925 3103 
Q 1463 3103 1205 2759 
Q 947 2416 947 1791 
Q 947 1169 1205 825 
Q 1463 481 1925 481 
Q 2391 481 2648 825 
Q 2906 1169 2906 1791 
z
M 3481 434 
Q 3481 -459 3084 -895 
Q 2688 -1331 1869 -1331 
Q 1566 -1331 1297 -1286 
Q 1028 -1241 775 -1147 
L 775 -588 
Q 1028 -725 1275 -790 
Q 1522 -856 1778 -856 
Q 2344 -856 2625 -561 
Q 2906 -266 2906 331 
L 2906 616 
Q 2728 306 2450 153 
Q 2172 0 1784 0 
Q 1141 0 747 490 
Q 353 981 353 1791 
Q 353 2603 747 3093 
Q 1141 3584 1784 3584 
Q 2172 3584 2450 3431 
Q 2728 3278 2906 2969 
L 2906 3500 
L 3481 3500 
L 3481 434 
z
" transform="scale(0.015625)"/>
       <path id="DejaVuSans-63" d="M 3122 3366 
L 3122 2828 
Q 2878 2963 2633 3030 
Q 2388 3097 2138 3097 
Q 1578 3097 1268 2742 
Q 959 2388 959 1747 
Q 959 1106 1268 751 
Q 1578 397 2138 397 
Q 2388 397 2633 464 
Q 2878 531 3122 666 
L 3122 134 
Q 2881 22 2623 -34 
Q 2366 -91 2075 -91 
Q 1284 -91 818 406 
Q 353 903 353 1747 
Q 353 2603 823 3093 
Q 1294 3584 2113 3584 
Q 2378 3584 2631 3529 
Q 2884 3475 3122 3366 
z
" transform="scale(0.015625)"/>
      </defs>
      <use xlink:href="#DejaVuSans-4c"/>
      <use xlink:href="#DejaVuSans-6f" x="53.962891"/>
      <use xlink:href="#DejaVuSans-73" x="115.144531"/>
      <use xlink:href="#DejaVuSans-73" x="167.244141"/>
      <use xlink:href="#DejaVuSans-2c" x="219.34375"/>
      <use xlink:href="#DejaVuSans-20" x="251.130859"/>
      <use xlink:href="#DejaVuSans-6c" x="282.917969"/>
      <use xlink:href="#DejaVuSans-6f" x="310.701172"/>
      <use xlink:href="#DejaVuSans-67" x="371.882812"/>
      <use xlink:href="#DejaVuSans-20" x="435.359375"/>
      <use xlink:href="#DejaVuSans-73" x="467.146484"/>
      <use xlink:href="#DejaVuSans-63" x="519.246094"/>
      <use xlink:href="#DejaVuSans-61" x="574.226562"/>
      <use xlink:href="#DejaVuSans-6c" x="635.505859"/>
      <use xlink:href="#DejaVuSans-65" x="663.289062"/>
     </g>
    </g>
   </g>
   <g id="line2d_21">
    <path d="M 108.264243 68.269091 
L 108.2878 287.118823 
L 108.311357 354.11644 
L 108.334913 371.406606 
L 108.35847 389.002182 
L 108.382027 395.595503 
L 108.405584 400.57576 
L 108.429141 403.814369 
L 108.452698 406.321766 
L 108.476255 408.254451 
L 108.499812 409.852484 
L 108.523369 411.250764 
L 108.546925 412.49427 
L 108.570482 413.529863 
L 108.594039 414.496596 
L 108.617596 415.355435 
L 108.641153 416.165513 
L 108.66471 416.887987 
L 108.688267 417.578978 
L 108.711824 418.192786 
L 108.73538 418.780365 
L 108.758937 419.306625 
L 108.782494 419.825481 
L 108.806051 420.312381 
L 108.829608 420.770794 
L 108.853165 421.178812 
L 108.876722 421.564409 
L 108.900279 421.922408 
L 108.923836 422.268111 
L 108.947392 422.613551 
L 108.970949 422.923885 
L 108.994506 423.204906 
L 109.018063 423.485387 
L 109.04162 423.765358 
L 109.065177 424.018895 
L 109.088734 424.258829 
L 109.112291 424.47332 
L 109.135847 424.698133 
L 109.159404 424.900424 
L 109.182961 425.102449 
L 109.206518 425.294444 
L 109.230075 425.482541 
L 109.253632 425.650909 
" clip-path="url(#p831708fe8c)" style="fill: none; stroke: #ffa500; stroke-width: 1.5; stroke-linecap: square"/>
   </g>
   <g id="line2d_22">
    <path d="M 108.264243 68.269091 
L 108.758937 132.323043 
L 109.371416 209.909716 
L 109.936781 285.421391 
L 110.243021 307.482025 
L 110.8555 331.478615 
L 111.279524 341.956566 
L 111.585763 348.019313 
L 112.410254 359.652073 
L 112.834278 364.283188 
L 113.635212 371.235221 
L 113.917895 373.449704 
L 114.200577 375.355777 
L 114.247691 375.066878 
L 114.436146 376.973302 
L 114.86017 379.075169 
L 114.883727 379.055301 
L 115.425535 381.807183 
L 116.014457 384.39024 
L 116.179355 385.189549 
L 116.202912 385.067865 
L 116.226469 385.306989 
L 116.509152 386.577003 
L 116.532709 386.497199 
L 116.556265 386.725968 
L 117.286529 389.335549 
L 117.333643 389.147585 
L 117.404313 388.999931 
L 117.42787 389.143456 
L 117.616325 390.70319 
L 117.663439 390.795646 
L 117.80478 391.001911 
L 117.875451 390.252658 
L 117.922565 390.466199 
L 118.063906 391.597323 
L 118.11102 390.964956 
L 118.18169 391.195748 
L 118.370145 392.805563 
L 118.393702 392.779477 
L 118.440816 392.913226 
L 118.535044 393.364491 
L 118.582157 393.21938 
L 118.747055 393.697922 
L 118.676385 393.197441 
L 118.770612 393.608444 
L 118.794169 393.610228 
L 118.86484 393.928084 
L 118.911954 393.919214 
L 118.959067 393.47288 
L 119.029738 393.810248 
L 119.171079 394.593019 
L 119.24175 394.328951 
L 119.383091 395.008005 
L 119.430205 395.081803 
L 119.453762 394.980727 
L 119.477319 394.894562 
L 119.524433 394.917811 
L 119.642217 395.521185 
L 119.689331 395.413603 
L 119.760001 395.289509 
L 119.807115 395.411575 
L 119.948456 395.903 
L 119.99557 395.871267 
L 120.231139 396.330204 
L 120.419594 395.337325 
L 120.584492 397.105757 
L 120.843618 397.602335 
L 120.867175 397.657538 
L 120.890732 397.402721 
L 120.961402 397.706032 
L 121.267642 398.374563 
L 121.291199 398.280213 
L 121.385426 397.938861 
L 121.408983 398.108118 
L 121.597438 398.918896 
L 121.620995 398.911711 
L 121.73878 398.540916 
L 121.880121 398.947639 
L 122.092133 399.483433 
L 122.162803 399.571235 
L 122.18636 399.642307 
L 122.233474 399.466571 
L 122.280588 399.649805 
L 122.351258 399.541757 
L 122.374815 399.449948 
L 122.398372 399.614876 
L 122.516157 399.814678 
L 122.539714 399.678637 
L 122.56327 400.077116 
L 122.681055 400.393416 
L 122.916624 400.888537 
L 122.963737 400.872444 
L 123.010851 400.947005 
L 123.034408 401.069914 
L 123.105079 401.005572 
L 123.128636 400.959279 
L 123.24642 401.325488 
L 123.364204 400.713133 
L 123.387761 400.353971 
L 123.434875 400.955785 
L 123.788228 402.043113 
L 123.858899 401.955262 
L 123.882456 401.800579 
L 123.92957 402.179951 
L 124.00024 402.295318 
L 124.023797 402.214326 
L 124.259366 401.024091 
L 124.282923 401.175654 
L 124.330037 400.993087 
L 124.353593 400.5181 
L 124.424264 401.182258 
L 124.636276 402.109473 
L 124.659833 401.723383 
L 124.824731 400.372396 
L 124.848288 400.995417 
L 124.871845 401.644857 
L 124.918959 400.460867 
L 124.942516 400.732234 
L 125.013186 402.184596 
L 125.083857 401.037592 
L 125.178084 400.33656 
L 125.201641 400.926101 
L 125.272312 400.479089 
L 125.319426 399.568171 
L 125.366539 400.95477 
L 125.554994 403.743773 
L 125.578551 403.777399 
L 125.602108 403.665337 
L 125.625665 403.56667 
L 125.672779 403.783961 
L 125.790563 403.928947 
L 125.81412 403.885671 
L 126.002575 403.225324 
L 126.073246 403.303091 
L 126.238144 404.414324 
L 126.285258 404.518418 
L 126.308815 404.463306 
L 126.379485 404.270615 
L 126.426599 404.352895 
L 126.450156 404.407417 
L 126.473713 404.31222 
L 126.49727 404.115484 
L 126.56794 404.180066 
L 126.591497 404.330823 
L 126.638611 404.104666 
L 126.662168 404.048865 
L 126.827066 404.765279 
L 126.968407 404.366495 
L 126.991964 404.622543 
L 127.156862 405.16923 
L 127.227533 405.116433 
L 127.274647 404.913992 
L 127.298204 405.057752 
L 127.439545 405.357212 
L 127.93424 405.696789 
L 128.146252 406.032725 
L 128.334707 406.143057 
L 128.358263 406.029937 
L 128.405377 406.19031 
L 128.428934 406.190522 
L 128.570275 406.092053 
L 128.593832 406.107933 
L 128.68806 406.342052 
L 128.711617 406.29387 
L 128.735174 406.225049 
L 128.782287 406.394094 
L 128.947186 406.673081 
L 129.017856 406.504236 
L 129.06497 406.256608 
L 129.088527 406.359156 
L 129.206311 406.857434 
L 129.229868 406.82658 
L 129.276982 406.920486 
L 129.300539 406.946761 
L 129.324096 406.845378 
L 129.347653 406.881639 
L 129.418323 406.773109 
L 129.559664 407.118675 
L 129.606778 406.983367 
L 129.653892 407.032951 
L 129.74812 407.280062 
L 129.771676 407.161348 
L 129.795233 407.156576 
L 129.842347 407.141926 
L 129.960131 407.493939 
L 129.983688 407.42175 
L 130.030802 407.441097 
L 130.077916 407.662256 
L 130.148587 407.645758 
L 130.1957 407.444199 
L 130.242814 407.703381 
L 130.266371 407.650963 
L 130.289928 407.688921 
L 130.431269 407.916145 
L 130.50194 407.750661 
L 130.525497 407.89199 
L 130.619724 408.049771 
L 130.643281 407.984079 
L 130.666838 407.928512 
L 130.713952 408.094293 
L 130.831736 408.10365 
L 130.855293 408.175674 
L 130.902407 408.049984 
L 130.925964 408.101029 
L 131.090862 407.496921 
L 131.114419 407.527894 
L 131.373544 408.377926 
L 131.444215 408.306532 
L 131.467772 408.179545 
L 131.514886 408.401382 
L 131.538443 408.390737 
L 131.585556 408.317296 
L 131.656227 408.534979 
L 131.679784 408.413339 
L 131.726898 408.617011 
L 131.750455 408.557041 
L 131.797568 408.598485 
L 131.821125 408.293511 
L 131.891796 408.568485 
L 132.103808 408.776216 
L 132.127365 408.721837 
L 132.150922 408.853478 
L 132.198035 408.783453 
L 132.433604 409.089249 
L 132.622059 408.832191 
L 132.669173 408.28915 
L 132.716287 408.593052 
L 132.7634 408.876202 
L 132.810514 408.673236 
L 132.857628 408.289425 
L 132.904742 408.702878 
L 132.951856 408.486281 
L 132.975412 408.509958 
L 132.998969 408.436737 
L 133.06964 408.617133 
L 133.116754 407.953583 
L 133.140311 407.967261 
L 133.210981 408.120565 
L 133.281652 407.278694 
L 133.422993 409.356588 
L 133.705676 409.578219 
L 133.729233 409.511415 
L 133.870574 409.352122 
L 134.011915 409.712141 
L 134.153257 409.658076 
L 134.20037 409.527419 
L 134.223927 409.713611 
L 134.247484 409.55444 
L 134.294598 409.792825 
L 134.341712 409.661321 
L 134.365268 409.551441 
L 134.412382 409.732287 
L 134.50661 409.952409 
L 134.57728 409.873006 
L 134.600837 409.831229 
L 134.647951 409.891936 
L 134.671508 409.937275 
L 134.695065 409.842622 
L 134.88352 409.483265 
L 134.907077 409.583728 
L 134.930634 409.082739 
L 134.977747 409.771144 
L 135.001304 409.709814 
L 135.024861 409.702099 
L 135.048418 409.425687 
L 135.095532 409.747535 
L 135.119089 410.130887 
L 135.213316 410.081079 
L 135.354658 409.525797 
L 135.472442 408.175918 
L 135.495999 408.524268 
L 135.543113 408.209847 
L 135.613783 409.212223 
L 135.63734 408.792522 
L 135.731568 408.001506 
L 135.755125 408.298146 
L 135.778681 408.29903 
L 135.94358 409.592267 
L 135.990693 409.199505 
L 136.037807 409.568793 
L 136.155592 410.694555 
L 136.179148 410.633372 
L 136.344047 411.024297 
L 136.532502 411.125293 
L 136.673843 411.142169 
L 136.838741 410.415339 
L 136.862298 410.4655 
L 136.980082 411.075222 
L 137.003639 410.904651 
L 137.027196 410.75661 
L 137.050753 410.947877 
L 137.168537 411.392953 
L 137.192094 411.362283 
L 137.262765 411.137528 
L 137.309879 411.300922 
L 137.404106 411.282592 
L 137.569004 411.636742 
L 137.733903 411.519658 
L 137.875244 411.794579 
L 137.922358 411.672454 
L 138.016585 411.295632 
L 138.040142 411.350256 
L 138.063699 411.586814 
L 138.157927 411.567669 
L 138.440609 412.040403 
L 138.487723 412.005456 
L 138.58195 411.931996 
L 138.605507 412.003514 
L 138.676178 411.990695 
L 138.699735 412.076649 
L 138.982417 412.257225 
L 139.053088 412.007305 
L 139.076645 412.289392 
L 139.64201 412.433729 
L 139.689124 411.929747 
L 139.759795 412.198729 
L 139.924693 412.561673 
L 139.94825 412.523341 
L 140.01892 412.419351 
L 140.066034 412.504793 
L 140.089591 412.604949 
L 140.136705 412.5676 
L 140.183818 412.142185 
L 140.254489 412.453137 
L 140.278046 412.478439 
L 140.301603 412.386926 
L 140.32516 412.396397 
L 140.348717 412.08867 
L 140.419387 412.314868 
L 140.560729 412.79602 
L 141.031866 412.939329 
L 141.243878 412.404172 
L 141.385219 412.934942 
L 141.503004 413.109343 
L 141.526561 413.009105 
L 141.550118 412.748119 
L 141.620788 413.066963 
L 141.856357 412.612543 
L 141.879914 412.83639 
L 142.186153 413.422667 
L 142.233267 413.3568 
L 142.256824 413.378362 
L 142.327495 412.634276 
L 142.421722 412.746019 
L 142.445279 413.023198 
L 142.51595 412.642365 
L 142.539507 412.269808 
L 142.58662 412.649064 
L 142.610177 413.004747 
L 142.704405 412.971898 
L 142.727962 412.90043 
L 142.751519 412.972732 
L 142.845746 413.557193 
L 142.869303 413.54831 
L 142.916417 413.208899 
L 142.987087 413.381147 
L 143.010644 413.282006 
L 143.057758 413.409765 
L 143.081315 413.485854 
L 143.104872 413.262986 
L 143.151986 413.395564 
L 143.175542 413.161838 
L 143.246213 413.44643 
L 143.316884 413.360698 
L 143.340441 413.642324 
L 143.599566 411.434178 
L 143.764465 412.883191 
L 144.164932 413.82163 
L 144.565399 414.25426 
L 145.08365 414.575621 
L 151.444008 416.354595 
L 156.41451 417.465033 
L 167.556916 419.39555 
L 174.953777 420.370348 
L 182.845332 421.231354 
L 185.201021 421.457429 
L 185.201021 421.457429 
" clip-path="url(#p831708fe8c)" style="fill: none; stroke: #c83cbc; stroke-width: 1.5; stroke-linecap: square"/>
   </g>
   <g id="line2d_23">
    <path d="M 108.264243 68.269091 
L 108.2878 343.169004 
L 108.311357 351.52727 
L 108.334913 361.252255 
L 108.35847 385.34904 
L 108.382027 392.257922 
L 108.405584 397.668603 
L 108.429141 401.673135 
L 108.452698 402.39237 
L 108.476255 403.367012 
L 108.499812 404.972377 
L 108.523369 406.713575 
L 108.546925 408.955075 
L 108.570482 410.924067 
L 108.594039 411.388339 
L 108.617596 411.484577 
L 108.641153 412.686114 
L 108.66471 412.987318 
L 108.688267 413.200086 
L 108.711824 413.542522 
L 108.73538 414.440147 
L 108.758937 415.280994 
L 108.782494 415.894012 
L 108.806051 416.71214 
L 108.829608 417.193623 
L 108.853165 417.826653 
L 108.876722 418.171208 
L 108.900279 418.695239 
L 108.923836 418.924404 
L 108.947392 419.057529 
L 108.970949 419.250626 
L 108.994506 419.327485 
L 109.018063 419.610465 
L 109.04162 419.853588 
L 109.065177 419.961532 
L 109.088734 420.249376 
L 109.112291 420.638504 
L 109.135847 420.738348 
L 109.159404 420.911383 
" clip-path="url(#p831708fe8c)" style="fill: none; stroke: #1c1c84; stroke-width: 1.5; stroke-linecap: square"/>
   </g>
   <g id="line2d_24">
    <path d="M 108.264243 68.269091 
L 108.35847 68.269091 
L 108.476255 72.038103 
L 108.546925 72.038103 
L 108.66471 74.819997 
L 108.73538 74.819997 
L 108.853165 78.397048 
L 108.994506 78.397048 
L 109.206518 91.865242 
L 109.277189 91.865242 
L 109.394973 94.931261 
L 109.536314 94.931261 
L 109.748326 107.039282 
L 110.031009 107.039282 
L 110.148793 109.378702 
L 110.17235 109.378702 
L 110.290135 112.409673 
L 110.360805 112.409673 
L 110.47859 114.935028 
L 110.502147 114.935028 
L 110.619931 118.263503 
L 111.043955 118.263503 
L 111.161739 120.516195 
L 111.420865 120.516195 
L 111.538649 123.283448 
L 111.750661 123.283448 
L 111.892003 129.013536 
L 112.009787 129.013536 
L 112.127572 131.51286 
L 112.174685 131.51286 
L 112.316027 137.470639 
L 112.386697 137.470639 
L 112.504482 140.650219 
L 112.645823 140.650219 
L 112.763607 143.381023 
L 112.904949 143.381023 
L 113.04629 149.726698 
L 113.80011 149.726698 
L 113.917895 154.355994 
L 114.412589 154.355994 
L 114.530374 158.052727 
L 114.695272 158.052727 
L 114.813056 162.117878 
L 115.189966 162.117878 
L 115.307751 166.016257 
L 115.378421 166.016257 
L 115.496206 171.021514 
L 115.731775 171.021514 
L 115.896673 182.491054 
L 116.085128 182.491054 
L 116.202912 185.702176 
L 116.603379 185.702176 
L 116.791834 200.093686 
L 117.027403 200.093686 
L 117.145187 204.331507 
L 117.192301 204.331507 
L 117.310086 207.675522 
L 117.357199 207.675522 
L 117.498541 215.568352 
L 117.639882 215.568352 
L 117.781223 223.301873 
L 117.80478 223.301873 
L 117.922565 227.099681 
L 118.134577 227.099681 
L 118.252361 230.029498 
L 118.511487 230.029498 
L 118.629271 233.449231 
L 118.747055 233.449231 
L 118.86484 236.715165 
L 119.147522 236.715165 
L 119.265307 239.629566 
L 119.383091 239.629566 
L 119.500876 242.591419 
L 119.712888 242.591419 
L 119.854229 248.443023 
L 120.348923 248.443023 
L 120.466708 250.743699 
L 120.655163 250.743699 
L 120.772947 253.100164 
L 121.149857 253.100164 
L 121.314756 258.499706 
L 121.408983 258.499706 
L 121.550324 264.140774 
L 121.715223 264.140774 
L 121.833007 265.853299 
L 122.162803 265.853299 
L 122.351258 272.894096 
L 122.516157 272.894096 
L 122.657498 277.390356 
L 123.175749 277.390356 
L 123.293534 278.872094 
L 123.694001 278.872094 
L 123.953126 288.641055 
L 124.118025 288.641055 
L 124.259366 291.932421 
L 124.848288 291.932421 
L 124.966072 293.084377 
L 125.130971 293.084377 
L 125.272312 296.216008 
L 125.507881 296.216008 
L 125.649222 298.816565 
L 125.719893 298.816565 
L 125.837677 299.849743 
L 125.955461 299.849743 
L 126.073246 301.16215 
L 126.308815 301.16215 
L 126.450156 303.963225 
L 126.49727 303.963225 
L 126.638611 306.40308 
L 126.732839 306.40308 
L 126.897737 310.150822 
L 127.580886 310.150822 
L 127.698671 310.973871 
L 127.769341 310.973871 
L 127.887126 312.442187 
L 128.334707 312.442187 
L 128.476048 314.144314 
L 128.499605 314.144314 
L 128.617389 315.172345 
L 129.300539 315.172345 
L 129.418323 315.780621 
L 129.44188 315.780621 
L 129.559664 316.775996 
L 129.724563 316.775996 
L 129.865904 318.856461 
L 130.12503 318.856461 
L 130.242814 319.581279 
L 130.337042 319.581279 
L 130.454826 320.624104 
L 130.643281 320.624104 
L 130.808179 322.217676 
L 131.020191 322.217676 
L 131.137976 323.014544 
L 131.232203 323.014544 
L 131.349988 323.926259 
L 131.467772 323.926259 
L 131.585556 324.672449 
L 131.986023 324.672449 
L 132.174478 326.988854 
L 132.362933 326.988854 
L 132.480718 327.763233 
L 132.598502 327.763233 
L 132.716287 328.48978 
L 133.163867 328.48978 
L 133.281652 329.106002 
L 133.422993 329.106002 
L 133.540778 329.746575 
L 133.587891 329.746575 
L 133.705676 330.455649 
L 133.847017 330.455649 
L 133.988358 331.745868 
L 134.082586 331.745868 
L 134.20037 332.262752 
L 134.341712 332.262752 
L 134.459496 332.930959 
L 134.530167 332.930959 
L 134.695065 334.927286 
L 134.765735 334.927286 
L 134.88352 335.544602 
L 135.189759 335.544602 
L 135.307544 336.087317 
L 135.354658 336.087317 
L 135.495999 337.217694 
L 135.849352 337.217694 
L 136.061364 339.180523 
L 136.6974 339.180523 
L 136.815184 339.545404 
L 136.932969 339.545404 
L 137.050753 340.046225 
L 137.333436 340.046225 
L 137.45122 340.51086 
L 138.157927 340.51086 
L 138.275711 340.910285 
L 138.299268 340.910285 
L 138.464166 341.906263 
L 138.723292 341.906263 
L 138.841076 342.304797 
L 138.88819 342.304797 
L 139.029531 343.185452 
L 139.429998 343.185452 
L 139.547783 343.609618 
L 139.64201 343.609618 
L 139.759795 344.072329 
L 140.843411 344.072329 
L 141.008309 344.824007 
L 141.126094 344.824007 
L 141.243878 345.298541 
L 141.503004 345.298541 
L 141.667902 346.577502 
L 141.997698 346.577502 
L 142.115483 346.990306 
L 142.327495 346.990306 
L 142.468836 347.770149 
L 142.633734 347.770149 
L 142.775075 348.502527 
L 142.798632 348.502527 
L 142.939974 349.252495 
L 142.987087 349.252495 
L 143.104872 349.615871 
L 143.505339 349.615871 
L 143.623123 349.953657 
L 143.693794 349.953657 
L 143.811578 350.298543 
L 143.929363 350.298543 
L 144.047147 350.705433 
L 144.117818 350.705433 
L 144.235602 351.122099 
L 144.306273 351.122099 
L 144.424057 351.433781 
L 144.541842 351.433781 
L 144.683183 352.003686 
L 145.130764 352.003686 
L 145.319219 353.125442 
L 146.120153 353.125442 
L 146.285051 353.80906 
L 146.638404 353.80906 
L 146.756189 354.036845 
L 147.227326 354.036845 
L 147.345111 354.312563 
L 147.533566 354.312563 
L 147.65135 354.657744 
L 147.863362 354.657744 
L 148.004703 355.319033 
L 148.475841 355.319033 
L 148.593625 355.547903 
L 149.323889 355.547903 
L 149.46523 356.109817 
L 149.653685 356.109817 
L 149.77147 356.38164 
L 149.889254 356.38164 
L 150.077709 357.454273 
L 150.195493 357.454273 
L 150.336835 358.009938 
L 150.572404 358.009938 
L 150.690188 358.350855 
L 150.831529 358.350855 
L 150.996427 359.14711 
L 151.561793 359.14711 
L 151.679577 359.402447 
L 151.891589 359.402447 
L 152.03293 359.90472 
L 152.056487 359.90472 
L 152.174272 360.135343 
L 152.268499 360.135343 
L 152.386283 360.420753 
L 152.456954 360.420753 
L 152.574739 360.656428 
L 152.598295 360.656428 
L 152.739637 361.239744 
L 152.763194 361.239744 
L 152.880978 361.444282 
L 153.328559 361.444282 
L 153.4699 361.95186 
L 153.493457 361.95186 
L 153.611241 362.231979 
L 153.870367 362.231979 
L 153.988151 362.511973 
L 154.082379 362.511973 
L 154.22372 362.945813 
L 154.435732 362.945813 
L 154.553517 363.2003 
L 154.60063 363.2003 
L 154.718415 363.42257 
L 155.613576 363.42257 
L 155.731361 363.581248 
L 155.943373 363.581248 
L 156.061157 363.828026 
L 156.249612 363.828026 
L 156.390953 364.32358 
L 156.602965 364.32358 
L 156.72075 364.586203 
L 156.79142 364.586203 
L 156.909205 364.819133 
L 157.144774 364.819133 
L 157.286115 365.227335 
L 157.969265 365.227335 
L 158.087049 365.495602 
L 158.15772 365.495602 
L 158.322618 366.243935 
L 158.53463 366.243935 
L 158.675971 366.712965 
L 159.28845 366.712965 
L 159.429791 367.155083 
L 159.853815 367.155083 
L 159.9716 367.358014 
L 160.112941 367.358014 
L 160.254282 367.759987 
L 160.584079 367.759987 
L 160.701863 367.892631 
L 160.72542 367.892631 
L 160.843204 368.118946 
L 161.10233 368.118946 
L 161.220114 368.334574 
L 161.47924 368.334574 
L 161.691252 369.107717 
L 161.714809 369.107717 
L 161.85615 369.489355 
L 161.879707 369.489355 
L 161.997491 369.630083 
L 162.892653 369.630083 
L 163.057551 369.92691 
L 163.316677 369.92691 
L 163.458018 370.358276 
L 163.575803 370.358276 
L 163.717144 370.725624 
L 164.282509 370.725624 
L 164.42385 371.075634 
L 164.447407 371.075634 
L 164.565192 371.306258 
L 164.588749 371.306258 
L 164.706533 371.441013 
L 165.955048 371.441013 
L 166.072832 371.586398 
L 166.119946 371.586398 
L 166.261287 372.245157 
L 166.685311 372.245157 
L 166.803095 372.424331 
L 166.826652 372.424331 
L 166.944437 372.589739 
L 167.368461 372.589739 
L 167.486245 372.7418 
L 167.745371 372.7418 
L 167.910269 373.268488 
L 167.98094 373.268488 
L 168.145838 373.591666 
L 168.263622 373.723734 
L 168.334293 373.723734 
L 168.475634 374.096994 
L 168.758317 374.096994 
L 168.876101 374.273958 
L 169.229454 374.273958 
L 169.347239 374.45921 
L 170.92555 374.556693 
L 171.043334 374.690483 
L 171.184676 374.690483 
L 171.326017 375.00046 
L 171.538029 375.00046 
L 171.655813 375.137971 
L 172.126951 375.137971 
L 172.244735 375.299106 
L 172.692316 375.299106 
L 172.8101 375.452065 
L 172.833657 375.452065 
L 172.998556 375.995207 
L 173.446136 375.995207 
L 173.587478 376.333569 
L 173.681705 376.333569 
L 173.823046 376.615568 
L 173.987945 376.615568 
L 174.152843 377.085883 
L 174.364855 377.085883 
L 174.529753 377.538385 
L 174.576867 377.538385 
L 174.718208 377.849568 
L 175.330687 377.849568 
L 175.448471 377.985846 
L 175.731154 377.985846 
L 175.872495 378.251982 
L 175.943166 378.251982 
L 176.131621 378.716359 
L 176.390747 378.716359 
L 176.532088 379.028025 
L 178.039728 379.12653 
L 178.157513 379.260046 
L 179.335357 379.332497 
L 179.476698 379.584448 
L 180.418973 379.674281 
L 180.536758 379.766809 
L 180.937225 379.766809 
L 181.055009 379.885604 
L 181.172794 379.885604 
L 181.290578 380.003145 
L 181.361249 380.003145 
L 181.479033 380.133926 
L 181.526147 380.133926 
L 181.667488 380.413494 
L 181.691045 380.413494 
L 181.832386 380.643781 
L 181.997285 380.643781 
L 182.138626 380.910017 
L 182.18574 380.910017 
L 182.303524 381.031371 
L 183.198686 381.031371 
L 183.340027 381.278922 
L 184.659212 381.351733 
L 184.800554 381.586931 
L 185.837056 381.685419 
L 186.072625 382.159392 
L 186.449535 382.159392 
L 186.590877 382.41043 
L 187.274026 382.505465 
L 187.391811 382.598287 
L 188.027846 382.598287 
L 188.169188 382.829412 
L 188.710996 382.919936 
L 188.82878 383.040056 
L 189.111463 383.040056 
L 189.229247 383.163652 
L 190.477762 383.265338 
L 190.619104 383.331317 
L 190.784002 383.413674 
L 190.925343 383.62046 
L 191.420038 383.689975 
L 191.537822 383.77873 
L 192.244528 383.864292 
L 192.38587 384.043762 
L 192.574325 384.043762 
L 192.692109 384.155952 
L 193.917067 384.239926 
L 194.034851 384.3695 
L 194.388205 384.468143 
L 194.529546 384.522663 
L 194.930013 384.611228 
L 195.047797 384.695282 
L 195.212696 384.79821 
L 195.33048 384.891468 
L 195.354037 384.891468 
L 195.471821 385.010664 
L 195.730947 385.010664 
L 195.848731 385.140807 
L 196.437653 385.23267 
L 196.555438 385.330956 
L 196.955905 385.406953 
L 197.097246 385.548391 
L 197.686168 385.63976 
L 197.803953 385.742364 
L 198.439988 385.834899 
L 198.557773 385.93859 
L 198.864012 386.015234 
L 199.028911 386.166566 
L 199.429378 386.257752 
L 199.547162 386.328249 
L 200.230312 386.394175 
L 200.348096 386.471634 
L 201.879293 386.541915 
L 202.044191 386.75726 
L 202.303317 386.825848 
L 202.468215 387.065826 
L 202.680227 387.136714 
L 202.798012 387.207042 
L 203.104251 387.291747 
L 203.33982 387.653201 
L 203.693173 387.73436 
L 203.834515 387.903613 
L 204.729676 387.965719 
L 204.84746 388.043208 
L 205.1537 388.101221 
L 205.295041 388.161058 
L 205.389269 388.245619 
L 205.53061 388.296146 
L 205.577724 388.296146 
L 205.719065 388.6099 
L 206.166646 388.696645 
L 206.307987 388.843999 
L 206.59067 388.937382 
L 206.779125 389.096936 
L 206.873352 389.189115 
L 206.991137 389.276148 
L 208.828574 389.362451 
L 208.946358 389.439641 
L 209.087699 389.500718 
L 209.252597 389.656246 
L 209.91219 389.740357 
L 210.077088 389.899262 
L 210.66601 389.967597 
L 210.783795 390.035801 
L 211.278489 390.098023 
L 211.419831 390.155305 
L 211.938082 390.223081 
L 212.079423 390.274125 
L 212.550561 390.337983 
L 212.715459 390.457648 
L 212.927471 390.55088 
L 213.115926 390.714445 
L 213.84619 390.783548 
L 213.963974 390.856146 
L 214.105315 390.904612 
L 214.270213 391.135393 
L 215.306716 391.184187 
L 215.424501 391.253992 
L 215.966309 391.32448 
L 216.10765 391.412042 
L 216.343219 391.470381 
L 216.555231 391.789539 
L 216.885027 391.849744 
L 217.002812 391.924077 
L 217.827303 391.969953 
L 218.015758 392.206182 
L 218.22777 392.271179 
L 218.392668 392.379233 
L 218.557566 392.43916 
L 218.722464 392.562895 
L 219.170045 392.624778 
L 219.311386 392.684602 
L 219.806081 392.784116 
L 219.970979 392.883921 
L 221.714188 392.984046 
L 221.85553 393.102511 
L 222.020428 393.16487 
L 222.185326 393.302623 
L 222.98626 393.374106 
L 223.127601 393.428825 
L 223.669409 393.499925 
L 223.810751 393.553054 
L 224.352559 393.601834 
L 224.470343 393.669868 
L 225.483289 393.76735 
L 225.695301 393.961223 
L 225.977984 394.061802 
L 226.142882 394.219419 
L 226.731804 394.286312 
L 226.873145 394.334197 
L 228.239445 394.425736 
L 228.380786 394.472908 
L 228.828367 394.572137 
L 228.993265 394.599676 
L 229.370175 394.688263 
L 229.511516 394.745533 
L 230.783588 394.818983 
L 230.924929 394.862303 
L 231.089827 394.916256 
L 231.207612 394.991033 
L 231.937875 395.085063 
L 232.12633 395.224334 
L 233.092162 395.321631 
L 233.209947 395.399052 
L 233.5633 395.504659 
L 233.728198 395.557651 
L 235.589192 395.658923 
L 235.75409 395.775672 
L 236.837707 395.833385 
L 236.979048 395.890165 
L 237.850653 395.988529 
L 237.968437 396.065066 
L 238.840042 396.148101 
L 238.981383 396.196712 
L 239.570305 396.284522 
L 239.711646 396.347476 
L 240.182784 396.390395 
L 240.300568 396.477694 
L 240.653922 396.584835 
L 240.795263 396.690209 
L 241.384185 396.782127 
L 241.57264 396.914041 
L 242.25579 396.99828 
L 242.397131 397.044498 
L 244.964831 397.154116 
L 245.106172 397.246716 
L 245.600867 397.351786 
L 245.765765 397.423978 
L 246.072005 397.519519 
L 246.213346 397.554122 
L 246.63737 397.624078 
L 246.802268 397.70038 
L 247.438304 397.776314 
L 247.579645 397.82885 
L 248.003669 397.922043 
L 248.14501 397.972765 
L 248.757489 398.072216 
L 248.922387 398.195784 
L 249.841106 398.292098 
L 249.982447 398.322331 
L 250.71271 398.415773 
L 250.854052 398.458471 
L 250.971836 398.547619 
L 251.183848 398.692629 
L 251.937668 398.776345 
L 252.102566 398.804513 
L 252.597261 398.914175 
L 252.762159 398.987788 
L 253.374638 399.097686 
L 253.539536 399.123294 
L 254.081345 399.225865 
L 254.246243 399.249937 
L 255.659656 399.329119 
L 255.824554 399.429401 
L 257.025955 399.518408 
L 257.190853 399.566654 
L 257.520649 399.621957 
L 257.661991 399.715477 
L 258.769164 399.8195 
L 258.957619 399.94422 
L 259.428757 400.026656 
L 259.570098 400.071814 
L 259.805667 400.169476 
L 259.970565 400.194358 
L 260.936397 400.298582 
L 261.101296 400.344639 
L 262.020014 400.454097 
L 262.184912 400.481862 
L 263.103631 400.570271 
L 263.268529 400.600223 
L 263.975235 400.708418 
L 264.140133 400.769661 
L 264.46993 400.871429 
L 264.611271 400.903198 
L 265.153079 400.970986 
L 265.317977 401.081625 
L 265.954013 401.18172 
L 266.166025 401.222752 
L 267.014073 401.329075 
L 267.178971 401.355564 
L 268.121246 401.435251 
L 268.262588 401.46755 
L 269.699558 401.539874 
L 269.864456 401.623313 
L 270.900959 401.726795 
L 271.065857 401.749003 
L 271.984575 401.856893 
L 272.125916 401.93861 
L 273.492216 402.042394 
L 273.751341 402.098058 
L 275.070527 402.205245 
L 275.306096 402.218432 
L 277.708898 402.311956 
L 277.873796 402.33585 
L 278.533388 402.421008 
L 278.792514 402.547133 
L 279.758346 402.646145 
L 279.993915 402.694131 
L 281.548669 402.784118 
L 281.737124 402.824737 
L 282.538058 402.928122 
L 282.797184 402.97071 
L 283.503891 403.065305 
L 283.715903 403.100217 
L 285.600453 403.209634 
L 285.765351 403.232718 
L 286.660513 403.320528 
L 286.872525 403.390227 
L 288.003255 403.482468 
L 288.168153 403.508036 
L 289.840692 403.615383 
L 290.029147 403.635364 
L 291.560344 403.737783 
L 291.795913 403.791759 
L 292.620404 403.902053 
L 292.785302 403.926327 
L 293.327111 404.03329 
L 293.492009 404.056608 
L 295.117434 404.167076 
L 295.329446 404.183713 
L 297.873589 404.291688 
L 298.203385 404.345266 
L 299.428343 404.443429 
L 299.734583 404.491328 
L 300.700415 404.576647 
L 300.88887 404.648647 
L 302.184498 404.741551 
L 302.349397 404.810022 
L 303.268115 404.906562 
L 303.45657 404.944255 
L 304.469516 405.046543 
L 304.634414 405.068327 
L 305.977156 405.144659 
L 306.118498 405.179506 
L 307.249228 405.272641 
L 307.46124 405.307047 
L 308.14439 405.41691 
L 308.332845 405.436389 
L 310.500078 405.530771 
L 310.688533 405.551678 
L 312.125503 405.649633 
L 312.337515 405.665764 
L 313.256233 405.760118 
L 313.491802 405.808136 
L 314.881658 405.892442 
L 315.046556 405.920458 
L 318.085394 406.012789 
L 318.273849 406.05145 
L 319.710819 406.154665 
L 319.922831 406.170851 
L 320.817992 406.267522 
L 320.98289 406.29199 
L 322.113621 406.40204 
L 322.372747 406.44044 
L 323.668375 406.549535 
L 323.880387 406.564555 
L 325.246686 406.668953 
L 325.458698 406.685799 
L 327.790829 406.795972 
L 331.583488 407.057077 
L 331.889727 407.080445 
L 332.784889 407.18983 
L 332.973344 407.209194 
L 335.022792 407.316094 
L 335.329032 407.367276 
L 337.378481 407.458558 
L 337.590493 407.510764 
L 338.791894 407.612218 
L 338.980349 407.631483 
L 340.676444 407.725178 
L 340.864899 407.760495 
L 342.631665 407.870822 
L 342.890791 407.882396 
L 343.668168 407.979387 
L 343.927294 408.031244 
L 345.882515 408.131903 
L 346.094527 408.146625 
L 348.968467 408.23634 
L 349.133365 408.259695 
L 350.876574 408.36963 
L 351.112143 408.382929 
L 353.444274 408.489088 
L 353.679843 408.502696 
L 355.564394 408.61228 
L 357.401831 408.843338 
L 358.933028 408.939647 
L 359.14504 408.997207 
L 360.369998 409.100679 
L 360.534896 409.13858 
L 361.33583 409.242124 
L 361.736297 409.267564 
L 363.361722 409.372125 
L 363.644404 409.382372 
L 366.188548 409.48865 
L 366.424117 409.501777 
L 368.073098 409.609438 
L 368.450008 409.659883 
L 372.384008 409.769735 
L 372.59602 409.78474 
L 375.422846 409.891171 
L 375.729085 409.93654 
L 379.215504 410.036458 
L 379.498186 410.06456 
L 381.712533 410.171535 
L 381.924545 410.187385 
L 384.98694 410.294704 
L 385.340293 410.334175 
L 387.483969 410.441078 
L 387.766652 410.478602 
L 390.334352 410.585089 
L 390.640592 410.594911 
L 392.336687 410.697319 
L 392.548699 410.724952 
L 394.598148 410.825985 
L 394.857274 410.850372 
L 396.482698 410.94757 
L 396.69471 410.966804 
L 398.414363 411.071748 
L 398.673488 411.105067 
L 401.052734 411.210698 
L 401.406087 411.230654 
L 402.984398 411.333893 
L 403.219967 411.346535 
L 404.374254 411.454515 
L 404.656937 411.487101 
L 404.939619 411.497625 
L 405.905451 411.599465 
L 406.211691 411.660139 
L 409.580325 411.768709 
L 409.957235 411.797043 
L 411.299977 411.898014 
L 411.58266 411.929316 
L 413.443654 412.034979 
L 413.726336 412.050543 
L 415.163306 412.159388 
L 416.835845 412.221948 
L 419.874683 412.305337 
L 420.039581 412.333559 
L 421.40588 412.441103 
L 421.665006 412.46372 
L 424.162035 412.571211 
L 424.633173 412.603282 
L 428.614286 412.709087 
L 428.873412 412.737897 
L 433.726129 412.844607 
L 433.985255 412.863574 
L 436.081818 412.97437 
L 436.29383 412.997701 
L 438.908644 413.105232 
L 439.214883 413.14876 
L 441.523457 413.258316 
L 441.876811 413.274645 
L 445.975708 413.381487 
L 446.588187 413.419851 
L 448.731863 413.524601 
L 449.155887 413.531194 
L 451.700031 413.637989 
L 452.453851 413.68468 
L 455.398461 413.790996 
L 455.610473 413.806297 
L 459.827155 413.913796 
L 460.133395 413.941125 
L 463.125119 414.043086 
L 463.431358 414.073029 
L 467.907166 414.177726 
L 468.354746 414.201261 
L 471.65271 414.306616 
L 471.958949 414.316511 
L 476.623212 414.426338 
L 477.000122 414.440364 
L 480.839894 414.550354 
L 481.16969 414.559045 
L 485.504157 414.669072 
L 485.739726 414.694162 
L 488.825677 414.805007 
L 489.48527 414.828336 
L 492.547665 414.935899 
L 492.924575 414.958802 
L 495.492275 415.062177 
L 495.751401 415.073803 
L 500.156538 415.180166 
L 500.698346 415.193258 
L 505.833746 415.303296 
L 506.210656 415.319286 
L 508.165878 415.416419 
L 508.37789 415.43204 
L 513.560404 415.542745 
L 513.913757 415.56441 
L 517.447289 415.668773 
L 517.777086 415.684966 
L 523.854761 415.792044 
L 524.514354 415.810578 
L 528.895934 415.918535 
L 529.272844 415.926232 
L 534.149119 416.036999 
L 534.478915 416.046133 
L 537.729765 416.150857 
L 538.177346 416.175335 
L 542.770938 416.278476 
L 543.077177 416.288146 
L 547.623656 416.396874 
L 547.929895 416.42396 
L 552.146577 416.533947 
L 552.688385 416.552146 
L 557.870899 416.660955 
L 558.200696 416.67482 
L 564.796623 416.782387 
L 565.361988 416.807941 
L 569.837796 416.918485 
L 572.546837 416.976334 
L 577.847136 417.087432 
L 585.243997 417.264623 
L 585.832919 417.284612 
L 586.869422 417.299378 
L 591.79281 417.406916 
L 592.263948 417.446192 
L 598.530078 417.553368 
L 599.166114 417.560506 
L 605.149562 417.669534 
L 605.974053 417.689922 
L 610.426304 417.796577 
L 611.085897 417.817066 
L 616.527537 417.925766 
L 616.95156 417.951434 
L 623.217691 418.060708 
L 624.419092 418.096827 
L 630.33187 418.204767 
L 631.250588 418.231176 
L 637.987856 418.339565 
L 638.883018 418.35654 
L 644.065532 418.465218 
L 644.795795 418.474415 
L 652.216213 418.583506 
L 653.535399 418.60065 
L 660.24911 418.708493 
L 661.00293 418.730732 
L 668.847372 418.836918 
L 669.412737 418.841851 
L 675.537527 418.948856 
L 675.985108 418.955205 
L 682.345466 419.063534 
L 683.334855 419.071457 
L 690.77883 419.177243 
L 691.249967 419.187024 
L 700.083798 419.295519 
L 700.625607 419.305335 
L 708.187366 419.415062 
L 709.624336 419.445623 
L 717.021197 419.555551 
L 718.411053 419.572428 
L 727.621794 419.679026 
L 728.069374 419.692853 
L 733.01632 419.803835 
L 733.675912 419.825638 
L 742.439073 419.932313 
L 743.004438 419.948073 
L 751.6027 420.057685 
L 752.568532 420.070045 
L 760.059621 420.179601 
L 760.719213 420.193448 
L 770.165523 420.303326 
L 771.955846 420.32251 
L 783.899186 420.429524 
L 784.629449 420.44922 
L 796.643459 420.559778 
L 797.46795 420.57124 
L 807.597409 420.675267 
L 807.927206 420.684995 
L 816.80815 420.79468 
L 817.279288 420.810762 
L 817.726869 420.815691 
L 817.726869 420.815691 
" clip-path="url(#p831708fe8c)" style="fill: none; stroke: #ff0000; stroke-width: 1.5; stroke-linecap: square"/>
   </g>
   <g id="patch_3">
    <path d="M 72.791112 443.52 
L 72.791112 50.4 
" style="fill: none; stroke: #000000; stroke-width: 0.8; stroke-linejoin: miter; stroke-linecap: square"/>
   </g>
   <g id="patch_4">
    <path d="M 853.2 443.52 
L 853.2 50.4 
" style="fill: none; stroke: #000000; stroke-width: 0.8; stroke-linejoin: miter; stroke-linecap: square"/>
   </g>
   <g id="patch_5">
    <path d="M 72.791112 443.52 
L 853.2 443.52 
" style="fill: none; stroke: #000000; stroke-width: 0.8; stroke-linejoin: miter; stroke-linecap: square"/>
   </g>
   <g id="patch_6">
    <path d="M 72.791112 50.4 
L 853.2 50.4 
" style="fill: none; stroke: #000000; stroke-width: 0.8; stroke-linejoin: miter; stroke-linecap: square"/>
   </g>
   <g id="text_12">
    <!-- Loss over Iterations -->
    <g transform="translate(404.064306 44.4) scale(0.12 -0.12)">
     <defs>
      <path id="DejaVuSans-76" d="M 191 3500 
L 800 3500 
L 1894 563 
L 2988 3500 
L 3597 3500 
L 2284 0 
L 1503 0 
L 191 3500 
z
" transform="scale(0.015625)"/>
     </defs>
     <use xlink:href="#DejaVuSans-4c"/>
     <use xlink:href="#DejaVuSans-6f" x="53.962891"/>
     <use xlink:href="#DejaVuSans-73" x="115.144531"/>
     <use xlink:href="#DejaVuSans-73" x="167.244141"/>
     <use xlink:href="#DejaVuSans-20" x="219.34375"/>
     <use xlink:href="#DejaVuSans-6f" x="251.130859"/>
     <use xlink:href="#DejaVuSans-76" x="312.3125"/>
     <use xlink:href="#DejaVuSans-65" x="371.492188"/>
     <use xlink:href="#DejaVuSans-72" x="433.015625"/>
     <use xlink:href="#DejaVuSans-20" x="474.128906"/>
     <use xlink:href="#DejaVuSans-49" x="505.916016"/>
     <use xlink:href="#DejaVuSans-74" x="535.408203"/>
     <use xlink:href="#DejaVuSans-65" x="574.617188"/>
     <use xlink:href="#DejaVuSans-72" x="636.140625"/>
     <use xlink:href="#DejaVuSans-61" x="677.253906"/>
     <use xlink:href="#DejaVuSans-74" x="738.533203"/>
     <use xlink:href="#DejaVuSans-69" x="777.742188"/>
     <use xlink:href="#DejaVuSans-6f" x="805.525391"/>
     <use xlink:href="#DejaVuSans-6e" x="866.707031"/>
     <use xlink:href="#DejaVuSans-73" x="930.085938"/>
    </g>
   </g>
   <g id="legend_1">
    <g id="patch_7">
     <path d="M 777.309375 117.1125 
L 846.2 117.1125 
Q 848.2 117.1125 848.2 115.1125 
L 848.2 57.4 
Q 848.2 55.4 846.2 55.4 
L 777.309375 55.4 
Q 775.309375 55.4 775.309375 57.4 
L 775.309375 115.1125 
Q 775.309375 117.1125 777.309375 117.1125 
z
" style="fill: #ffffff; opacity: 0.8; stroke: #cccccc; stroke-linejoin: miter"/>
    </g>
    <g id="line2d_25">
     <path d="M 779.309375 63.498437 
L 789.309375 63.498437 
L 799.309375 63.498437 
" style="fill: none; stroke: #ffa500; stroke-width: 1.5; stroke-linecap: square"/>
    </g>
    <g id="text_13">
     <!-- SVRG -->
     <g transform="translate(807.309375 66.998437) scale(0.1 -0.1)">
      <defs>
       <path id="DejaVuSans-53" d="M 3425 4513 
L 3425 3897 
Q 3066 4069 2747 4153 
Q 2428 4238 2131 4238 
Q 1616 4238 1336 4038 
Q 1056 3838 1056 3469 
Q 1056 3159 1242 3001 
Q 1428 2844 1947 2747 
L 2328 2669 
Q 3034 2534 3370 2195 
Q 3706 1856 3706 1288 
Q 3706 609 3251 259 
Q 2797 -91 1919 -91 
Q 1588 -91 1214 -16 
Q 841 59 441 206 
L 441 856 
Q 825 641 1194 531 
Q 1563 422 1919 422 
Q 2459 422 2753 634 
Q 3047 847 3047 1241 
Q 3047 1584 2836 1778 
Q 2625 1972 2144 2069 
L 1759 2144 
Q 1053 2284 737 2584 
Q 422 2884 422 3419 
Q 422 4038 858 4394 
Q 1294 4750 2059 4750 
Q 2388 4750 2728 4690 
Q 3069 4631 3425 4513 
z
" transform="scale(0.015625)"/>
       <path id="DejaVuSans-56" d="M 1831 0 
L 50 4666 
L 709 4666 
L 2188 738 
L 3669 4666 
L 4325 4666 
L 2547 0 
L 1831 0 
z
" transform="scale(0.015625)"/>
       <path id="DejaVuSans-52" d="M 2841 2188 
Q 3044 2119 3236 1894 
Q 3428 1669 3622 1275 
L 4263 0 
L 3584 0 
L 2988 1197 
Q 2756 1666 2539 1819 
Q 2322 1972 1947 1972 
L 1259 1972 
L 1259 0 
L 628 0 
L 628 4666 
L 2053 4666 
Q 2853 4666 3247 4331 
Q 3641 3997 3641 3322 
Q 3641 2881 3436 2590 
Q 3231 2300 2841 2188 
z
M 1259 4147 
L 1259 2491 
L 2053 2491 
Q 2509 2491 2742 2702 
Q 2975 2913 2975 3322 
Q 2975 3731 2742 3939 
Q 2509 4147 2053 4147 
L 1259 4147 
z
" transform="scale(0.015625)"/>
       <path id="DejaVuSans-47" d="M 3809 666 
L 3809 1919 
L 2778 1919 
L 2778 2438 
L 4434 2438 
L 4434 434 
Q 4069 175 3628 42 
Q 3188 -91 2688 -91 
Q 1594 -91 976 548 
Q 359 1188 359 2328 
Q 359 3472 976 4111 
Q 1594 4750 2688 4750 
Q 3144 4750 3555 4637 
Q 3966 4525 4313 4306 
L 4313 3634 
Q 3963 3931 3569 4081 
Q 3175 4231 2741 4231 
Q 1884 4231 1454 3753 
Q 1025 3275 1025 2328 
Q 1025 1384 1454 906 
Q 1884 428 2741 428 
Q 3075 428 3337 486 
Q 3600 544 3809 666 
z
" transform="scale(0.015625)"/>
      </defs>
      <use xlink:href="#DejaVuSans-53"/>
      <use xlink:href="#DejaVuSans-56" x="63.476562"/>
      <use xlink:href="#DejaVuSans-52" x="131.884766"/>
      <use xlink:href="#DejaVuSans-47" x="201.367188"/>
     </g>
    </g>
    <g id="line2d_26">
     <path d="M 779.309375 78.176562 
L 789.309375 78.176562 
L 799.309375 78.176562 
" style="fill: none; stroke: #c83cbc; stroke-width: 1.5; stroke-linecap: square"/>
    </g>
    <g id="text_14">
     <!-- L-SVRG -->
     <g transform="translate(807.309375 81.676562) scale(0.1 -0.1)">
      <defs>
       <path id="DejaVuSans-2d" d="M 313 2009 
L 1997 2009 
L 1997 1497 
L 313 1497 
L 313 2009 
z
" transform="scale(0.015625)"/>
      </defs>
      <use xlink:href="#DejaVuSans-4c"/>
      <use xlink:href="#DejaVuSans-2d" x="53.962891"/>
      <use xlink:href="#DejaVuSans-53" x="90.046875"/>
      <use xlink:href="#DejaVuSans-56" x="153.523438"/>
      <use xlink:href="#DejaVuSans-52" x="221.931641"/>
      <use xlink:href="#DejaVuSans-47" x="291.414062"/>
     </g>
    </g>
    <g id="line2d_27">
     <path d="M 779.309375 92.854687 
L 789.309375 92.854687 
L 799.309375 92.854687 
" style="fill: none; stroke: #1c1c84; stroke-width: 1.5; stroke-linecap: square"/>
    </g>
    <g id="text_15">
     <!-- SARAH -->
     <g transform="translate(807.309375 96.354687) scale(0.1 -0.1)">
      <defs>
       <path id="DejaVuSans-41" d="M 2188 4044 
L 1331 1722 
L 3047 1722 
L 2188 4044 
z
M 1831 4666 
L 2547 4666 
L 4325 0 
L 3669 0 
L 3244 1197 
L 1141 1197 
L 716 0 
L 50 0 
L 1831 4666 
z
" transform="scale(0.015625)"/>
       <path id="DejaVuSans-48" d="M 628 4666 
L 1259 4666 
L 1259 2753 
L 3553 2753 
L 3553 4666 
L 4184 4666 
L 4184 0 
L 3553 0 
L 3553 2222 
L 1259 2222 
L 1259 0 
L 628 0 
L 628 4666 
z
" transform="scale(0.015625)"/>
      </defs>
      <use xlink:href="#DejaVuSans-53"/>
      <use xlink:href="#DejaVuSans-41" x="65.351562"/>
      <use xlink:href="#DejaVuSans-52" x="133.759766"/>
      <use xlink:href="#DejaVuSans-41" x="199.242188"/>
      <use xlink:href="#DejaVuSans-48" x="267.650391"/>
     </g>
    </g>
    <g id="line2d_28">
     <path d="M 779.309375 107.532812 
L 789.309375 107.532812 
L 799.309375 107.532812 
" style="fill: none; stroke: #ff0000; stroke-width: 1.5; stroke-linecap: square"/>
    </g>
    <g id="text_16">
     <!-- PAGE -->
     <g transform="translate(807.309375 111.032812) scale(0.1 -0.1)">
      <defs>
       <path id="DejaVuSans-50" d="M 1259 4147 
L 1259 2394 
L 2053 2394 
Q 2494 2394 2734 2622 
Q 2975 2850 2975 3272 
Q 2975 3691 2734 3919 
Q 2494 4147 2053 4147 
L 1259 4147 
z
M 628 4666 
L 2053 4666 
Q 2838 4666 3239 4311 
Q 3641 3956 3641 3272 
Q 3641 2581 3239 2228 
Q 2838 1875 2053 1875 
L 1259 1875 
L 1259 0 
L 628 0 
L 628 4666 
z
" transform="scale(0.015625)"/>
       <path id="DejaVuSans-45" d="M 628 4666 
L 3578 4666 
L 3578 4134 
L 1259 4134 
L 1259 2753 
L 3481 2753 
L 3481 2222 
L 1259 2222 
L 1259 531 
L 3634 531 
L 3634 0 
L 628 0 
L 628 4666 
z
" transform="scale(0.015625)"/>
      </defs>
      <use xlink:href="#DejaVuSans-50"/>
      <use xlink:href="#DejaVuSans-41" x="53.927734"/>
      <use xlink:href="#DejaVuSans-47" x="120.585938"/>
      <use xlink:href="#DejaVuSans-45" x="198.076172"/>
     </g>
    </g>
   </g>
  </g>
  <g id="text_17">
   <!-- Mushrooms | OneLayerFC -->
   <g transform="translate(342.196562 20.779063) scale(0.14 -0.14)">
    <defs>
     <path id="DejaVuSans-4d" d="M 628 4666 
L 1569 4666 
L 2759 1491 
L 3956 4666 
L 4897 4666 
L 4897 0 
L 4281 0 
L 4281 4097 
L 3078 897 
L 2444 897 
L 1241 4097 
L 1241 0 
L 628 0 
L 628 4666 
z
" transform="scale(0.015625)"/>
     <path id="DejaVuSans-75" d="M 544 1381 
L 544 3500 
L 1119 3500 
L 1119 1403 
Q 1119 906 1312 657 
Q 1506 409 1894 409 
Q 2359 409 2629 706 
Q 2900 1003 2900 1516 
L 2900 3500 
L 3475 3500 
L 3475 0 
L 2900 0 
L 2900 538 
Q 2691 219 2414 64 
Q 2138 -91 1772 -91 
Q 1169 -91 856 284 
Q 544 659 544 1381 
z
M 1991 3584 
L 1991 3584 
z
" transform="scale(0.015625)"/>
     <path id="DejaVuSans-68" d="M 3513 2113 
L 3513 0 
L 2938 0 
L 2938 2094 
Q 2938 2591 2744 2837 
Q 2550 3084 2163 3084 
Q 1697 3084 1428 2787 
Q 1159 2491 1159 1978 
L 1159 0 
L 581 0 
L 581 4863 
L 1159 4863 
L 1159 2956 
Q 1366 3272 1645 3428 
Q 1925 3584 2291 3584 
Q 2894 3584 3203 3211 
Q 3513 2838 3513 2113 
z
" transform="scale(0.015625)"/>
     <path id="DejaVuSans-6d" d="M 3328 2828 
Q 3544 3216 3844 3400 
Q 4144 3584 4550 3584 
Q 5097 3584 5394 3201 
Q 5691 2819 5691 2113 
L 5691 0 
L 5113 0 
L 5113 2094 
Q 5113 2597 4934 2840 
Q 4756 3084 4391 3084 
Q 3944 3084 3684 2787 
Q 3425 2491 3425 1978 
L 3425 0 
L 2847 0 
L 2847 2094 
Q 2847 2600 2669 2842 
Q 2491 3084 2119 3084 
Q 1678 3084 1418 2786 
Q 1159 2488 1159 1978 
L 1159 0 
L 581 0 
L 581 3500 
L 1159 3500 
L 1159 2956 
Q 1356 3278 1631 3431 
Q 1906 3584 2284 3584 
Q 2666 3584 2933 3390 
Q 3200 3197 3328 2828 
z
" transform="scale(0.015625)"/>
     <path id="DejaVuSans-7c" d="M 1344 4891 
L 1344 -1509 
L 813 -1509 
L 813 4891 
L 1344 4891 
z
" transform="scale(0.015625)"/>
     <path id="DejaVuSans-4f" d="M 2522 4238 
Q 1834 4238 1429 3725 
Q 1025 3213 1025 2328 
Q 1025 1447 1429 934 
Q 1834 422 2522 422 
Q 3209 422 3611 934 
Q 4013 1447 4013 2328 
Q 4013 3213 3611 3725 
Q 3209 4238 2522 4238 
z
M 2522 4750 
Q 3503 4750 4090 4092 
Q 4678 3434 4678 2328 
Q 4678 1225 4090 567 
Q 3503 -91 2522 -91 
Q 1538 -91 948 565 
Q 359 1222 359 2328 
Q 359 3434 948 4092 
Q 1538 4750 2522 4750 
z
" transform="scale(0.015625)"/>
     <path id="DejaVuSans-79" d="M 2059 -325 
Q 1816 -950 1584 -1140 
Q 1353 -1331 966 -1331 
L 506 -1331 
L 506 -850 
L 844 -850 
Q 1081 -850 1212 -737 
Q 1344 -625 1503 -206 
L 1606 56 
L 191 3500 
L 800 3500 
L 1894 763 
L 2988 3500 
L 3597 3500 
L 2059 -325 
z
" transform="scale(0.015625)"/>
     <path id="DejaVuSans-46" d="M 628 4666 
L 3309 4666 
L 3309 4134 
L 1259 4134 
L 1259 2759 
L 3109 2759 
L 3109 2228 
L 1259 2228 
L 1259 0 
L 628 0 
L 628 4666 
z
" transform="scale(0.015625)"/>
     <path id="DejaVuSans-43" d="M 4122 4306 
L 4122 3641 
Q 3803 3938 3442 4084 
Q 3081 4231 2675 4231 
Q 1875 4231 1450 3742 
Q 1025 3253 1025 2328 
Q 1025 1406 1450 917 
Q 1875 428 2675 428 
Q 3081 428 3442 575 
Q 3803 722 4122 1019 
L 4122 359 
Q 3791 134 3420 21 
Q 3050 -91 2638 -91 
Q 1578 -91 968 557 
Q 359 1206 359 2328 
Q 359 3453 968 4101 
Q 1578 4750 2638 4750 
Q 3056 4750 3426 4639 
Q 3797 4528 4122 4306 
z
" transform="scale(0.015625)"/>
    </defs>
    <use xlink:href="#DejaVuSans-4d"/>
    <use xlink:href="#DejaVuSans-75" x="86.279297"/>
    <use xlink:href="#DejaVuSans-73" x="149.658203"/>
    <use xlink:href="#DejaVuSans-68" x="201.757812"/>
    <use xlink:href="#DejaVuSans-72" x="265.136719"/>
    <use xlink:href="#DejaVuSans-6f" x="304"/>
    <use xlink:href="#DejaVuSans-6f" x="365.181641"/>
    <use xlink:href="#DejaVuSans-6d" x="426.363281"/>
    <use xlink:href="#DejaVuSans-73" x="523.775391"/>
    <use xlink:href="#DejaVuSans-20" x="575.875"/>
    <use xlink:href="#DejaVuSans-7c" x="607.662109"/>
    <use xlink:href="#DejaVuSans-20" x="641.353516"/>
    <use xlink:href="#DejaVuSans-4f" x="673.140625"/>
    <use xlink:href="#DejaVuSans-6e" x="751.851562"/>
    <use xlink:href="#DejaVuSans-65" x="815.230469"/>
    <use xlink:href="#DejaVuSans-4c" x="876.753906"/>
    <use xlink:href="#DejaVuSans-61" x="932.466797"/>
    <use xlink:href="#DejaVuSans-79" x="993.746094"/>
    <use xlink:href="#DejaVuSans-65" x="1052.925781"/>
    <use xlink:href="#DejaVuSans-72" x="1114.449219"/>
    <use xlink:href="#DejaVuSans-46" x="1155.5625"/>
    <use xlink:href="#DejaVuSans-43" x="1213.082031"/>
   </g>
  </g>
 </g>
 <defs>
  <clipPath id="p831708fe8c">
   <rect x="72.791112" y="50.4" width="780.408888" height="393.12"/>
  </clipPath>
 </defs>
</svg>
