<?xml version="1.0" encoding="utf-8" standalone="no"?>
<!DOCTYPE svg PUBLIC "-//W3C//DTD SVG 1.1//EN"
  "http://www.w3.org/Graphics/SVG/1.1/DTD/svg11.dtd">
<svg xmlns:xlink="http://www.w3.org/1999/xlink" width="864pt" height="504pt" viewBox="0 0 864 504" xmlns="http://www.w3.org/2000/svg" version="1.1">
 <metadata>
  <rdf:RDF xmlns:dc="http://purl.org/dc/elements/1.1/" xmlns:cc="http://creativecommons.org/ns#" xmlns:rdf="http://www.w3.org/1999/02/22-rdf-syntax-ns#">
   <cc:Work>
    <dc:type rdf:resource="http://purl.org/dc/dcmitype/StillImage"/>
    <dc:date>2023-12-18T05:34:13.100973</dc:date>
    <dc:format>image/svg+xml</dc:format>
    <dc:creator>
     <cc:Agent>
      <dc:title>Matplotlib v3.8.2, https://matplotlib.org/</dc:title>
     </cc:Agent>
    </dc:creator>
   </cc:Work>
  </rdf:RDF>
 </metadata>
 <defs>
  <style type="text/css">*{stroke-linejoin: round; stroke-linecap: butt}</style>
 </defs>
 <g id="figure_1">
  <g id="patch_1">
   <path d="M 0 504 
L 864 504 
L 864 0 
L 0 0 
z
" style="fill: #ffffff"/>
  </g>
  <g id="axes_1">
   <g id="patch_2">
    <path d="M 72.791112 443.52 
L 853.2 443.52 
L 853.2 50.4 
L 72.791112 50.4 
z
" style="fill: #ffffff"/>
   </g>
   <g id="PathCollection_1">
    <defs>
     <path id="m54fbd9dce9" d="M 0 1.936492 
C 0.513564 1.936492 1.006162 1.732451 1.369306 1.369306 
C 1.732451 1.006162 1.936492 0.513564 1.936492 0 
C 1.936492 -0.513564 1.732451 -1.006162 1.369306 -1.369306 
C 1.006162 -1.732451 0.513564 -1.936492 0 -1.936492 
C -0.513564 -1.936492 -1.006162 -1.732451 -1.369306 -1.369306 
C -1.732451 -1.006162 -1.936492 -0.513564 -1.936492 0 
C -1.936492 0.513564 -1.732451 1.006162 -1.369306 1.369306 
C -1.006162 1.732451 -0.513564 1.936492 0 1.936492 
z
" style="stroke: #ffa500"/>
    </defs>
    <g clip-path="url(#pe65f179530)">
     <use xlink:href="#m54fbd9dce9" x="787.796074" y="425.650909" style="fill: #ffa500; stroke: #ffa500"/>
    </g>
   </g>
   <g id="PathCollection_2">
    <defs>
     <path id="m39d991319f" d="M 0 1.936492 
C 0.513564 1.936492 1.006162 1.732451 1.369306 1.369306 
C 1.732451 1.006162 1.936492 0.513564 1.936492 0 
C 1.936492 -0.513564 1.732451 -1.006162 1.369306 -1.369306 
C 1.006162 -1.732451 0.513564 -1.936492 0 -1.936492 
C -0.513564 -1.936492 -1.006162 -1.732451 -1.369306 -1.369306 
C -1.732451 -1.006162 -1.936492 -0.513564 -1.936492 0 
C -1.936492 0.513564 -1.732451 1.006162 -1.369306 1.369306 
C -1.006162 1.732451 -0.513564 1.936492 0 1.936492 
z
" style="stroke: #c83cbc"/>
    </defs>
    <g clip-path="url(#pe65f179530)">
     <use xlink:href="#m39d991319f" x="475.08038" y="421.457429" style="fill: #c83cbc; stroke: #c83cbc"/>
    </g>
   </g>
   <g id="PathCollection_3">
    <defs>
     <path id="m55b195e82c" d="M 0 1.936492 
C 0.513564 1.936492 1.006162 1.732451 1.369306 1.369306 
C 1.732451 1.006162 1.936492 0.513564 1.936492 0 
C 1.936492 -0.513564 1.732451 -1.006162 1.369306 -1.369306 
C 1.006162 -1.732451 0.513564 -1.936492 0 -1.936492 
C -0.513564 -1.936492 -1.006162 -1.732451 -1.369306 -1.369306 
C -1.732451 -1.006162 -1.936492 -0.513564 -1.936492 0 
C -1.936492 0.513564 -1.732451 1.006162 -1.369306 1.369306 
C -1.006162 1.732451 -0.513564 1.936492 0 1.936492 
z
" style="stroke: #1c1c84"/>
    </defs>
    <g clip-path="url(#pe65f179530)">
     <use xlink:href="#m55b195e82c" x="367.55101" y="420.911383" style="fill: #1c1c84; stroke: #1c1c84"/>
    </g>
   </g>
   <g id="PathCollection_4">
    <defs>
     <path id="m82a0b49135" d="M 0 1.936492 
C 0.513564 1.936492 1.006162 1.732451 1.369306 1.369306 
C 1.732451 1.006162 1.936492 0.513564 1.936492 0 
C 1.936492 -0.513564 1.732451 -1.006162 1.369306 -1.369306 
C 1.006162 -1.732451 0.513564 -1.936492 0 -1.936492 
C -0.513564 -1.936492 -1.006162 -1.732451 -1.369306 -1.369306 
C -1.732451 -1.006162 -1.936492 -0.513564 -1.936492 0 
C -1.936492 0.513564 -1.732451 1.006162 -1.369306 1.369306 
C -1.006162 1.732451 -0.513564 1.936492 0 1.936492 
z
" style="stroke: #ff0000"/>
    </defs>
    <g clip-path="url(#pe65f179530)">
     <use xlink:href="#m82a0b49135" x="817.726869" y="420.815691" style="fill: #ff0000; stroke: #ff0000"/>
    </g>
   </g>
   <g id="matplotlib.axis_1">
    <g id="xtick_1">
     <g id="line2d_1">
      <path d="M 108.264243 443.52 
L 108.264243 50.4 
" clip-path="url(#pe65f179530)" style="fill: none; stroke: #b0b0b0; stroke-width: 0.8; stroke-linecap: square"/>
     </g>
     <g id="line2d_2">
      <defs>
       <path id="m1113a92800" d="M 0 0 
L 0 3.5 
" style="stroke: #000000; stroke-width: 0.8"/>
      </defs>
      <g>
       <use xlink:href="#m1113a92800" x="108.264243" y="443.52" style="stroke: #000000; stroke-width: 0.8"/>
      </g>
     </g>
     <g id="text_1">
      <!-- 0 -->
      <g transform="translate(105.082993 458.118438) scale(0.1 -0.1)">
       <defs>
        <path id="DejaVuSans-30" d="M 2034 4250 
Q 1547 4250 1301 3770 
Q 1056 3291 1056 2328 
Q 1056 1369 1301 889 
Q 1547 409 2034 409 
Q 2525 409 2770 889 
Q 3016 1369 3016 2328 
Q 3016 3291 2770 3770 
Q 2525 4250 2034 4250 
z
M 2034 4750 
Q 2819 4750 3233 4129 
Q 3647 3509 3647 2328 
Q 3647 1150 3233 529 
Q 2819 -91 2034 -91 
Q 1250 -91 836 529 
Q 422 1150 422 2328 
Q 422 3509 836 4129 
Q 1250 4750 2034 4750 
z
" transform="scale(0.015625)"/>
       </defs>
       <use xlink:href="#DejaVuSans-30"/>
      </g>
     </g>
    </g>
    <g id="xtick_2">
     <g id="line2d_3">
      <path d="M 217.233061 443.52 
L 217.233061 50.4 
" clip-path="url(#pe65f179530)" style="fill: none; stroke: #b0b0b0; stroke-width: 0.8; stroke-linecap: square"/>
     </g>
     <g id="line2d_4">
      <g>
       <use xlink:href="#m1113a92800" x="217.233061" y="443.52" style="stroke: #000000; stroke-width: 0.8"/>
      </g>
     </g>
     <g id="text_2">
      <!-- 20 -->
      <g transform="translate(210.870561 458.118438) scale(0.1 -0.1)">
       <defs>
        <path id="DejaVuSans-32" d="M 1228 531 
L 3431 531 
L 3431 0 
L 469 0 
L 469 531 
Q 828 903 1448 1529 
Q 2069 2156 2228 2338 
Q 2531 2678 2651 2914 
Q 2772 3150 2772 3378 
Q 2772 3750 2511 3984 
Q 2250 4219 1831 4219 
Q 1534 4219 1204 4116 
Q 875 4013 500 3803 
L 500 4441 
Q 881 4594 1212 4672 
Q 1544 4750 1819 4750 
Q 2544 4750 2975 4387 
Q 3406 4025 3406 3419 
Q 3406 3131 3298 2873 
Q 3191 2616 2906 2266 
Q 2828 2175 2409 1742 
Q 1991 1309 1228 531 
z
" transform="scale(0.015625)"/>
       </defs>
       <use xlink:href="#DejaVuSans-32"/>
       <use xlink:href="#DejaVuSans-30" x="63.623047"/>
      </g>
     </g>
    </g>
    <g id="xtick_3">
     <g id="line2d_5">
      <path d="M 326.201879 443.52 
L 326.201879 50.4 
" clip-path="url(#pe65f179530)" style="fill: none; stroke: #b0b0b0; stroke-width: 0.8; stroke-linecap: square"/>
     </g>
     <g id="line2d_6">
      <g>
       <use xlink:href="#m1113a92800" x="326.201879" y="443.52" style="stroke: #000000; stroke-width: 0.8"/>
      </g>
     </g>
     <g id="text_3">
      <!-- 40 -->
      <g transform="translate(319.839379 458.118438) scale(0.1 -0.1)">
       <defs>
        <path id="DejaVuSans-34" d="M 2419 4116 
L 825 1625 
L 2419 1625 
L 2419 4116 
z
M 2253 4666 
L 3047 4666 
L 3047 1625 
L 3713 1625 
L 3713 1100 
L 3047 1100 
L 3047 0 
L 2419 0 
L 2419 1100 
L 313 1100 
L 313 1709 
L 2253 4666 
z
" transform="scale(0.015625)"/>
       </defs>
       <use xlink:href="#DejaVuSans-34"/>
       <use xlink:href="#DejaVuSans-30" x="63.623047"/>
      </g>
     </g>
    </g>
    <g id="xtick_4">
     <g id="line2d_7">
      <path d="M 435.170697 443.52 
L 435.170697 50.4 
" clip-path="url(#pe65f179530)" style="fill: none; stroke: #b0b0b0; stroke-width: 0.8; stroke-linecap: square"/>
     </g>
     <g id="line2d_8">
      <g>
       <use xlink:href="#m1113a92800" x="435.170697" y="443.52" style="stroke: #000000; stroke-width: 0.8"/>
      </g>
     </g>
     <g id="text_4">
      <!-- 60 -->
      <g transform="translate(428.808197 458.118438) scale(0.1 -0.1)">
       <defs>
        <path id="DejaVuSans-36" d="M 2113 2584 
Q 1688 2584 1439 2293 
Q 1191 2003 1191 1497 
Q 1191 994 1439 701 
Q 1688 409 2113 409 
Q 2538 409 2786 701 
Q 3034 994 3034 1497 
Q 3034 2003 2786 2293 
Q 2538 2584 2113 2584 
z
M 3366 4563 
L 3366 3988 
Q 3128 4100 2886 4159 
Q 2644 4219 2406 4219 
Q 1781 4219 1451 3797 
Q 1122 3375 1075 2522 
Q 1259 2794 1537 2939 
Q 1816 3084 2150 3084 
Q 2853 3084 3261 2657 
Q 3669 2231 3669 1497 
Q 3669 778 3244 343 
Q 2819 -91 2113 -91 
Q 1303 -91 875 529 
Q 447 1150 447 2328 
Q 447 3434 972 4092 
Q 1497 4750 2381 4750 
Q 2619 4750 2861 4703 
Q 3103 4656 3366 4563 
z
" transform="scale(0.015625)"/>
       </defs>
       <use xlink:href="#DejaVuSans-36"/>
       <use xlink:href="#DejaVuSans-30" x="63.623047"/>
      </g>
     </g>
    </g>
    <g id="xtick_5">
     <g id="line2d_9">
      <path d="M 544.139516 443.52 
L 544.139516 50.4 
" clip-path="url(#pe65f179530)" style="fill: none; stroke: #b0b0b0; stroke-width: 0.8; stroke-linecap: square"/>
     </g>
     <g id="line2d_10">
      <g>
       <use xlink:href="#m1113a92800" x="544.139516" y="443.52" style="stroke: #000000; stroke-width: 0.8"/>
      </g>
     </g>
     <g id="text_5">
      <!-- 80 -->
      <g transform="translate(537.777016 458.118438) scale(0.1 -0.1)">
       <defs>
        <path id="DejaVuSans-38" d="M 2034 2216 
Q 1584 2216 1326 1975 
Q 1069 1734 1069 1313 
Q 1069 891 1326 650 
Q 1584 409 2034 409 
Q 2484 409 2743 651 
Q 3003 894 3003 1313 
Q 3003 1734 2745 1975 
Q 2488 2216 2034 2216 
z
M 1403 2484 
Q 997 2584 770 2862 
Q 544 3141 544 3541 
Q 544 4100 942 4425 
Q 1341 4750 2034 4750 
Q 2731 4750 3128 4425 
Q 3525 4100 3525 3541 
Q 3525 3141 3298 2862 
Q 3072 2584 2669 2484 
Q 3125 2378 3379 2068 
Q 3634 1759 3634 1313 
Q 3634 634 3220 271 
Q 2806 -91 2034 -91 
Q 1263 -91 848 271 
Q 434 634 434 1313 
Q 434 1759 690 2068 
Q 947 2378 1403 2484 
z
M 1172 3481 
Q 1172 3119 1398 2916 
Q 1625 2713 2034 2713 
Q 2441 2713 2670 2916 
Q 2900 3119 2900 3481 
Q 2900 3844 2670 4047 
Q 2441 4250 2034 4250 
Q 1625 4250 1398 4047 
Q 1172 3844 1172 3481 
z
" transform="scale(0.015625)"/>
       </defs>
       <use xlink:href="#DejaVuSans-38"/>
       <use xlink:href="#DejaVuSans-30" x="63.623047"/>
      </g>
     </g>
    </g>
    <g id="xtick_6">
     <g id="line2d_11">
      <path d="M 653.108334 443.52 
L 653.108334 50.4 
" clip-path="url(#pe65f179530)" style="fill: none; stroke: #b0b0b0; stroke-width: 0.8; stroke-linecap: square"/>
     </g>
     <g id="line2d_12">
      <g>
       <use xlink:href="#m1113a92800" x="653.108334" y="443.52" style="stroke: #000000; stroke-width: 0.8"/>
      </g>
     </g>
     <g id="text_6">
      <!-- 100 -->
      <g transform="translate(643.564584 458.118438) scale(0.1 -0.1)">
       <defs>
        <path id="DejaVuSans-31" d="M 794 531 
L 1825 531 
L 1825 4091 
L 703 3866 
L 703 4441 
L 1819 4666 
L 2450 4666 
L 2450 531 
L 3481 531 
L 3481 0 
L 794 0 
L 794 531 
z
" transform="scale(0.015625)"/>
       </defs>
       <use xlink:href="#DejaVuSans-31"/>
       <use xlink:href="#DejaVuSans-30" x="63.623047"/>
       <use xlink:href="#DejaVuSans-30" x="127.246094"/>
      </g>
     </g>
    </g>
    <g id="xtick_7">
     <g id="line2d_13">
      <path d="M 762.077152 443.52 
L 762.077152 50.4 
" clip-path="url(#pe65f179530)" style="fill: none; stroke: #b0b0b0; stroke-width: 0.8; stroke-linecap: square"/>
     </g>
     <g id="line2d_14">
      <g>
       <use xlink:href="#m1113a92800" x="762.077152" y="443.52" style="stroke: #000000; stroke-width: 0.8"/>
      </g>
     </g>
     <g id="text_7">
      <!-- 120 -->
      <g transform="translate(752.533402 458.118438) scale(0.1 -0.1)">
       <use xlink:href="#DejaVuSans-31"/>
       <use xlink:href="#DejaVuSans-32" x="63.623047"/>
       <use xlink:href="#DejaVuSans-30" x="127.246094"/>
      </g>
     </g>
    </g>
    <g id="text_8">
     <!-- Used gradients / n -->
     <g transform="translate(417.193212 471.796562) scale(0.1 -0.1)">
      <defs>
       <path id="DejaVuSans-55" d="M 556 4666 
L 1191 4666 
L 1191 1831 
Q 1191 1081 1462 751 
Q 1734 422 2344 422 
Q 2950 422 3222 751 
Q 3494 1081 3494 1831 
L 3494 4666 
L 4128 4666 
L 4128 1753 
Q 4128 841 3676 375 
Q 3225 -91 2344 -91 
Q 1459 -91 1007 375 
Q 556 841 556 1753 
L 556 4666 
z
" transform="scale(0.015625)"/>
       <path id="DejaVuSans-73" d="M 2834 3397 
L 2834 2853 
Q 2591 2978 2328 3040 
Q 2066 3103 1784 3103 
Q 1356 3103 1142 2972 
Q 928 2841 928 2578 
Q 928 2378 1081 2264 
Q 1234 2150 1697 2047 
L 1894 2003 
Q 2506 1872 2764 1633 
Q 3022 1394 3022 966 
Q 3022 478 2636 193 
Q 2250 -91 1575 -91 
Q 1294 -91 989 -36 
Q 684 19 347 128 
L 347 722 
Q 666 556 975 473 
Q 1284 391 1588 391 
Q 1994 391 2212 530 
Q 2431 669 2431 922 
Q 2431 1156 2273 1281 
Q 2116 1406 1581 1522 
L 1381 1569 
Q 847 1681 609 1914 
Q 372 2147 372 2553 
Q 372 3047 722 3315 
Q 1072 3584 1716 3584 
Q 2034 3584 2315 3537 
Q 2597 3491 2834 3397 
z
" transform="scale(0.015625)"/>
       <path id="DejaVuSans-65" d="M 3597 1894 
L 3597 1613 
L 953 1613 
Q 991 1019 1311 708 
Q 1631 397 2203 397 
Q 2534 397 2845 478 
Q 3156 559 3463 722 
L 3463 178 
Q 3153 47 2828 -22 
Q 2503 -91 2169 -91 
Q 1331 -91 842 396 
Q 353 884 353 1716 
Q 353 2575 817 3079 
Q 1281 3584 2069 3584 
Q 2775 3584 3186 3129 
Q 3597 2675 3597 1894 
z
M 3022 2063 
Q 3016 2534 2758 2815 
Q 2500 3097 2075 3097 
Q 1594 3097 1305 2825 
Q 1016 2553 972 2059 
L 3022 2063 
z
" transform="scale(0.015625)"/>
       <path id="DejaVuSans-64" d="M 2906 2969 
L 2906 4863 
L 3481 4863 
L 3481 0 
L 2906 0 
L 2906 525 
Q 2725 213 2448 61 
Q 2172 -91 1784 -91 
Q 1150 -91 751 415 
Q 353 922 353 1747 
Q 353 2572 751 3078 
Q 1150 3584 1784 3584 
Q 2172 3584 2448 3432 
Q 2725 3281 2906 2969 
z
M 947 1747 
Q 947 1113 1208 752 
Q 1469 391 1925 391 
Q 2381 391 2643 752 
Q 2906 1113 2906 1747 
Q 2906 2381 2643 2742 
Q 2381 3103 1925 3103 
Q 1469 3103 1208 2742 
Q 947 2381 947 1747 
z
" transform="scale(0.015625)"/>
       <path id="DejaVuSans-20" transform="scale(0.015625)"/>
       <path id="DejaVuSans-67" d="M 2906 1791 
Q 2906 2416 2648 2759 
Q 2391 3103 1925 3103 
Q 1463 3103 1205 2759 
Q 947 2416 947 1791 
Q 947 1169 1205 825 
Q 1463 481 1925 481 
Q 2391 481 2648 825 
Q 2906 1169 2906 1791 
z
M 3481 434 
Q 3481 -459 3084 -895 
Q 2688 -1331 1869 -1331 
Q 1566 -1331 1297 -1286 
Q 1028 -1241 775 -1147 
L 775 -588 
Q 1028 -725 1275 -790 
Q 1522 -856 1778 -856 
Q 2344 -856 2625 -561 
Q 2906 -266 2906 331 
L 2906 616 
Q 2728 306 2450 153 
Q 2172 0 1784 0 
Q 1141 0 747 490 
Q 353 981 353 1791 
Q 353 2603 747 3093 
Q 1141 3584 1784 3584 
Q 2172 3584 2450 3431 
Q 2728 3278 2906 2969 
L 2906 3500 
L 3481 3500 
L 3481 434 
z
" transform="scale(0.015625)"/>
       <path id="DejaVuSans-72" d="M 2631 2963 
Q 2534 3019 2420 3045 
Q 2306 3072 2169 3072 
Q 1681 3072 1420 2755 
Q 1159 2438 1159 1844 
L 1159 0 
L 581 0 
L 581 3500 
L 1159 3500 
L 1159 2956 
Q 1341 3275 1631 3429 
Q 1922 3584 2338 3584 
Q 2397 3584 2469 3576 
Q 2541 3569 2628 3553 
L 2631 2963 
z
" transform="scale(0.015625)"/>
       <path id="DejaVuSans-61" d="M 2194 1759 
Q 1497 1759 1228 1600 
Q 959 1441 959 1056 
Q 959 750 1161 570 
Q 1363 391 1709 391 
Q 2188 391 2477 730 
Q 2766 1069 2766 1631 
L 2766 1759 
L 2194 1759 
z
M 3341 1997 
L 3341 0 
L 2766 0 
L 2766 531 
Q 2569 213 2275 61 
Q 1981 -91 1556 -91 
Q 1019 -91 701 211 
Q 384 513 384 1019 
Q 384 1609 779 1909 
Q 1175 2209 1959 2209 
L 2766 2209 
L 2766 2266 
Q 2766 2663 2505 2880 
Q 2244 3097 1772 3097 
Q 1472 3097 1187 3025 
Q 903 2953 641 2809 
L 641 3341 
Q 956 3463 1253 3523 
Q 1550 3584 1831 3584 
Q 2591 3584 2966 3190 
Q 3341 2797 3341 1997 
z
" transform="scale(0.015625)"/>
       <path id="DejaVuSans-69" d="M 603 3500 
L 1178 3500 
L 1178 0 
L 603 0 
L 603 3500 
z
M 603 4863 
L 1178 4863 
L 1178 4134 
L 603 4134 
L 603 4863 
z
" transform="scale(0.015625)"/>
       <path id="DejaVuSans-6e" d="M 3513 2113 
L 3513 0 
L 2938 0 
L 2938 2094 
Q 2938 2591 2744 2837 
Q 2550 3084 2163 3084 
Q 1697 3084 1428 2787 
Q 1159 2491 1159 1978 
L 1159 0 
L 581 0 
L 581 3500 
L 1159 3500 
L 1159 2956 
Q 1366 3272 1645 3428 
Q 1925 3584 2291 3584 
Q 2894 3584 3203 3211 
Q 3513 2838 3513 2113 
z
" transform="scale(0.015625)"/>
       <path id="DejaVuSans-74" d="M 1172 4494 
L 1172 3500 
L 2356 3500 
L 2356 3053 
L 1172 3053 
L 1172 1153 
Q 1172 725 1289 603 
Q 1406 481 1766 481 
L 2356 481 
L 2356 0 
L 1766 0 
Q 1100 0 847 248 
Q 594 497 594 1153 
L 594 3053 
L 172 3053 
L 172 3500 
L 594 3500 
L 594 4494 
L 1172 4494 
z
" transform="scale(0.015625)"/>
       <path id="DejaVuSans-2f" d="M 1625 4666 
L 2156 4666 
L 531 -594 
L 0 -594 
L 1625 4666 
z
" transform="scale(0.015625)"/>
      </defs>
      <use xlink:href="#DejaVuSans-55"/>
      <use xlink:href="#DejaVuSans-73" x="73.193359"/>
      <use xlink:href="#DejaVuSans-65" x="125.292969"/>
      <use xlink:href="#DejaVuSans-64" x="186.816406"/>
      <use xlink:href="#DejaVuSans-20" x="250.292969"/>
      <use xlink:href="#DejaVuSans-67" x="282.080078"/>
      <use xlink:href="#DejaVuSans-72" x="345.556641"/>
      <use xlink:href="#DejaVuSans-61" x="386.669922"/>
      <use xlink:href="#DejaVuSans-64" x="447.949219"/>
      <use xlink:href="#DejaVuSans-69" x="511.425781"/>
      <use xlink:href="#DejaVuSans-65" x="539.208984"/>
      <use xlink:href="#DejaVuSans-6e" x="600.732422"/>
      <use xlink:href="#DejaVuSans-74" x="664.111328"/>
      <use xlink:href="#DejaVuSans-73" x="703.320312"/>
      <use xlink:href="#DejaVuSans-20" x="755.419922"/>
      <use xlink:href="#DejaVuSans-2f" x="787.207031"/>
      <use xlink:href="#DejaVuSans-20" x="820.898438"/>
      <use xlink:href="#DejaVuSans-6e" x="852.685547"/>
     </g>
    </g>
   </g>
   <g id="matplotlib.axis_2">
    <g id="ytick_1">
     <g id="line2d_15">
      <defs>
       <path id="m79f662d183" d="M 0 0 
L -2 0 
" style="stroke: #000000; stroke-width: 0.6"/>
      </defs>
      <g>
       <use xlink:href="#m79f662d183" x="72.791112" y="355.160423" style="stroke: #000000; stroke-width: 0.6"/>
      </g>
     </g>
     <g id="text_9">
      <!-- $\mathdefault{4\times10^{-1}}$ -->
      <g transform="translate(25.291112 358.959642) scale(0.1 -0.1)">
       <defs>
        <path id="DejaVuSans-d7" d="M 4488 3438 
L 3059 2003 
L 4488 575 
L 4116 197 
L 2681 1631 
L 1247 197 
L 878 575 
L 2303 2003 
L 878 3438 
L 1247 3816 
L 2681 2381 
L 4116 3816 
L 4488 3438 
z
" transform="scale(0.015625)"/>
        <path id="DejaVuSans-2212" d="M 678 2272 
L 4684 2272 
L 4684 1741 
L 678 1741 
L 678 2272 
z
" transform="scale(0.015625)"/>
       </defs>
       <use xlink:href="#DejaVuSans-34" transform="translate(0 0.684375)"/>
       <use xlink:href="#DejaVuSans-d7" transform="translate(83.105469 0.684375)"/>
       <use xlink:href="#DejaVuSans-31" transform="translate(186.376953 0.684375)"/>
       <use xlink:href="#DejaVuSans-30" transform="translate(250 0.684375)"/>
       <use xlink:href="#DejaVuSans-2212" transform="translate(314.580078 38.965625) scale(0.7)"/>
       <use xlink:href="#DejaVuSans-31" transform="translate(373.232422 38.965625) scale(0.7)"/>
      </g>
     </g>
    </g>
    <g id="ytick_2">
     <g id="line2d_16">
      <g>
       <use xlink:href="#m79f662d183" x="72.791112" y="276.631587" style="stroke: #000000; stroke-width: 0.6"/>
      </g>
     </g>
    </g>
    <g id="ytick_3">
     <g id="line2d_17">
      <g>
       <use xlink:href="#m79f662d183" x="72.791112" y="212.468857" style="stroke: #000000; stroke-width: 0.6"/>
      </g>
     </g>
     <g id="text_10">
      <!-- $\mathdefault{6\times10^{-1}}$ -->
      <g transform="translate(25.291112 216.268075) scale(0.1 -0.1)">
       <use xlink:href="#DejaVuSans-36" transform="translate(0 0.684375)"/>
       <use xlink:href="#DejaVuSans-d7" transform="translate(83.105469 0.684375)"/>
       <use xlink:href="#DejaVuSans-31" transform="translate(186.376953 0.684375)"/>
       <use xlink:href="#DejaVuSans-30" transform="translate(250 0.684375)"/>
       <use xlink:href="#DejaVuSans-2212" transform="translate(314.580078 38.965625) scale(0.7)"/>
       <use xlink:href="#DejaVuSans-31" transform="translate(373.232422 38.965625) scale(0.7)"/>
      </g>
     </g>
    </g>
    <g id="ytick_4">
     <g id="line2d_18">
      <g>
       <use xlink:href="#m79f662d183" x="72.791112" y="158.220041" style="stroke: #000000; stroke-width: 0.6"/>
      </g>
     </g>
    </g>
    <g id="ytick_5">
     <g id="line2d_19">
      <g>
       <use xlink:href="#m79f662d183" x="72.791112" y="111.227579" style="stroke: #000000; stroke-width: 0.6"/>
      </g>
     </g>
    </g>
    <g id="ytick_6">
     <g id="line2d_20">
      <g>
       <use xlink:href="#m79f662d183" x="72.791112" y="69.77729" style="stroke: #000000; stroke-width: 0.6"/>
      </g>
     </g>
    </g>
    <g id="text_11">
     <!-- Loss, log scale -->
     <g transform="translate(19.211424 283.200625) rotate(-90) scale(0.1 -0.1)">
      <defs>
       <path id="DejaVuSans-4c" d="M 628 4666 
L 1259 4666 
L 1259 531 
L 3531 531 
L 3531 0 
L 628 0 
L 628 4666 
z
" transform="scale(0.015625)"/>
       <path id="DejaVuSans-6f" d="M 1959 3097 
Q 1497 3097 1228 2736 
Q 959 2375 959 1747 
Q 959 1119 1226 758 
Q 1494 397 1959 397 
Q 2419 397 2687 759 
Q 2956 1122 2956 1747 
Q 2956 2369 2687 2733 
Q 2419 3097 1959 3097 
z
M 1959 3584 
Q 2709 3584 3137 3096 
Q 3566 2609 3566 1747 
Q 3566 888 3137 398 
Q 2709 -91 1959 -91 
Q 1206 -91 779 398 
Q 353 888 353 1747 
Q 353 2609 779 3096 
Q 1206 3584 1959 3584 
z
" transform="scale(0.015625)"/>
       <path id="DejaVuSans-2c" d="M 750 794 
L 1409 794 
L 1409 256 
L 897 -744 
L 494 -744 
L 750 256 
L 750 794 
z
" transform="scale(0.015625)"/>
       <path id="DejaVuSans-6c" d="M 603 4863 
L 1178 4863 
L 1178 0 
L 603 0 
L 603 4863 
z
" transform="scale(0.015625)"/>
       <path id="DejaVuSans-63" d="M 3122 3366 
L 3122 2828 
Q 2878 2963 2633 3030 
Q 2388 3097 2138 3097 
Q 1578 3097 1268 2742 
Q 959 2388 959 1747 
Q 959 1106 1268 751 
Q 1578 397 2138 397 
Q 2388 397 2633 464 
Q 2878 531 3122 666 
L 3122 134 
Q 2881 22 2623 -34 
Q 2366 -91 2075 -91 
Q 1284 -91 818 406 
Q 353 903 353 1747 
Q 353 2603 823 3093 
Q 1294 3584 2113 3584 
Q 2378 3584 2631 3529 
Q 2884 3475 3122 3366 
z
" transform="scale(0.015625)"/>
      </defs>
      <use xlink:href="#DejaVuSans-4c"/>
      <use xlink:href="#DejaVuSans-6f" x="53.962891"/>
      <use xlink:href="#DejaVuSans-73" x="115.144531"/>
      <use xlink:href="#DejaVuSans-73" x="167.244141"/>
      <use xlink:href="#DejaVuSans-2c" x="219.34375"/>
      <use xlink:href="#DejaVuSans-20" x="251.130859"/>
      <use xlink:href="#DejaVuSans-6c" x="282.917969"/>
      <use xlink:href="#DejaVuSans-6f" x="310.701172"/>
      <use xlink:href="#DejaVuSans-67" x="371.882812"/>
      <use xlink:href="#DejaVuSans-20" x="435.359375"/>
      <use xlink:href="#DejaVuSans-73" x="467.146484"/>
      <use xlink:href="#DejaVuSans-63" x="519.246094"/>
      <use xlink:href="#DejaVuSans-61" x="574.226562"/>
      <use xlink:href="#DejaVuSans-6c" x="635.505859"/>
      <use xlink:href="#DejaVuSans-65" x="663.289062"/>
     </g>
    </g>
   </g>
   <g id="line2d_21">
    <path d="M 108.264243 68.269091 
L 124.443572 287.118823 
L 140.622901 354.11644 
L 156.802231 371.406606 
L 172.98156 389.002182 
L 189.160889 395.595503 
L 205.340219 400.57576 
L 221.519548 403.814369 
L 237.698877 406.321766 
L 253.878207 408.254451 
L 270.057536 409.852484 
L 286.236865 411.250764 
L 302.416194 412.49427 
L 318.595524 413.529863 
L 334.774853 414.496596 
L 350.954182 415.355435 
L 367.133512 416.165513 
L 383.312841 416.887987 
L 399.49217 417.578978 
L 415.6715 418.192786 
L 431.850829 418.780365 
L 448.030158 419.306625 
L 464.209488 419.825481 
L 480.388817 420.312381 
L 496.568146 420.770794 
L 512.747475 421.178812 
L 528.926805 421.564409 
L 545.106134 421.922408 
L 561.285463 422.268111 
L 577.464793 422.613551 
L 593.644122 422.923885 
L 609.823451 423.204906 
L 626.002781 423.485387 
L 642.18211 423.765358 
L 658.361439 424.018895 
L 674.540768 424.258829 
L 690.720098 424.47332 
L 706.899427 424.698133 
L 723.078756 424.900424 
L 739.258086 425.102449 
L 755.437415 425.294444 
L 771.616744 425.482541 
L 787.796074 425.650909 
" clip-path="url(#pe65f179530)" style="fill: none; stroke: #ffa500; stroke-width: 1.5; stroke-linecap: square"/>
   </g>
   <g id="line2d_22">
    <path d="M 108.264243 68.269091 
L 109.337332 103.846189 
L 110.303112 127.573754 
L 111.3762 153.873215 
L 112.449289 183.1351 
L 113.30776 209.909716 
L 114.595467 253.629737 
L 116.419718 296.083728 
L 117.063571 304.663908 
L 117.17088 305.41429 
L 117.492807 310.009855 
L 117.707425 312.16933 
L 118.13666 316.862103 
L 120.06822 331.478615 
L 120.926691 335.44386 
L 121.570544 339.899667 
L 121.677853 340.105106 
L 121.99978 341.956566 
L 122.536324 344.795288 
L 122.96556 346.54255 
L 123.609413 348.872443 
L 124.145958 350.422203 
L 124.253267 350.552765 
L 124.467884 351.417593 
L 124.682502 352.110245 
L 124.789811 351.542529 
L 125.111738 353.08337 
L 125.219046 353.583746 
L 125.326355 353.553833 
L 125.540973 354.784989 
L 126.077518 356.887179 
L 126.292135 357.373683 
L 126.82868 358.916392 
L 127.257915 359.993176 
L 127.901769 361.6784 
L 129.296784 364.571876 
L 129.404093 364.771651 
L 129.511402 364.58421 
L 129.72602 365.042968 
L 129.833328 365.106535 
L 130.047946 366.319682 
L 130.262564 366.480403 
L 130.6918 367.86482 
L 131.121035 368.754752 
L 131.442962 369.187356 
L 131.764888 369.495527 
L 132.516051 370.981578 
L 133.052595 371.589942 
L 133.374522 372.42692 
L 133.696448 373.003032 
L 134.44761 374.207745 
L 134.554919 374.208963 
L 135.306082 375.355777 
L 135.41339 375.301271 
L 135.520699 375.066878 
L 135.735317 375.866594 
L 135.842626 375.804752 
L 136.486479 377.121185 
L 136.701097 377.236215 
L 137.34495 378.095786 
L 137.452259 378.172895 
L 137.666877 378.521596 
L 138.632657 379.272963 
L 138.847275 379.766921 
L 139.705746 380.299111 
L 139.920364 380.913261 
L 140.349599 381.229618 
L 140.564217 381.431028 
L 140.778835 381.708519 
L 141.20807 382.246912 
L 141.529997 382.580004 
L 141.637306 382.437232 
L 142.17385 383.106391 
L 142.817703 383.790704 
L 142.925012 383.691795 
L 143.246939 384.060015 
L 143.354248 384.080908 
L 143.783483 384.771399 
L 144.320028 385.189549 
L 144.427337 385.067865 
L 144.641954 385.452759 
L 145.07119 385.555509 
L 145.285808 386.045747 
L 145.500426 386.315615 
L 145.607734 386.253857 
L 146.680823 387.390839 
L 147.00275 387.707094 
L 147.110059 387.641842 
L 147.646603 388.075741 
L 147.861221 388.001842 
L 147.96853 388.029707 
L 148.075839 388.222374 
L 148.183148 388.007887 
L 148.397765 388.681907 
L 148.612383 389.005646 
L 148.827001 388.640206 
L 148.93431 388.811886 
L 149.148928 389.140857 
L 149.363545 389.335549 
L 149.90009 388.999931 
L 150.007399 389.143456 
L 150.222016 390.01843 
L 150.329325 389.920129 
L 150.543943 389.941749 
L 150.758561 390.471445 
L 150.973179 390.715025 
L 151.402414 391.009662 
L 151.509723 390.82443 
L 151.724341 391.001911 
L 151.938959 390.282729 
L 152.046267 390.252658 
L 152.368194 390.926351 
L 152.475503 390.823994 
L 152.904739 391.597323 
L 153.119356 390.964956 
L 153.333974 391.481834 
L 153.441283 391.195748 
L 153.655901 391.884493 
L 153.76321 391.746304 
L 153.870518 392.421321 
L 153.977827 392.317654 
L 154.192445 392.797976 
L 154.621681 392.913226 
L 154.943607 393.25929 
L 155.050916 393.364491 
L 155.265534 393.21938 
L 155.587461 393.457678 
L 155.69477 393.197441 
L 155.909387 393.638102 
L 156.016696 393.697922 
L 156.231314 393.610228 
L 156.445932 393.881454 
L 156.553241 393.928084 
L 156.660549 393.75234 
L 156.767858 393.919214 
L 156.982476 393.47288 
L 157.197094 393.738822 
L 157.304403 393.810248 
L 157.519021 394.304627 
L 157.626329 394.455786 
L 157.733638 394.380008 
L 157.948256 394.593019 
L 158.270183 394.328951 
L 158.4848 394.940299 
L 158.699418 394.786438 
L 158.914036 395.008005 
L 159.128654 395.081803 
L 159.45058 394.919397 
L 159.557889 394.917811 
L 159.772507 395.092318 
L 159.879816 395.013085 
L 160.094434 395.521185 
L 160.738287 395.374448 
L 160.845596 395.411575 
L 161.060214 395.646008 
L 161.167523 395.748806 
L 161.38214 395.676662 
L 161.596758 395.955493 
L 161.704067 395.871267 
L 161.918685 396.157233 
L 162.455229 396.315939 
L 162.669847 396.290888 
L 162.777156 396.330204 
L 162.884465 396.128364 
L 162.991774 396.177915 
L 163.206391 395.692667 
L 163.3137 396.081442 
L 163.528318 395.402168 
L 163.635627 395.337325 
L 163.850245 396.157646 
L 164.064862 396.26575 
L 164.601407 397.217698 
L 165.24526 397.47383 
L 165.674496 397.657538 
L 165.889113 397.412803 
L 166.103731 397.706032 
L 167.498747 398.374563 
L 168.035291 397.938861 
L 168.464527 398.563814 
L 168.679144 398.61893 
L 168.893762 398.887662 
L 169.10838 398.911711 
L 169.215689 398.7034 
L 169.430307 398.834018 
L 169.537616 398.788425 
L 169.644924 398.540916 
L 169.752233 398.828408 
L 169.966851 398.696753 
L 170.07416 398.628542 
L 170.610704 399.246816 
L 170.718013 399.179657 
L 170.932631 399.418875 
L 171.469175 399.540745 
L 171.791102 399.581498 
L 172.00572 399.496072 
L 172.113029 399.649805 
L 172.542264 399.449948 
L 172.864191 399.772678 
L 172.9715 399.677655 
L 173.186118 399.814678 
L 173.293426 399.678637 
L 173.508044 400.107979 
L 173.722662 400.13825 
L 173.93728 400.393416 
L 174.688442 400.804168 
L 175.117678 400.863607 
L 175.439604 400.947005 
L 175.654222 401.042431 
L 175.86884 401.005572 
L 175.976149 400.959279 
L 176.190766 401.253447 
L 176.405384 401.322289 
L 176.620002 401.261577 
L 177.049237 400.713133 
L 177.156546 400.353971 
L 177.371164 400.955785 
L 177.478473 401.02206 
L 177.907708 401.600724 
L 178.980797 402.043113 
L 179.517342 401.919025 
L 179.73196 402.196764 
L 179.946577 402.295318 
L 180.268504 402.175036 
L 180.375813 401.826624 
L 180.483122 402.102672 
L 180.697739 401.866204 
L 180.805048 401.464918 
L 180.912357 401.52417 
L 181.126975 401.024091 
L 181.234284 401.175654 
L 181.448902 400.993087 
L 181.556211 400.5181 
L 181.663519 400.895972 
L 181.770828 400.843902 
L 182.092755 401.750679 
L 182.307373 401.652577 
L 182.414682 401.970057 
L 182.52199 401.886924 
L 182.629299 401.997882 
L 182.736608 401.927919 
L 182.843917 402.109473 
L 183.273153 400.859994 
L 183.48777 401.345279 
L 183.702388 400.372396 
L 183.917006 401.644857 
L 184.131624 400.460867 
L 184.45355 401.473173 
L 184.560859 402.184596 
L 184.775477 401.778846 
L 184.990095 400.547242 
L 185.097404 400.73686 
L 185.312021 400.33656 
L 185.41933 400.926101 
L 185.526639 400.496446 
L 185.633948 400.811869 
L 185.741257 400.479089 
L 185.955875 399.568171 
L 186.814346 403.677466 
L 187.243581 403.665337 
L 187.458199 403.587159 
L 187.672817 403.838907 
L 188.638597 403.719542 
L 188.745906 403.569889 
L 188.960524 403.617941 
L 189.067832 403.225324 
L 189.175141 403.384273 
L 189.389759 403.303091 
L 189.497068 403.719813 
L 189.604377 403.639577 
L 190.24823 404.486049 
L 190.462848 404.463306 
L 190.570157 404.305949 
L 190.677466 404.452447 
L 190.784775 404.270615 
L 191.106701 404.407417 
L 191.428628 404.12127 
L 191.750555 404.330823 
L 191.965172 404.104666 
L 192.072481 404.048865 
L 192.17979 404.296904 
L 192.287099 404.255964 
L 192.394408 404.364173 
L 192.501717 404.195558 
L 192.823643 404.765279 
L 193.14557 404.697601 
L 193.252879 404.745837 
L 193.467497 404.366495 
L 193.682114 404.859753 
L 193.789423 404.83457 
L 194.004041 405.096398 
L 194.218659 405.064762 
L 194.433277 405.174338 
L 194.540585 405.215898 
L 194.862512 404.913992 
L 195.291748 405.354974 
L 195.506365 405.30617 
L 195.720983 405.368643 
L 195.935601 405.412948 
L 196.257528 405.501849 
L 196.364837 405.386364 
L 196.901381 405.554674 
L 197.00869 405.576883 
L 197.115999 405.427406 
L 197.437925 405.613891 
L 197.867161 405.696789 
L 198.296396 405.892897 
L 198.832941 406.032725 
L 199.691412 406.143057 
L 199.90603 406.069933 
L 200.120647 406.190522 
L 200.335265 406.198737 
L 200.657192 406.186551 
L 200.87181 406.107933 
L 201.193736 406.310334 
L 201.408354 406.29387 
L 201.515663 406.225049 
L 202.266825 406.680366 
L 202.374134 406.547835 
L 202.588752 406.649983 
L 202.696061 406.656751 
L 203.017987 406.256608 
L 203.125296 406.359156 
L 203.339914 406.775842 
L 203.554532 406.829769 
L 204.091076 406.946761 
L 204.413003 406.766794 
L 204.627621 406.773109 
L 204.842238 406.970334 
L 205.056856 407.082298 
L 205.271474 407.118675 
L 205.486092 406.983367 
L 205.593401 407.127337 
L 205.700709 407.032951 
L 205.808018 407.153901 
L 205.915327 407.09488 
L 206.129945 407.280062 
L 206.344563 407.156576 
L 206.451872 407.270424 
L 206.55918 407.141926 
L 207.310343 407.460961 
L 207.417652 407.441097 
L 207.632269 407.662256 
L 207.739578 407.646093 
L 207.846887 407.516545 
L 207.954196 407.645758 
L 208.168814 407.444199 
L 208.276123 407.465099 
L 208.383432 407.703381 
L 208.598049 407.688921 
L 208.812667 407.817557 
L 209.241903 407.916145 
L 209.349211 407.759033 
L 210.100374 408.049771 
L 210.314991 407.928512 
L 210.529609 408.094293 
L 211.066154 408.10365 
L 211.280771 408.152751 
L 211.602698 407.957543 
L 211.817316 408.06775 
L 212.031934 408.027587 
L 212.246551 407.496921 
L 212.461169 407.655498 
L 212.997714 408.156379 
L 213.105022 407.984597 
L 213.31964 408.247957 
L 213.641567 408.363683 
L 213.963493 408.179545 
L 214.821965 408.534979 
L 214.929273 408.413339 
L 215.143891 408.617011 
L 215.358509 408.596592 
L 215.465818 408.598485 
L 215.573127 408.293511 
L 215.680436 408.53388 
L 215.787745 408.482285 
L 216.324289 408.787544 
L 216.538907 408.769376 
L 216.968142 408.721837 
L 217.18276 408.85699 
L 217.397378 408.844163 
L 217.611996 408.867406 
L 218.792393 409.123939 
L 219.328938 408.714662 
L 219.436247 408.28915 
L 219.758173 408.875255 
L 219.972791 408.781926 
L 220.187409 408.572483 
L 220.294718 408.289425 
L 220.402027 408.376859 
L 220.509335 408.702878 
L 220.723953 408.486281 
L 220.938571 408.436737 
L 221.04588 408.021006 
L 221.260498 408.617133 
L 221.475115 407.953583 
L 221.582424 407.967261 
L 221.689733 407.814421 
L 221.904351 408.120565 
L 222.226278 407.278694 
L 222.333586 408.201646 
L 222.440895 407.896894 
L 222.655513 408.911604 
L 222.870131 409.356588 
L 223.084749 409.435997 
L 223.192058 409.300101 
L 223.728602 409.52491 
L 224.909 409.352122 
L 225.123617 409.694751 
L 226.411324 409.527419 
L 226.518633 409.713611 
L 226.625942 409.55444 
L 226.84056 409.792825 
L 227.162486 409.551441 
L 227.591722 409.892518 
L 227.913648 409.918128 
L 228.342884 409.867554 
L 228.664811 409.842622 
L 229.094046 409.675679 
L 229.523282 409.483265 
L 229.630591 409.583728 
L 229.737899 409.082739 
L 229.952517 409.771144 
L 230.167135 409.702099 
L 230.274444 409.425687 
L 230.489062 409.747535 
L 230.703679 410.103607 
L 230.810988 410.041208 
L 231.025606 410.081079 
L 231.454842 409.732165 
L 231.669459 409.525797 
L 231.776768 408.815486 
L 231.884077 408.948232 
L 232.098695 408.517311 
L 232.206004 408.175918 
L 232.313313 408.524268 
L 232.420622 408.477434 
L 232.52793 408.209847 
L 232.742548 408.98966 
L 232.849857 409.212223 
L 233.064475 408.052422 
L 233.171784 408.093836 
L 233.386401 408.001506 
L 233.708328 408.838452 
L 234.030255 408.615454 
L 234.137564 408.704801 
L 234.352181 409.592267 
L 234.45949 409.48556 
L 234.566799 409.199505 
L 235.103344 410.625851 
L 235.42527 410.633372 
L 235.747197 410.922531 
L 236.39105 411.051863 
L 237.678757 411.142169 
L 237.786066 410.983089 
L 238.000683 411.063573 
L 238.107992 411.124002 
L 238.32261 410.741778 
L 238.429919 410.415339 
L 238.537228 410.4655 
L 238.751846 410.806697 
L 238.859155 410.85412 
L 239.073772 411.075222 
L 239.28839 410.75661 
L 239.717626 411.295632 
L 240.039552 411.362283 
L 240.361479 411.137528 
L 240.898023 411.382432 
L 241.005332 411.282592 
L 241.327259 411.568746 
L 243.044201 411.742072 
L 243.258819 411.778164 
L 243.795363 411.295632 
L 243.902672 411.350256 
L 244.11729 411.579981 
L 244.331908 411.523382 
L 244.761143 411.800708 
L 244.868452 411.596109 
L 245.08307 411.867578 
L 245.726923 412.040403 
L 246.04885 411.940716 
L 246.263468 412.002959 
L 246.370776 411.931996 
L 246.692703 412.043794 
L 246.800012 411.990695 
L 247.121939 412.113731 
L 248.087719 412.191206 
L 248.195027 412.257225 
L 248.302336 412.129114 
L 248.409645 412.176715 
L 248.516954 412.007305 
L 248.731572 412.295221 
L 249.053499 412.347162 
L 249.590043 412.387851 
L 249.697352 412.420832 
L 249.91197 412.366257 
L 250.555823 412.468225 
L 250.770441 412.437308 
L 251.199676 412.433729 
L 251.306985 412.289021 
L 251.414294 411.929747 
L 251.521603 412.221207 
L 251.628912 412.097671 
L 252.272765 412.556087 
L 252.594692 412.523341 
L 252.702001 412.42981 
L 252.809309 412.4968 
L 253.023927 412.438943 
L 253.345854 412.591738 
L 253.453163 412.5676 
L 253.667781 412.142185 
L 253.882398 412.413211 
L 254.097016 412.478439 
L 254.418943 412.08867 
L 254.63356 412.28492 
L 254.740869 412.314868 
L 254.848178 412.624891 
L 254.955487 412.587787 
L 255.277414 412.781689 
L 256.672429 412.926012 
L 256.779738 412.866725 
L 256.994356 412.968004 
L 257.638209 412.88177 
L 257.852827 412.646008 
L 257.960136 412.435981 
L 258.174754 412.565717 
L 258.389371 412.457672 
L 258.49668 412.404172 
L 258.711298 412.85372 
L 259.784387 413.009105 
L 259.891696 412.748119 
L 260.106314 412.990006 
L 260.320931 413.025825 
L 260.42824 412.924745 
L 260.535549 413.004747 
L 260.642858 412.877537 
L 260.750167 412.925981 
L 260.857476 412.641223 
L 260.964785 412.811432 
L 261.286711 412.612543 
L 261.501329 412.887856 
L 262.252491 413.316524 
L 262.574418 413.376104 
L 262.896345 413.401442 
L 263.110962 413.378362 
L 263.432889 412.634276 
L 263.540198 412.987596 
L 263.862125 412.746019 
L 263.969433 413.023198 
L 264.184051 412.803494 
L 264.29136 412.642365 
L 264.398669 412.269808 
L 264.720596 413.004747 
L 265.042522 412.817394 
L 265.149831 412.971898 
L 265.25714 412.90043 
L 265.364449 412.972732 
L 265.471758 413.389685 
L 265.579067 413.314112 
L 265.900993 413.54831 
L 266.115611 413.208899 
L 266.22292 413.449153 
L 266.330229 413.319061 
L 266.437538 413.381147 
L 266.652155 413.29645 
L 266.866773 413.485854 
L 266.974082 413.262986 
L 267.081391 413.465987 
L 267.1887 413.395564 
L 267.296009 413.161838 
L 267.510627 413.388355 
L 267.832553 413.587528 
L 267.939862 413.360698 
L 268.047171 413.642324 
L 268.476407 412.84612 
L 268.583715 412.970476 
L 268.691024 412.451748 
L 268.798333 412.748706 
L 268.905642 412.6252 
L 269.227569 411.434178 
L 269.442186 412.321468 
L 275.105245 412.624305 
L 276.071025 413.313091 
L 276.822187 413.658547 
L 277.787967 413.968363 
L 278.968365 414.254757 
L 279.612218 414.342259 
L 281.221852 414.551223 
L 289.913871 415.169811 
L 303.434791 415.96768 
L 310.9221 416.084913 
L 331.525406 417.141305 
L 357.172229 418.248303 
L 371.337002 418.793968 
L 380.350948 419.101328 
L 389.233273 419.217849 
L 422.928263 420.222783 
L 455.550164 421.032773 
L 475.08038 421.457429 
L 475.08038 421.457429 
" clip-path="url(#pe65f179530)" style="fill: none; stroke: #c83cbc; stroke-width: 1.5; stroke-linecap: square"/>
   </g>
   <g id="line2d_23">
    <path d="M 108.264243 68.269091 
L 116.210969 343.169004 
L 122.028284 351.52727 
L 128.113871 361.252255 
L 136.2115 385.34904 
L 143.152205 392.257922 
L 150.394717 397.668603 
L 157.788131 401.673135 
L 163.689281 402.39237 
L 169.791636 403.367012 
L 176.447302 404.972377 
L 183.438308 406.713575 
L 191.317966 408.955075 
L 199.415595 410.924067 
L 205.585017 411.388339 
L 211.201128 411.484577 
L 218.695145 412.686114 
L 224.713664 412.987318 
L 230.58128 413.200086 
L 236.717169 413.542522 
L 244.077049 414.440147 
L 251.537532 415.280994 
L 258.595606 415.894012 
L 266.424962 416.71214 
L 273.432736 417.193623 
L 281.111189 417.826653 
L 287.884224 418.171208 
L 295.49561 418.695239 
L 301.966839 418.924404 
L 308.035659 419.057529 
L 314.406286 419.250626 
L 320.240368 419.327485 
L 327.114005 419.610465 
L 333.853506 419.853588 
L 339.905559 419.961532 
L 346.997167 420.249376 
L 354.843291 420.638504 
L 360.945645 420.738348 
L 367.55101 420.911383 
" clip-path="url(#pe65f179530)" style="fill: none; stroke: #1c1c84; stroke-width: 1.5; stroke-linecap: square"/>
   </g>
   <g id="line2d_24">
    <path d="M 108.264243 68.269091 
L 108.331311 68.269091 
L 108.515748 72.038103 
L 108.532515 72.038103 
L 108.716952 74.819997 
L 108.733719 74.819997 
L 108.918156 78.397048 
L 108.985224 78.397048 
L 109.538536 94.931261 
L 109.706206 94.931261 
L 110.225983 107.039282 
L 110.326585 107.039282 
L 110.628392 112.409673 
L 110.69546 112.409673 
L 110.997266 118.263503 
L 111.315839 118.263503 
L 111.500276 120.516195 
L 111.651179 120.516195 
L 111.835617 123.283448 
L 111.952986 123.283448 
L 112.238025 129.013536 
L 112.271559 129.013536 
L 112.556598 134.514872 
L 112.573365 134.514872 
L 112.858404 140.650219 
L 112.992541 140.650219 
L 113.176978 143.381023 
L 113.244046 143.381023 
L 113.495551 149.726698 
L 114.015328 149.726698 
L 114.199765 154.355994 
L 114.518339 154.355994 
L 114.702776 158.052727 
L 114.786611 158.052727 
L 114.971048 162.117878 
L 115.205786 162.117878 
L 115.390223 166.016257 
L 115.40699 166.016257 
L 115.591428 171.021514 
L 115.725564 171.021514 
L 116.077671 182.491054 
L 116.178273 182.491054 
L 116.36271 185.702176 
L 116.614215 185.702176 
L 117.050158 200.093686 
L 117.184294 200.093686 
L 117.368731 204.331507 
L 117.65377 211.633936 
L 117.687304 211.633936 
L 117.871741 215.568352 
L 117.888508 215.568352 
L 118.27415 227.099681 
L 118.44182 227.099681 
L 118.626257 230.029498 
L 118.77716 230.029498 
L 118.961597 233.449231 
L 119.011898 233.449231 
L 119.196335 236.715165 
L 119.364005 236.715165 
L 119.548443 239.629566 
L 119.598744 239.629566 
L 119.783181 242.591419 
L 119.90055 242.591419 
L 120.185589 248.443023 
L 120.487395 248.443023 
L 120.671833 250.743699 
L 120.772435 250.743699 
L 120.956872 253.100164 
L 121.19161 253.100164 
L 121.761688 264.140774 
L 121.86229 264.140774 
L 122.046728 265.853299 
L 122.247932 265.853299 
L 122.633573 272.894096 
L 122.700641 272.894096 
L 122.98568 277.390356 
L 123.304254 277.390356 
L 123.488691 278.872094 
L 123.740196 278.872094 
L 124.461177 290.265849 
L 124.528246 290.265849 
L 124.712683 291.932421 
L 125.031256 291.932421 
L 125.215693 293.084377 
L 125.299528 293.084377 
L 125.5678 296.216008 
L 125.701936 296.216008 
L 125.970209 298.816565 
L 125.986976 298.816565 
L 126.171413 299.849743 
L 126.221714 299.849743 
L 126.406151 301.16215 
L 126.540287 301.16215 
L 126.909161 305.204266 
L 126.925928 305.204266 
L 127.194201 307.61598 
L 127.210968 307.61598 
L 127.47924 310.150822 
L 127.915182 310.150822 
L 128.099619 310.973871 
L 128.116386 310.973871 
L 128.300823 312.442187 
L 128.585863 312.442187 
L 128.988271 315.172345 
L 129.474514 315.172345 
L 129.793088 316.775996 
L 129.910457 316.775996 
L 130.195496 318.856461 
L 130.329632 318.856461 
L 130.514069 319.581279 
L 130.547603 319.581279 
L 130.73204 320.624104 
L 130.832642 320.624104 
L 131.167983 322.217676 
L 131.235051 322.217676 
L 131.419488 323.014544 
L 131.453022 323.014544 
L 131.637459 323.926259 
L 131.68776 323.926259 
L 131.872197 324.672449 
L 132.123702 324.672449 
L 132.559645 326.988854 
L 132.593179 326.988854 
L 132.777616 327.763233 
L 132.827917 327.763233 
L 133.012354 328.48978 
L 133.297393 328.48978 
L 133.481831 329.106002 
L 133.548899 329.106002 
L 133.833938 330.455649 
L 133.984841 330.455649 
L 134.26988 331.745868 
L 134.286647 331.745868 
L 134.471084 332.262752 
L 134.538152 332.262752 
L 134.72259 332.930959 
L 134.739357 332.930959 
L 135.091464 334.927286 
L 135.108231 334.927286 
L 135.292668 335.544602 
L 135.477105 335.544602 
L 135.745377 336.608582 
L 135.762144 336.608582 
L 135.946581 337.217694 
L 136.147786 337.217694 
L 136.634029 339.180523 
L 137.01967 339.180523 
L 137.204107 339.545404 
L 137.254408 339.545404 
L 137.438846 340.046225 
L 137.606516 340.046225 
L 137.790953 340.51086 
L 138.260429 340.51086 
L 138.662838 341.906263 
L 138.864042 341.906263 
L 139.232916 343.185452 
L 139.568256 343.185452 
L 139.752693 343.609618 
L 139.786227 343.609618 
L 139.970665 344.072329 
L 140.708413 344.072329 
L 141.010219 344.824007 
L 141.043753 344.824007 
L 141.228191 345.298541 
L 141.379094 345.298541 
L 141.731201 346.577502 
L 141.932405 346.577502 
L 142.116842 346.990306 
L 142.234211 346.990306 
L 142.519251 347.770149 
L 142.586319 347.770149 
L 143.055795 349.252495 
L 143.106096 349.252495 
L 143.290533 349.615871 
L 143.542038 349.615871 
L 143.726476 349.953657 
L 143.743243 349.953657 
L 143.92768 350.298543 
L 143.977981 350.298543 
L 144.162418 350.705433 
L 144.179185 350.705433 
L 144.363622 351.122099 
L 144.380389 351.122099 
L 144.564826 351.433781 
L 144.615127 351.433781 
L 144.883399 352.003686 
L 145.168439 352.003686 
L 145.55408 353.125442 
L 146.073857 353.125442 
L 146.375664 353.80906 
L 146.576868 353.80906 
L 146.778072 354.036845 
L 147.063111 354.036845 
L 147.247548 354.312563 
L 147.34815 354.312563 
L 147.532588 354.657744 
L 147.649957 354.657744 
L 147.918229 355.319033 
L 148.220035 355.319033 
L 148.421239 355.547903 
L 148.890716 355.547903 
L 149.175755 356.109817 
L 149.25959 356.109817 
L 149.444027 356.38164 
L 149.494328 356.38164 
L 149.93027 357.454273 
L 149.980571 357.454273 
L 150.248844 358.009938 
L 150.38298 358.009938 
L 150.567417 358.350855 
L 150.634485 358.350855 
L 150.953058 359.14711 
L 151.355467 359.14711 
L 151.539904 359.402447 
L 151.657273 359.402447 
L 151.992613 360.135343 
L 152.126749 360.135343 
L 152.311186 360.420753 
L 152.327953 360.420753 
L 152.730362 361.239744 
L 152.747129 361.239744 
L 152.948333 361.444282 
L 153.216605 361.444282 
L 153.551945 362.231979 
L 153.80345 362.231979 
L 153.987888 362.511973 
L 154.021422 362.511973 
L 154.289694 362.945813 
L 154.407063 362.945813 
L 154.675335 363.42257 
L 155.37955 363.42257 
L 155.580754 363.581248 
L 155.681356 363.581248 
L 155.865793 363.828026 
L 155.966395 363.828026 
L 156.2179 364.32358 
L 156.352036 364.32358 
L 156.536474 364.586203 
L 156.553241 364.586203 
L 156.754445 364.819133 
L 156.871814 364.819133 
L 157.140086 365.227335 
L 157.592795 365.227335 
L 157.777233 365.495602 
L 157.794 365.495602 
L 158.146107 366.243935 
L 158.263476 366.243935 
L 158.498214 366.712965 
L 158.934156 366.712965 
L 159.219196 367.155083 
L 159.470701 367.155083 
L 159.671905 367.358014 
L 159.722206 367.358014 
L 160.007245 367.759987 
L 160.191682 367.759987 
L 160.54379 368.118946 
L 160.694693 368.118946 
L 160.895897 368.334574 
L 161.030033 368.334574 
L 161.801316 369.630083 
L 162.50553 369.630083 
L 162.824103 369.92691 
L 162.941473 369.92691 
L 163.226512 370.358276 
L 163.260046 370.358276 
L 163.545085 370.725624 
L 163.897192 370.725624 
L 164.299601 371.306258 
L 164.316368 371.306258 
L 164.517572 371.441013 
L 165.355922 371.441013 
L 165.942768 372.245157 
L 166.143972 372.245157 
L 166.412244 372.589739 
L 166.764352 372.589739 
L 166.965556 372.7418 
L 167.099692 372.7418 
L 167.435032 373.268488 
L 167.468566 373.268488 
L 167.854207 373.723734 
L 167.921275 373.723734 
L 168.206315 374.096994 
L 168.357218 374.096994 
L 168.558422 374.273958 
L 168.759626 374.273958 
L 168.96083 374.45921 
L 170.100987 374.556693 
L 170.302191 374.690483 
L 170.352492 374.690483 
L 170.620765 375.00046 
L 170.738134 375.00046 
L 170.939338 375.137971 
L 171.224377 375.137971 
L 171.425581 375.299106 
L 171.693853 375.299106 
L 172.196864 375.995207 
L 172.49867 375.995207 
L 172.766942 376.333569 
L 172.800476 376.333569 
L 173.068749 376.615568 
L 173.152584 376.615568 
L 173.487924 377.085883 
L 173.62206 377.085883 
L 174.141837 377.849568 
L 174.644848 377.849568 
L 174.846052 377.985846 
L 174.996955 377.985846 
L 175.483198 378.571027 
L 175.499965 378.571027 
L 175.70117 378.716359 
L 175.801772 378.716359 
L 176.070044 379.028025 
L 177.176667 379.12653 
L 177.377871 379.260046 
L 178.232989 379.332497 
L 178.501261 379.584448 
L 179.205475 379.674281 
L 179.423446 379.766809 
L 179.641418 379.766809 
L 179.859389 379.885604 
L 179.876156 379.885604 
L 180.177962 380.133926 
L 180.261797 380.133926 
L 180.597137 380.544541 
L 180.86541 380.643781 
L 181.217517 381.031371 
L 181.921731 381.031371 
L 182.206771 381.278922 
L 183.16249 381.351733 
L 183.481064 381.586931 
L 184.202045 381.685419 
L 184.839192 382.159392 
L 184.90626 382.159392 
L 185.174532 382.41043 
L 185.694309 382.505465 
L 185.912281 382.598287 
L 186.297922 382.598287 
L 186.566194 382.829412 
L 186.985369 382.919936 
L 187.203341 383.040056 
L 187.337477 383.040056 
L 187.555448 383.163652 
L 188.4441 383.265338 
L 189.064479 383.62046 
L 189.45012 383.689975 
L 189.751927 383.864292 
L 190.171102 383.864292 
L 190.389073 384.043762 
L 190.539976 384.043762 
L 190.757947 384.155952 
L 191.629832 384.239926 
L 191.898104 384.468143 
L 192.451416 384.522663 
L 192.753222 384.695282 
L 192.954426 384.79821 
L 193.289766 385.010664 
L 193.457436 385.010664 
L 193.658641 385.140807 
L 194.094583 385.23267 
L 194.379622 385.406953 
L 194.698195 385.484681 
L 195.083837 385.63976 
L 195.788051 385.742364 
L 196.106625 385.93859 
L 196.425198 386.015234 
L 196.961742 386.257752 
L 197.280315 386.328249 
L 197.531821 386.394175 
L 198.168967 386.471634 
L 198.420472 386.541915 
L 199.124687 386.613644 
L 199.510328 386.825848 
L 199.711532 386.911265 
L 200.030106 387.065826 
L 200.147475 387.136714 
L 200.499582 387.291747 
L 200.667252 387.359347 
L 200.918757 387.569242 
L 201.153495 387.653201 
L 201.337933 387.73436 
L 201.622972 387.903613 
L 202.276885 387.965719 
L 202.511624 388.043208 
L 202.712828 388.101221 
L 203.165537 388.296146 
L 203.215838 388.296146 
L 203.517644 388.6099 
L 203.903286 388.696645 
L 204.221859 388.843999 
L 204.406296 388.937382 
L 205.211113 389.276148 
L 206.334503 389.362451 
L 206.636309 389.500718 
L 206.736911 389.565506 
L 206.971649 389.656246 
L 207.441125 389.740357 
L 207.877068 389.967597 
L 208.514214 390.035801 
L 208.849554 390.155305 
L 209.352565 390.223081 
L 209.738206 390.337983 
L 210.006478 390.398202 
L 210.475955 390.60403 
L 210.777761 390.714445 
L 211.029266 390.783548 
L 211.549044 390.856146 
L 212.253258 391.135393 
L 212.756269 391.184187 
L 213.007774 391.253992 
L 213.359881 391.32448 
L 213.795823 391.470381 
L 213.913192 391.548616 
L 214.399436 391.789539 
L 214.617407 391.849744 
L 214.852145 391.924077 
L 215.422224 391.969953 
L 215.874933 392.206182 
L 216.042603 392.271179 
L 216.730051 392.562895 
L 217.115692 392.624778 
L 217.383964 392.684602 
L 218.021111 392.883921 
L 219.396006 392.984046 
L 219.999618 393.302623 
L 220.703833 393.374106 
L 221.089474 393.499925 
L 221.944592 393.601834 
L 222.263165 393.717494 
L 223.067982 393.816423 
L 224.14107 394.219419 
L 224.509945 394.286312 
L 224.811751 394.334197 
L 225.784238 394.425736 
L 226.203413 394.536477 
L 226.622588 394.599676 
L 227.092065 394.745533 
L 228.198688 394.818983 
L 228.768766 394.991033 
L 229.556816 395.085063 
L 230.210729 395.28804 
L 230.814342 395.399052 
L 232.407208 395.658923 
L 233.094655 395.716381 
L 233.446763 395.833385 
L 234.653988 395.923607 
L 234.905493 395.988529 
L 235.240833 396.065066 
L 235.559406 396.107774 
L 236.095951 396.196712 
L 236.397757 396.244975 
L 236.850466 396.347476 
L 237.33671 396.477694 
L 237.772652 396.584835 
L 238.091225 396.690209 
L 238.560702 396.782127 
L 239.164314 396.949618 
L 239.851762 397.044498 
L 240.170335 397.085789 
L 241.7129 397.154116 
L 242.132076 397.295745 
L 242.601552 397.392137 
L 243.406369 397.585149 
L 243.808777 397.666413 
L 244.278253 397.740091 
L 244.764497 397.82885 
L 245.351342 397.972765 
L 245.954955 398.072216 
L 246.390897 398.195784 
L 247.313083 398.322331 
L 248.017297 398.415773 
L 248.721512 398.651297 
L 249.073619 398.720641 
L 249.341891 398.776345 
L 250.062873 398.877835 
L 250.58265 398.987788 
L 251.119195 399.097686 
L 251.672506 399.151222 
L 252.577925 399.249937 
L 253.248605 399.329119 
L 253.651014 399.429401 
L 254.12049 399.518408 
L 255.143278 399.621957 
L 255.478618 399.715477 
L 256.434338 399.8195 
L 257.03795 399.969622 
L 257.457126 400.071814 
L 258.027204 400.194358 
L 258.848788 400.298582 
L 259.4524 400.379074 
L 260.40812 400.481862 
L 261.129101 400.600223 
L 261.883617 400.708418 
L 262.721968 400.903198 
L 263.392648 400.970986 
L 263.778289 401.081625 
L 264.365135 401.18172 
L 265.40469 401.329075 
L 266.578381 401.435251 
L 266.964022 401.46755 
L 267.970043 401.539874 
L 268.405985 401.623313 
L 269.294637 401.726795 
L 270.032385 401.810697 
L 270.518629 401.905969 
L 271.004872 401.98006 
L 271.927058 402.059949 
L 272.312699 402.116634 
L 274.408576 402.218432 
L 274.861285 402.243939 
L 275.884073 402.33585 
L 276.336782 402.421008 
L 277.309269 402.618599 
L 278.298523 402.694131 
L 278.684164 402.757252 
L 279.790787 402.85233 
L 280.260263 402.902656 
L 281.249517 403.009518 
L 281.869897 403.100217 
L 283.513064 403.209634 
L 284.250812 403.300685 
L 285.625708 403.390227 
L 286.296388 403.508036 
L 287.738351 403.615383 
L 288.442566 403.671146 
L 289.465354 403.75738 
L 290.001898 403.862695 
L 290.940851 403.957349 
L 292.030707 404.078844 
L 293.690641 404.183713 
L 294.378088 404.27574 
L 296.541033 404.368274 
L 297.463219 404.491328 
L 298.35187 404.576647 
L 298.854881 404.648647 
L 299.877669 404.741551 
L 300.464514 404.858394 
L 301.856176 404.966003 
L 303.566412 405.123051 
L 304.689801 405.225179 
L 305.159278 405.272641 
L 306.433571 405.436389 
L 308.277942 405.530771 
L 309.082759 405.620246 
L 310.826528 405.722125 
L 312.21819 405.846835 
L 313.995494 405.953565 
L 314.817077 405.98931 
L 316.024302 406.086841 
L 316.577614 406.154665 
L 318.17048 406.263338 
L 320.132221 406.461309 
L 320.7526 406.508301 
L 322.060427 406.608465 
L 323.183817 406.685799 
L 325.279694 406.795972 
L 327.241434 406.91189 
L 327.912115 406.973129 
L 329.437913 407.080445 
L 330.946944 407.237831 
L 332.724247 407.329353 
L 333.461996 407.388901 
L 335.138697 407.491688 
L 336.027349 407.581207 
L 337.737584 407.676197 
L 338.626236 407.760495 
L 340.470607 407.870822 
L 342.566484 408.048704 
L 344.109049 408.146625 
L 344.762963 408.177716 
L 347.127112 408.274118 
L 347.86486 408.322023 
L 349.642164 408.43213 
L 358.729885 409.100679 
L 359.283196 409.178319 
L 361.010198 409.284811 
L 363.441415 409.458361 
L 365.587593 409.558541 
L 366.39241 409.609438 
L 368.471519 409.716825 
L 369.678744 409.742943 
L 372.981846 409.85374 
L 373.669293 409.891171 
L 374.826217 409.959089 
L 377.810746 410.06456 
L 379.252709 410.143853 
L 381.600091 410.254961 
L 383.058821 410.334175 
L 385.204998 410.441078 
L 386.496058 410.53178 
L 388.960809 410.632389 
L 390.436307 410.724952 
L 392.414814 410.825985 
L 393.605272 410.905788 
L 395.332274 411.011544 
L 397.528753 411.133654 
L 400.12764 411.241324 
L 401.636671 411.346535 
L 403.196003 411.454515 
L 404.487064 411.545879 
L 405.643987 411.643761 
L 406.432037 411.687571 
L 409.466866 411.797043 
L 411.177102 411.91083 
L 422.86371 412.521798 
L 423.970333 412.560223 
L 427.709377 412.670213 
L 429.48668 412.737897 
L 433.276025 412.844607 
L 434.214978 412.879793 
L 438.960042 413.105232 
L 440.737346 413.213228 
L 442.380513 413.274645 
L 446.153091 413.381487 
L 450.747253 413.590717 
L 453.832383 413.698274 
L 455.47555 413.751786 
L 458.795419 413.8628 
L 461.645811 413.972361 
L 464.244698 414.079136 
L 466.525012 414.138751 
L 470.331124 414.245142 
L 472.192262 414.316511 
L 476.551686 414.426338 
L 478.060717 414.457059 
L 481.833295 414.565905 
L 483.979473 414.658453 
L 488.171226 414.766585 
L 489.814393 414.83225 
L 492.58095 414.935899 
L 494.408555 415.010641 
L 497.979929 415.117078 
L 499.220688 415.163095 
L 501.718973 415.227031 
L 506.430503 415.333036 
L 509.062924 415.438824 
L 513.506183 415.542745 
L 514.98168 415.59302 
L 518.603355 415.701222 
L 520.280056 415.743359 
L 525.293393 415.852947 
L 531.983431 416.00318 
L 536.208719 416.114251 
L 544.625759 416.360024 
L 549.471426 416.469554 
L 556.362668 416.640815 
L 561.811948 416.749433 
L 564.243164 416.787979 
L 568.602588 416.895142 
L 571.084106 416.954112 
L 666.220138 418.793811 
L 673.010779 418.903347 
L 677.537872 418.97727 
L 684.596785 419.086864 
L 686.994467 419.123937 
L 695.126469 419.232633 
L 701.196128 419.306122 
L 707.701729 419.415062 
L 716.504411 419.545602 
L 724.451975 419.656129 
L 744.924498 419.960618 
L 753.056499 420.070045 
L 763.09994 420.204614 
L 772.036758 420.31541 
L 779.833419 420.392345 
L 789.122344 420.502064 
L 794.772828 420.544465 
L 803.91085 420.652874 
L 808.035535 420.684995 
L 816.737615 420.79468 
L 817.726869 420.815691 
L 817.726869 420.815691 
" clip-path="url(#pe65f179530)" style="fill: none; stroke: #ff0000; stroke-width: 1.5; stroke-linecap: square"/>
   </g>
   <g id="patch_3">
    <path d="M 72.791112 443.52 
L 72.791112 50.4 
" style="fill: none; stroke: #000000; stroke-width: 0.8; stroke-linejoin: miter; stroke-linecap: square"/>
   </g>
   <g id="patch_4">
    <path d="M 853.2 443.52 
L 853.2 50.4 
" style="fill: none; stroke: #000000; stroke-width: 0.8; stroke-linejoin: miter; stroke-linecap: square"/>
   </g>
   <g id="patch_5">
    <path d="M 72.791112 443.52 
L 853.2 443.52 
" style="fill: none; stroke: #000000; stroke-width: 0.8; stroke-linejoin: miter; stroke-linecap: square"/>
   </g>
   <g id="patch_6">
    <path d="M 72.791112 50.4 
L 853.2 50.4 
" style="fill: none; stroke: #000000; stroke-width: 0.8; stroke-linejoin: miter; stroke-linecap: square"/>
   </g>
   <g id="text_12">
    <!-- Loss over Used gradients -->
    <g transform="translate(387.314931 44.4) scale(0.12 -0.12)">
     <defs>
      <path id="DejaVuSans-76" d="M 191 3500 
L 800 3500 
L 1894 563 
L 2988 3500 
L 3597 3500 
L 2284 0 
L 1503 0 
L 191 3500 
z
" transform="scale(0.015625)"/>
     </defs>
     <use xlink:href="#DejaVuSans-4c"/>
     <use xlink:href="#DejaVuSans-6f" x="53.962891"/>
     <use xlink:href="#DejaVuSans-73" x="115.144531"/>
     <use xlink:href="#DejaVuSans-73" x="167.244141"/>
     <use xlink:href="#DejaVuSans-20" x="219.34375"/>
     <use xlink:href="#DejaVuSans-6f" x="251.130859"/>
     <use xlink:href="#DejaVuSans-76" x="312.3125"/>
     <use xlink:href="#DejaVuSans-65" x="371.492188"/>
     <use xlink:href="#DejaVuSans-72" x="433.015625"/>
     <use xlink:href="#DejaVuSans-20" x="474.128906"/>
     <use xlink:href="#DejaVuSans-55" x="505.916016"/>
     <use xlink:href="#DejaVuSans-73" x="579.109375"/>
     <use xlink:href="#DejaVuSans-65" x="631.208984"/>
     <use xlink:href="#DejaVuSans-64" x="692.732422"/>
     <use xlink:href="#DejaVuSans-20" x="756.208984"/>
     <use xlink:href="#DejaVuSans-67" x="787.996094"/>
     <use xlink:href="#DejaVuSans-72" x="851.472656"/>
     <use xlink:href="#DejaVuSans-61" x="892.585938"/>
     <use xlink:href="#DejaVuSans-64" x="953.865234"/>
     <use xlink:href="#DejaVuSans-69" x="1017.341797"/>
     <use xlink:href="#DejaVuSans-65" x="1045.125"/>
     <use xlink:href="#DejaVuSans-6e" x="1106.648438"/>
     <use xlink:href="#DejaVuSans-74" x="1170.027344"/>
     <use xlink:href="#DejaVuSans-73" x="1209.236328"/>
    </g>
   </g>
   <g id="legend_1">
    <g id="patch_7">
     <path d="M 777.309375 117.1125 
L 846.2 117.1125 
Q 848.2 117.1125 848.2 115.1125 
L 848.2 57.4 
Q 848.2 55.4 846.2 55.4 
L 777.309375 55.4 
Q 775.309375 55.4 775.309375 57.4 
L 775.309375 115.1125 
Q 775.309375 117.1125 777.309375 117.1125 
z
" style="fill: #ffffff; opacity: 0.8; stroke: #cccccc; stroke-linejoin: miter"/>
    </g>
    <g id="line2d_25">
     <path d="M 779.309375 63.498437 
L 789.309375 63.498437 
L 799.309375 63.498437 
" style="fill: none; stroke: #ffa500; stroke-width: 1.5; stroke-linecap: square"/>
    </g>
    <g id="text_13">
     <!-- SVRG -->
     <g transform="translate(807.309375 66.998437) scale(0.1 -0.1)">
      <defs>
       <path id="DejaVuSans-53" d="M 3425 4513 
L 3425 3897 
Q 3066 4069 2747 4153 
Q 2428 4238 2131 4238 
Q 1616 4238 1336 4038 
Q 1056 3838 1056 3469 
Q 1056 3159 1242 3001 
Q 1428 2844 1947 2747 
L 2328 2669 
Q 3034 2534 3370 2195 
Q 3706 1856 3706 1288 
Q 3706 609 3251 259 
Q 2797 -91 1919 -91 
Q 1588 -91 1214 -16 
Q 841 59 441 206 
L 441 856 
Q 825 641 1194 531 
Q 1563 422 1919 422 
Q 2459 422 2753 634 
Q 3047 847 3047 1241 
Q 3047 1584 2836 1778 
Q 2625 1972 2144 2069 
L 1759 2144 
Q 1053 2284 737 2584 
Q 422 2884 422 3419 
Q 422 4038 858 4394 
Q 1294 4750 2059 4750 
Q 2388 4750 2728 4690 
Q 3069 4631 3425 4513 
z
" transform="scale(0.015625)"/>
       <path id="DejaVuSans-56" d="M 1831 0 
L 50 4666 
L 709 4666 
L 2188 738 
L 3669 4666 
L 4325 4666 
L 2547 0 
L 1831 0 
z
" transform="scale(0.015625)"/>
       <path id="DejaVuSans-52" d="M 2841 2188 
Q 3044 2119 3236 1894 
Q 3428 1669 3622 1275 
L 4263 0 
L 3584 0 
L 2988 1197 
Q 2756 1666 2539 1819 
Q 2322 1972 1947 1972 
L 1259 1972 
L 1259 0 
L 628 0 
L 628 4666 
L 2053 4666 
Q 2853 4666 3247 4331 
Q 3641 3997 3641 3322 
Q 3641 2881 3436 2590 
Q 3231 2300 2841 2188 
z
M 1259 4147 
L 1259 2491 
L 2053 2491 
Q 2509 2491 2742 2702 
Q 2975 2913 2975 3322 
Q 2975 3731 2742 3939 
Q 2509 4147 2053 4147 
L 1259 4147 
z
" transform="scale(0.015625)"/>
       <path id="DejaVuSans-47" d="M 3809 666 
L 3809 1919 
L 2778 1919 
L 2778 2438 
L 4434 2438 
L 4434 434 
Q 4069 175 3628 42 
Q 3188 -91 2688 -91 
Q 1594 -91 976 548 
Q 359 1188 359 2328 
Q 359 3472 976 4111 
Q 1594 4750 2688 4750 
Q 3144 4750 3555 4637 
Q 3966 4525 4313 4306 
L 4313 3634 
Q 3963 3931 3569 4081 
Q 3175 4231 2741 4231 
Q 1884 4231 1454 3753 
Q 1025 3275 1025 2328 
Q 1025 1384 1454 906 
Q 1884 428 2741 428 
Q 3075 428 3337 486 
Q 3600 544 3809 666 
z
" transform="scale(0.015625)"/>
      </defs>
      <use xlink:href="#DejaVuSans-53"/>
      <use xlink:href="#DejaVuSans-56" x="63.476562"/>
      <use xlink:href="#DejaVuSans-52" x="131.884766"/>
      <use xlink:href="#DejaVuSans-47" x="201.367188"/>
     </g>
    </g>
    <g id="line2d_26">
     <path d="M 779.309375 78.176562 
L 789.309375 78.176562 
L 799.309375 78.176562 
" style="fill: none; stroke: #c83cbc; stroke-width: 1.5; stroke-linecap: square"/>
    </g>
    <g id="text_14">
     <!-- L-SVRG -->
     <g transform="translate(807.309375 81.676562) scale(0.1 -0.1)">
      <defs>
       <path id="DejaVuSans-2d" d="M 313 2009 
L 1997 2009 
L 1997 1497 
L 313 1497 
L 313 2009 
z
" transform="scale(0.015625)"/>
      </defs>
      <use xlink:href="#DejaVuSans-4c"/>
      <use xlink:href="#DejaVuSans-2d" x="53.962891"/>
      <use xlink:href="#DejaVuSans-53" x="90.046875"/>
      <use xlink:href="#DejaVuSans-56" x="153.523438"/>
      <use xlink:href="#DejaVuSans-52" x="221.931641"/>
      <use xlink:href="#DejaVuSans-47" x="291.414062"/>
     </g>
    </g>
    <g id="line2d_27">
     <path d="M 779.309375 92.854687 
L 789.309375 92.854687 
L 799.309375 92.854687 
" style="fill: none; stroke: #1c1c84; stroke-width: 1.5; stroke-linecap: square"/>
    </g>
    <g id="text_15">
     <!-- SARAH -->
     <g transform="translate(807.309375 96.354687) scale(0.1 -0.1)">
      <defs>
       <path id="DejaVuSans-41" d="M 2188 4044 
L 1331 1722 
L 3047 1722 
L 2188 4044 
z
M 1831 4666 
L 2547 4666 
L 4325 0 
L 3669 0 
L 3244 1197 
L 1141 1197 
L 716 0 
L 50 0 
L 1831 4666 
z
" transform="scale(0.015625)"/>
       <path id="DejaVuSans-48" d="M 628 4666 
L 1259 4666 
L 1259 2753 
L 3553 2753 
L 3553 4666 
L 4184 4666 
L 4184 0 
L 3553 0 
L 3553 2222 
L 1259 2222 
L 1259 0 
L 628 0 
L 628 4666 
z
" transform="scale(0.015625)"/>
      </defs>
      <use xlink:href="#DejaVuSans-53"/>
      <use xlink:href="#DejaVuSans-41" x="65.351562"/>
      <use xlink:href="#DejaVuSans-52" x="133.759766"/>
      <use xlink:href="#DejaVuSans-41" x="199.242188"/>
      <use xlink:href="#DejaVuSans-48" x="267.650391"/>
     </g>
    </g>
    <g id="line2d_28">
     <path d="M 779.309375 107.532812 
L 789.309375 107.532812 
L 799.309375 107.532812 
" style="fill: none; stroke: #ff0000; stroke-width: 1.5; stroke-linecap: square"/>
    </g>
    <g id="text_16">
     <!-- PAGE -->
     <g transform="translate(807.309375 111.032812) scale(0.1 -0.1)">
      <defs>
       <path id="DejaVuSans-50" d="M 1259 4147 
L 1259 2394 
L 2053 2394 
Q 2494 2394 2734 2622 
Q 2975 2850 2975 3272 
Q 2975 3691 2734 3919 
Q 2494 4147 2053 4147 
L 1259 4147 
z
M 628 4666 
L 2053 4666 
Q 2838 4666 3239 4311 
Q 3641 3956 3641 3272 
Q 3641 2581 3239 2228 
Q 2838 1875 2053 1875 
L 1259 1875 
L 1259 0 
L 628 0 
L 628 4666 
z
" transform="scale(0.015625)"/>
       <path id="DejaVuSans-45" d="M 628 4666 
L 3578 4666 
L 3578 4134 
L 1259 4134 
L 1259 2753 
L 3481 2753 
L 3481 2222 
L 1259 2222 
L 1259 531 
L 3634 531 
L 3634 0 
L 628 0 
L 628 4666 
z
" transform="scale(0.015625)"/>
      </defs>
      <use xlink:href="#DejaVuSans-50"/>
      <use xlink:href="#DejaVuSans-41" x="53.927734"/>
      <use xlink:href="#DejaVuSans-47" x="120.585938"/>
      <use xlink:href="#DejaVuSans-45" x="198.076172"/>
     </g>
    </g>
   </g>
  </g>
  <g id="text_17">
   <!-- Mushrooms | OneLayerFC -->
   <g transform="translate(342.196562 20.779063) scale(0.14 -0.14)">
    <defs>
     <path id="DejaVuSans-4d" d="M 628 4666 
L 1569 4666 
L 2759 1491 
L 3956 4666 
L 4897 4666 
L 4897 0 
L 4281 0 
L 4281 4097 
L 3078 897 
L 2444 897 
L 1241 4097 
L 1241 0 
L 628 0 
L 628 4666 
z
" transform="scale(0.015625)"/>
     <path id="DejaVuSans-75" d="M 544 1381 
L 544 3500 
L 1119 3500 
L 1119 1403 
Q 1119 906 1312 657 
Q 1506 409 1894 409 
Q 2359 409 2629 706 
Q 2900 1003 2900 1516 
L 2900 3500 
L 3475 3500 
L 3475 0 
L 2900 0 
L 2900 538 
Q 2691 219 2414 64 
Q 2138 -91 1772 -91 
Q 1169 -91 856 284 
Q 544 659 544 1381 
z
M 1991 3584 
L 1991 3584 
z
" transform="scale(0.015625)"/>
     <path id="DejaVuSans-68" d="M 3513 2113 
L 3513 0 
L 2938 0 
L 2938 2094 
Q 2938 2591 2744 2837 
Q 2550 3084 2163 3084 
Q 1697 3084 1428 2787 
Q 1159 2491 1159 1978 
L 1159 0 
L 581 0 
L 581 4863 
L 1159 4863 
L 1159 2956 
Q 1366 3272 1645 3428 
Q 1925 3584 2291 3584 
Q 2894 3584 3203 3211 
Q 3513 2838 3513 2113 
z
" transform="scale(0.015625)"/>
     <path id="DejaVuSans-6d" d="M 3328 2828 
Q 3544 3216 3844 3400 
Q 4144 3584 4550 3584 
Q 5097 3584 5394 3201 
Q 5691 2819 5691 2113 
L 5691 0 
L 5113 0 
L 5113 2094 
Q 5113 2597 4934 2840 
Q 4756 3084 4391 3084 
Q 3944 3084 3684 2787 
Q 3425 2491 3425 1978 
L 3425 0 
L 2847 0 
L 2847 2094 
Q 2847 2600 2669 2842 
Q 2491 3084 2119 3084 
Q 1678 3084 1418 2786 
Q 1159 2488 1159 1978 
L 1159 0 
L 581 0 
L 581 3500 
L 1159 3500 
L 1159 2956 
Q 1356 3278 1631 3431 
Q 1906 3584 2284 3584 
Q 2666 3584 2933 3390 
Q 3200 3197 3328 2828 
z
" transform="scale(0.015625)"/>
     <path id="DejaVuSans-7c" d="M 1344 4891 
L 1344 -1509 
L 813 -1509 
L 813 4891 
L 1344 4891 
z
" transform="scale(0.015625)"/>
     <path id="DejaVuSans-4f" d="M 2522 4238 
Q 1834 4238 1429 3725 
Q 1025 3213 1025 2328 
Q 1025 1447 1429 934 
Q 1834 422 2522 422 
Q 3209 422 3611 934 
Q 4013 1447 4013 2328 
Q 4013 3213 3611 3725 
Q 3209 4238 2522 4238 
z
M 2522 4750 
Q 3503 4750 4090 4092 
Q 4678 3434 4678 2328 
Q 4678 1225 4090 567 
Q 3503 -91 2522 -91 
Q 1538 -91 948 565 
Q 359 1222 359 2328 
Q 359 3434 948 4092 
Q 1538 4750 2522 4750 
z
" transform="scale(0.015625)"/>
     <path id="DejaVuSans-79" d="M 2059 -325 
Q 1816 -950 1584 -1140 
Q 1353 -1331 966 -1331 
L 506 -1331 
L 506 -850 
L 844 -850 
Q 1081 -850 1212 -737 
Q 1344 -625 1503 -206 
L 1606 56 
L 191 3500 
L 800 3500 
L 1894 763 
L 2988 3500 
L 3597 3500 
L 2059 -325 
z
" transform="scale(0.015625)"/>
     <path id="DejaVuSans-46" d="M 628 4666 
L 3309 4666 
L 3309 4134 
L 1259 4134 
L 1259 2759 
L 3109 2759 
L 3109 2228 
L 1259 2228 
L 1259 0 
L 628 0 
L 628 4666 
z
" transform="scale(0.015625)"/>
     <path id="DejaVuSans-43" d="M 4122 4306 
L 4122 3641 
Q 3803 3938 3442 4084 
Q 3081 4231 2675 4231 
Q 1875 4231 1450 3742 
Q 1025 3253 1025 2328 
Q 1025 1406 1450 917 
Q 1875 428 2675 428 
Q 3081 428 3442 575 
Q 3803 722 4122 1019 
L 4122 359 
Q 3791 134 3420 21 
Q 3050 -91 2638 -91 
Q 1578 -91 968 557 
Q 359 1206 359 2328 
Q 359 3453 968 4101 
Q 1578 4750 2638 4750 
Q 3056 4750 3426 4639 
Q 3797 4528 4122 4306 
z
" transform="scale(0.015625)"/>
    </defs>
    <use xlink:href="#DejaVuSans-4d"/>
    <use xlink:href="#DejaVuSans-75" x="86.279297"/>
    <use xlink:href="#DejaVuSans-73" x="149.658203"/>
    <use xlink:href="#DejaVuSans-68" x="201.757812"/>
    <use xlink:href="#DejaVuSans-72" x="265.136719"/>
    <use xlink:href="#DejaVuSans-6f" x="304"/>
    <use xlink:href="#DejaVuSans-6f" x="365.181641"/>
    <use xlink:href="#DejaVuSans-6d" x="426.363281"/>
    <use xlink:href="#DejaVuSans-73" x="523.775391"/>
    <use xlink:href="#DejaVuSans-20" x="575.875"/>
    <use xlink:href="#DejaVuSans-7c" x="607.662109"/>
    <use xlink:href="#DejaVuSans-20" x="641.353516"/>
    <use xlink:href="#DejaVuSans-4f" x="673.140625"/>
    <use xlink:href="#DejaVuSans-6e" x="751.851562"/>
    <use xlink:href="#DejaVuSans-65" x="815.230469"/>
    <use xlink:href="#DejaVuSans-4c" x="876.753906"/>
    <use xlink:href="#DejaVuSans-61" x="932.466797"/>
    <use xlink:href="#DejaVuSans-79" x="993.746094"/>
    <use xlink:href="#DejaVuSans-65" x="1052.925781"/>
    <use xlink:href="#DejaVuSans-72" x="1114.449219"/>
    <use xlink:href="#DejaVuSans-46" x="1155.5625"/>
    <use xlink:href="#DejaVuSans-43" x="1213.082031"/>
   </g>
  </g>
 </g>
 <defs>
  <clipPath id="pe65f179530">
   <rect x="72.791112" y="50.4" width="780.408888" height="393.12"/>
  </clipPath>
 </defs>
</svg>
