<?xml version="1.0" encoding="utf-8" standalone="no"?>
<!DOCTYPE svg PUBLIC "-//W3C//DTD SVG 1.1//EN"
  "http://www.w3.org/Graphics/SVG/1.1/DTD/svg11.dtd">
<svg xmlns:xlink="http://www.w3.org/1999/xlink" width="864pt" height="504pt" viewBox="0 0 864 504" xmlns="http://www.w3.org/2000/svg" version="1.1">
 <metadata>
  <rdf:RDF xmlns:dc="http://purl.org/dc/elements/1.1/" xmlns:cc="http://creativecommons.org/ns#" xmlns:rdf="http://www.w3.org/1999/02/22-rdf-syntax-ns#">
   <cc:Work>
    <dc:type rdf:resource="http://purl.org/dc/dcmitype/StillImage"/>
    <dc:date>2023-12-18T05:34:13.981470</dc:date>
    <dc:format>image/svg+xml</dc:format>
    <dc:creator>
     <cc:Agent>
      <dc:title>Matplotlib v3.8.2, https://matplotlib.org/</dc:title>
     </cc:Agent>
    </dc:creator>
   </cc:Work>
  </rdf:RDF>
 </metadata>
 <defs>
  <style type="text/css">*{stroke-linejoin: round; stroke-linecap: butt}</style>
 </defs>
 <g id="figure_1">
  <g id="patch_1">
   <path d="M 0 504 
L 864 504 
L 864 0 
L 0 0 
z
" style="fill: #ffffff"/>
  </g>
  <g id="axes_1">
   <g id="patch_2">
    <path d="M 47.72 443.52 
L 853.2 443.52 
L 853.2 50.4 
L 47.72 50.4 
z
" style="fill: #ffffff"/>
   </g>
   <g id="PathCollection_1">
    <defs>
     <path id="m92fc319896" d="M 0 1.936492 
C 0.513564 1.936492 1.006162 1.732451 1.369306 1.369306 
C 1.732451 1.006162 1.936492 0.513564 1.936492 0 
C 1.936492 -0.513564 1.732451 -1.006162 1.369306 -1.369306 
C 1.006162 -1.732451 0.513564 -1.936492 0 -1.936492 
C -0.513564 -1.936492 -1.006162 -1.732451 -1.369306 -1.369306 
C -1.732451 -1.006162 -1.936492 -0.513564 -1.936492 0 
C -1.936492 0.513564 -1.732451 1.006162 -1.369306 1.369306 
C -1.006162 1.732451 -0.513564 1.936492 0 1.936492 
z
" style="stroke: #ffa500"/>
    </defs>
    <g clip-path="url(#p9bd61c5ce9)">
     <use xlink:href="#m92fc319896" x="85.353901" y="68.269091" style="fill: #ffa500; stroke: #ffa500"/>
    </g>
   </g>
   <g id="PathCollection_2">
    <defs>
     <path id="m36107eb438" d="M 0 1.936492 
C 0.513564 1.936492 1.006162 1.732451 1.369306 1.369306 
C 1.732451 1.006162 1.936492 0.513564 1.936492 0 
C 1.936492 -0.513564 1.732451 -1.006162 1.369306 -1.369306 
C 1.006162 -1.732451 0.513564 -1.936492 0 -1.936492 
C -0.513564 -1.936492 -1.006162 -1.732451 -1.369306 -1.369306 
C -1.732451 -1.006162 -1.936492 -0.513564 -1.936492 0 
C -1.936492 0.513564 -1.732451 1.006162 -1.369306 1.369306 
C -1.006162 1.732451 -0.513564 1.936492 0 1.936492 
z
" style="stroke: #c83cbc"/>
    </defs>
    <g clip-path="url(#p9bd61c5ce9)">
     <use xlink:href="#m36107eb438" x="163.741146" y="68.269091" style="fill: #c83cbc; stroke: #c83cbc"/>
    </g>
   </g>
   <g id="PathCollection_3">
    <defs>
     <path id="m08ce6c8e7e" d="M 0 1.936492 
C 0.513564 1.936492 1.006162 1.732451 1.369306 1.369306 
C 1.732451 1.006162 1.936492 0.513564 1.936492 0 
C 1.936492 -0.513564 1.732451 -1.006162 1.369306 -1.369306 
C 1.006162 -1.732451 0.513564 -1.936492 0 -1.936492 
C -0.513564 -1.936492 -1.006162 -1.732451 -1.369306 -1.369306 
C -1.732451 -1.006162 -1.936492 -0.513564 -1.936492 0 
C -1.936492 0.513564 -1.732451 1.006162 -1.369306 1.369306 
C -1.006162 1.732451 -0.513564 1.936492 0 1.936492 
z
" style="stroke: #1c1c84"/>
    </defs>
    <g clip-path="url(#p9bd61c5ce9)">
     <use xlink:href="#m08ce6c8e7e" x="85.256646" y="68.269091" style="fill: #1c1c84; stroke: #1c1c84"/>
    </g>
   </g>
   <g id="PathCollection_4">
    <defs>
     <path id="mbc3c1b5eaf" d="M 0 1.936492 
C 0.513564 1.936492 1.006162 1.732451 1.369306 1.369306 
C 1.732451 1.006162 1.936492 0.513564 1.936492 0 
C 1.936492 -0.513564 1.732451 -1.006162 1.369306 -1.369306 
C 1.006162 -1.732451 0.513564 -1.936492 0 -1.936492 
C -0.513564 -1.936492 -1.006162 -1.732451 -1.369306 -1.369306 
C -1.732451 -1.006162 -1.936492 -0.513564 -1.936492 0 
C -1.936492 0.513564 -1.732451 1.006162 -1.369306 1.369306 
C -1.006162 1.732451 -0.513564 1.936492 0 1.936492 
z
" style="stroke: #ff0000"/>
    </defs>
    <g clip-path="url(#p9bd61c5ce9)">
     <use xlink:href="#mbc3c1b5eaf" x="816.587273" y="68.269091" style="fill: #ff0000; stroke: #ff0000"/>
    </g>
   </g>
   <g id="matplotlib.axis_1">
    <g id="xtick_1">
     <g id="line2d_1">
      <path d="M 84.332727 443.52 
L 84.332727 50.4 
" clip-path="url(#p9bd61c5ce9)" style="fill: none; stroke: #b0b0b0; stroke-width: 0.8; stroke-linecap: square"/>
     </g>
     <g id="line2d_2">
      <defs>
       <path id="mb927699184" d="M 0 0 
L 0 3.5 
" style="stroke: #000000; stroke-width: 0.8"/>
      </defs>
      <g>
       <use xlink:href="#mb927699184" x="84.332727" y="443.52" style="stroke: #000000; stroke-width: 0.8"/>
      </g>
     </g>
     <g id="text_1">
      <!-- 0 -->
      <g transform="translate(81.151477 458.118438) scale(0.1 -0.1)">
       <defs>
        <path id="DejaVuSans-30" d="M 2034 4250 
Q 1547 4250 1301 3770 
Q 1056 3291 1056 2328 
Q 1056 1369 1301 889 
Q 1547 409 2034 409 
Q 2525 409 2770 889 
Q 3016 1369 3016 2328 
Q 3016 3291 2770 3770 
Q 2525 4250 2034 4250 
z
M 2034 4750 
Q 2819 4750 3233 4129 
Q 3647 3509 3647 2328 
Q 3647 1150 3233 529 
Q 2819 -91 2034 -91 
Q 1250 -91 836 529 
Q 422 1150 422 2328 
Q 422 3509 836 4129 
Q 1250 4750 2034 4750 
z
" transform="scale(0.015625)"/>
       </defs>
       <use xlink:href="#DejaVuSans-30"/>
      </g>
     </g>
    </g>
    <g id="xtick_2">
     <g id="line2d_3">
      <path d="M 205.901035 443.52 
L 205.901035 50.4 
" clip-path="url(#p9bd61c5ce9)" style="fill: none; stroke: #b0b0b0; stroke-width: 0.8; stroke-linecap: square"/>
     </g>
     <g id="line2d_4">
      <g>
       <use xlink:href="#mb927699184" x="205.901035" y="443.52" style="stroke: #000000; stroke-width: 0.8"/>
      </g>
     </g>
     <g id="text_2">
      <!-- 5000 -->
      <g transform="translate(193.176035 458.118438) scale(0.1 -0.1)">
       <defs>
        <path id="DejaVuSans-35" d="M 691 4666 
L 3169 4666 
L 3169 4134 
L 1269 4134 
L 1269 2991 
Q 1406 3038 1543 3061 
Q 1681 3084 1819 3084 
Q 2600 3084 3056 2656 
Q 3513 2228 3513 1497 
Q 3513 744 3044 326 
Q 2575 -91 1722 -91 
Q 1428 -91 1123 -41 
Q 819 9 494 109 
L 494 744 
Q 775 591 1075 516 
Q 1375 441 1709 441 
Q 2250 441 2565 725 
Q 2881 1009 2881 1497 
Q 2881 1984 2565 2268 
Q 2250 2553 1709 2553 
Q 1456 2553 1204 2497 
Q 953 2441 691 2322 
L 691 4666 
z
" transform="scale(0.015625)"/>
       </defs>
       <use xlink:href="#DejaVuSans-35"/>
       <use xlink:href="#DejaVuSans-30" x="63.623047"/>
       <use xlink:href="#DejaVuSans-30" x="127.246094"/>
       <use xlink:href="#DejaVuSans-30" x="190.869141"/>
      </g>
     </g>
    </g>
    <g id="xtick_3">
     <g id="line2d_5">
      <path d="M 327.469343 443.52 
L 327.469343 50.4 
" clip-path="url(#p9bd61c5ce9)" style="fill: none; stroke: #b0b0b0; stroke-width: 0.8; stroke-linecap: square"/>
     </g>
     <g id="line2d_6">
      <g>
       <use xlink:href="#mb927699184" x="327.469343" y="443.52" style="stroke: #000000; stroke-width: 0.8"/>
      </g>
     </g>
     <g id="text_3">
      <!-- 10000 -->
      <g transform="translate(311.563093 458.118438) scale(0.1 -0.1)">
       <defs>
        <path id="DejaVuSans-31" d="M 794 531 
L 1825 531 
L 1825 4091 
L 703 3866 
L 703 4441 
L 1819 4666 
L 2450 4666 
L 2450 531 
L 3481 531 
L 3481 0 
L 794 0 
L 794 531 
z
" transform="scale(0.015625)"/>
       </defs>
       <use xlink:href="#DejaVuSans-31"/>
       <use xlink:href="#DejaVuSans-30" x="63.623047"/>
       <use xlink:href="#DejaVuSans-30" x="127.246094"/>
       <use xlink:href="#DejaVuSans-30" x="190.869141"/>
       <use xlink:href="#DejaVuSans-30" x="254.492188"/>
      </g>
     </g>
    </g>
    <g id="xtick_4">
     <g id="line2d_7">
      <path d="M 449.037651 443.52 
L 449.037651 50.4 
" clip-path="url(#p9bd61c5ce9)" style="fill: none; stroke: #b0b0b0; stroke-width: 0.8; stroke-linecap: square"/>
     </g>
     <g id="line2d_8">
      <g>
       <use xlink:href="#mb927699184" x="449.037651" y="443.52" style="stroke: #000000; stroke-width: 0.8"/>
      </g>
     </g>
     <g id="text_4">
      <!-- 15000 -->
      <g transform="translate(433.131401 458.118438) scale(0.1 -0.1)">
       <use xlink:href="#DejaVuSans-31"/>
       <use xlink:href="#DejaVuSans-35" x="63.623047"/>
       <use xlink:href="#DejaVuSans-30" x="127.246094"/>
       <use xlink:href="#DejaVuSans-30" x="190.869141"/>
       <use xlink:href="#DejaVuSans-30" x="254.492188"/>
      </g>
     </g>
    </g>
    <g id="xtick_5">
     <g id="line2d_9">
      <path d="M 570.605959 443.52 
L 570.605959 50.4 
" clip-path="url(#p9bd61c5ce9)" style="fill: none; stroke: #b0b0b0; stroke-width: 0.8; stroke-linecap: square"/>
     </g>
     <g id="line2d_10">
      <g>
       <use xlink:href="#mb927699184" x="570.605959" y="443.52" style="stroke: #000000; stroke-width: 0.8"/>
      </g>
     </g>
     <g id="text_5">
      <!-- 20000 -->
      <g transform="translate(554.699709 458.118438) scale(0.1 -0.1)">
       <defs>
        <path id="DejaVuSans-32" d="M 1228 531 
L 3431 531 
L 3431 0 
L 469 0 
L 469 531 
Q 828 903 1448 1529 
Q 2069 2156 2228 2338 
Q 2531 2678 2651 2914 
Q 2772 3150 2772 3378 
Q 2772 3750 2511 3984 
Q 2250 4219 1831 4219 
Q 1534 4219 1204 4116 
Q 875 4013 500 3803 
L 500 4441 
Q 881 4594 1212 4672 
Q 1544 4750 1819 4750 
Q 2544 4750 2975 4387 
Q 3406 4025 3406 3419 
Q 3406 3131 3298 2873 
Q 3191 2616 2906 2266 
Q 2828 2175 2409 1742 
Q 1991 1309 1228 531 
z
" transform="scale(0.015625)"/>
       </defs>
       <use xlink:href="#DejaVuSans-32"/>
       <use xlink:href="#DejaVuSans-30" x="63.623047"/>
       <use xlink:href="#DejaVuSans-30" x="127.246094"/>
       <use xlink:href="#DejaVuSans-30" x="190.869141"/>
       <use xlink:href="#DejaVuSans-30" x="254.492188"/>
      </g>
     </g>
    </g>
    <g id="xtick_6">
     <g id="line2d_11">
      <path d="M 692.174266 443.52 
L 692.174266 50.4 
" clip-path="url(#p9bd61c5ce9)" style="fill: none; stroke: #b0b0b0; stroke-width: 0.8; stroke-linecap: square"/>
     </g>
     <g id="line2d_12">
      <g>
       <use xlink:href="#mb927699184" x="692.174266" y="443.52" style="stroke: #000000; stroke-width: 0.8"/>
      </g>
     </g>
     <g id="text_6">
      <!-- 25000 -->
      <g transform="translate(676.268016 458.118438) scale(0.1 -0.1)">
       <use xlink:href="#DejaVuSans-32"/>
       <use xlink:href="#DejaVuSans-35" x="63.623047"/>
       <use xlink:href="#DejaVuSans-30" x="127.246094"/>
       <use xlink:href="#DejaVuSans-30" x="190.869141"/>
       <use xlink:href="#DejaVuSans-30" x="254.492188"/>
      </g>
     </g>
    </g>
    <g id="xtick_7">
     <g id="line2d_13">
      <path d="M 813.742574 443.52 
L 813.742574 50.4 
" clip-path="url(#p9bd61c5ce9)" style="fill: none; stroke: #b0b0b0; stroke-width: 0.8; stroke-linecap: square"/>
     </g>
     <g id="line2d_14">
      <g>
       <use xlink:href="#mb927699184" x="813.742574" y="443.52" style="stroke: #000000; stroke-width: 0.8"/>
      </g>
     </g>
     <g id="text_7">
      <!-- 30000 -->
      <g transform="translate(797.836324 458.118438) scale(0.1 -0.1)">
       <defs>
        <path id="DejaVuSans-33" d="M 2597 2516 
Q 3050 2419 3304 2112 
Q 3559 1806 3559 1356 
Q 3559 666 3084 287 
Q 2609 -91 1734 -91 
Q 1441 -91 1130 -33 
Q 819 25 488 141 
L 488 750 
Q 750 597 1062 519 
Q 1375 441 1716 441 
Q 2309 441 2620 675 
Q 2931 909 2931 1356 
Q 2931 1769 2642 2001 
Q 2353 2234 1838 2234 
L 1294 2234 
L 1294 2753 
L 1863 2753 
Q 2328 2753 2575 2939 
Q 2822 3125 2822 3475 
Q 2822 3834 2567 4026 
Q 2313 4219 1838 4219 
Q 1578 4219 1281 4162 
Q 984 4106 628 3988 
L 628 4550 
Q 988 4650 1302 4700 
Q 1616 4750 1894 4750 
Q 2613 4750 3031 4423 
Q 3450 4097 3450 3541 
Q 3450 3153 3228 2886 
Q 3006 2619 2597 2516 
z
" transform="scale(0.015625)"/>
       </defs>
       <use xlink:href="#DejaVuSans-33"/>
       <use xlink:href="#DejaVuSans-30" x="63.623047"/>
       <use xlink:href="#DejaVuSans-30" x="127.246094"/>
       <use xlink:href="#DejaVuSans-30" x="190.869141"/>
       <use xlink:href="#DejaVuSans-30" x="254.492188"/>
      </g>
     </g>
    </g>
    <g id="text_8">
     <!-- Iterations -->
     <g transform="translate(426.646719 471.796562) scale(0.1 -0.1)">
      <defs>
       <path id="DejaVuSans-49" d="M 628 4666 
L 1259 4666 
L 1259 0 
L 628 0 
L 628 4666 
z
" transform="scale(0.015625)"/>
       <path id="DejaVuSans-74" d="M 1172 4494 
L 1172 3500 
L 2356 3500 
L 2356 3053 
L 1172 3053 
L 1172 1153 
Q 1172 725 1289 603 
Q 1406 481 1766 481 
L 2356 481 
L 2356 0 
L 1766 0 
Q 1100 0 847 248 
Q 594 497 594 1153 
L 594 3053 
L 172 3053 
L 172 3500 
L 594 3500 
L 594 4494 
L 1172 4494 
z
" transform="scale(0.015625)"/>
       <path id="DejaVuSans-65" d="M 3597 1894 
L 3597 1613 
L 953 1613 
Q 991 1019 1311 708 
Q 1631 397 2203 397 
Q 2534 397 2845 478 
Q 3156 559 3463 722 
L 3463 178 
Q 3153 47 2828 -22 
Q 2503 -91 2169 -91 
Q 1331 -91 842 396 
Q 353 884 353 1716 
Q 353 2575 817 3079 
Q 1281 3584 2069 3584 
Q 2775 3584 3186 3129 
Q 3597 2675 3597 1894 
z
M 3022 2063 
Q 3016 2534 2758 2815 
Q 2500 3097 2075 3097 
Q 1594 3097 1305 2825 
Q 1016 2553 972 2059 
L 3022 2063 
z
" transform="scale(0.015625)"/>
       <path id="DejaVuSans-72" d="M 2631 2963 
Q 2534 3019 2420 3045 
Q 2306 3072 2169 3072 
Q 1681 3072 1420 2755 
Q 1159 2438 1159 1844 
L 1159 0 
L 581 0 
L 581 3500 
L 1159 3500 
L 1159 2956 
Q 1341 3275 1631 3429 
Q 1922 3584 2338 3584 
Q 2397 3584 2469 3576 
Q 2541 3569 2628 3553 
L 2631 2963 
z
" transform="scale(0.015625)"/>
       <path id="DejaVuSans-61" d="M 2194 1759 
Q 1497 1759 1228 1600 
Q 959 1441 959 1056 
Q 959 750 1161 570 
Q 1363 391 1709 391 
Q 2188 391 2477 730 
Q 2766 1069 2766 1631 
L 2766 1759 
L 2194 1759 
z
M 3341 1997 
L 3341 0 
L 2766 0 
L 2766 531 
Q 2569 213 2275 61 
Q 1981 -91 1556 -91 
Q 1019 -91 701 211 
Q 384 513 384 1019 
Q 384 1609 779 1909 
Q 1175 2209 1959 2209 
L 2766 2209 
L 2766 2266 
Q 2766 2663 2505 2880 
Q 2244 3097 1772 3097 
Q 1472 3097 1187 3025 
Q 903 2953 641 2809 
L 641 3341 
Q 956 3463 1253 3523 
Q 1550 3584 1831 3584 
Q 2591 3584 2966 3190 
Q 3341 2797 3341 1997 
z
" transform="scale(0.015625)"/>
       <path id="DejaVuSans-69" d="M 603 3500 
L 1178 3500 
L 1178 0 
L 603 0 
L 603 3500 
z
M 603 4863 
L 1178 4863 
L 1178 4134 
L 603 4134 
L 603 4863 
z
" transform="scale(0.015625)"/>
       <path id="DejaVuSans-6f" d="M 1959 3097 
Q 1497 3097 1228 2736 
Q 959 2375 959 1747 
Q 959 1119 1226 758 
Q 1494 397 1959 397 
Q 2419 397 2687 759 
Q 2956 1122 2956 1747 
Q 2956 2369 2687 2733 
Q 2419 3097 1959 3097 
z
M 1959 3584 
Q 2709 3584 3137 3096 
Q 3566 2609 3566 1747 
Q 3566 888 3137 398 
Q 2709 -91 1959 -91 
Q 1206 -91 779 398 
Q 353 888 353 1747 
Q 353 2609 779 3096 
Q 1206 3584 1959 3584 
z
" transform="scale(0.015625)"/>
       <path id="DejaVuSans-6e" d="M 3513 2113 
L 3513 0 
L 2938 0 
L 2938 2094 
Q 2938 2591 2744 2837 
Q 2550 3084 2163 3084 
Q 1697 3084 1428 2787 
Q 1159 2491 1159 1978 
L 1159 0 
L 581 0 
L 581 3500 
L 1159 3500 
L 1159 2956 
Q 1366 3272 1645 3428 
Q 1925 3584 2291 3584 
Q 2894 3584 3203 3211 
Q 3513 2838 3513 2113 
z
" transform="scale(0.015625)"/>
       <path id="DejaVuSans-73" d="M 2834 3397 
L 2834 2853 
Q 2591 2978 2328 3040 
Q 2066 3103 1784 3103 
Q 1356 3103 1142 2972 
Q 928 2841 928 2578 
Q 928 2378 1081 2264 
Q 1234 2150 1697 2047 
L 1894 2003 
Q 2506 1872 2764 1633 
Q 3022 1394 3022 966 
Q 3022 478 2636 193 
Q 2250 -91 1575 -91 
Q 1294 -91 989 -36 
Q 684 19 347 128 
L 347 722 
Q 666 556 975 473 
Q 1284 391 1588 391 
Q 1994 391 2212 530 
Q 2431 669 2431 922 
Q 2431 1156 2273 1281 
Q 2116 1406 1581 1522 
L 1381 1569 
Q 847 1681 609 1914 
Q 372 2147 372 2553 
Q 372 3047 722 3315 
Q 1072 3584 1716 3584 
Q 2034 3584 2315 3537 
Q 2597 3491 2834 3397 
z
" transform="scale(0.015625)"/>
      </defs>
      <use xlink:href="#DejaVuSans-49"/>
      <use xlink:href="#DejaVuSans-74" x="29.492188"/>
      <use xlink:href="#DejaVuSans-65" x="68.701172"/>
      <use xlink:href="#DejaVuSans-72" x="130.224609"/>
      <use xlink:href="#DejaVuSans-61" x="171.337891"/>
      <use xlink:href="#DejaVuSans-74" x="232.617188"/>
      <use xlink:href="#DejaVuSans-69" x="271.826172"/>
      <use xlink:href="#DejaVuSans-6f" x="299.609375"/>
      <use xlink:href="#DejaVuSans-6e" x="360.791016"/>
      <use xlink:href="#DejaVuSans-73" x="424.169922"/>
     </g>
    </g>
   </g>
   <g id="matplotlib.axis_2">
    <g id="ytick_1">
     <g id="line2d_15">
      <path d="M 47.72 414.087649 
L 853.2 414.087649 
" clip-path="url(#p9bd61c5ce9)" style="fill: none; stroke: #b0b0b0; stroke-width: 0.8; stroke-linecap: square"/>
     </g>
     <g id="line2d_16">
      <defs>
       <path id="ma7f5cb71e9" d="M 0 0 
L -3.5 0 
" style="stroke: #000000; stroke-width: 0.8"/>
      </defs>
      <g>
       <use xlink:href="#ma7f5cb71e9" x="47.72" y="414.087649" style="stroke: #000000; stroke-width: 0.8"/>
      </g>
     </g>
     <g id="text_9">
      <!-- 0.3 -->
      <g transform="translate(24.816875 417.886868) scale(0.1 -0.1)">
       <defs>
        <path id="DejaVuSans-2e" d="M 684 794 
L 1344 794 
L 1344 0 
L 684 0 
L 684 794 
z
" transform="scale(0.015625)"/>
       </defs>
       <use xlink:href="#DejaVuSans-30"/>
       <use xlink:href="#DejaVuSans-2e" x="63.623047"/>
       <use xlink:href="#DejaVuSans-33" x="95.410156"/>
      </g>
     </g>
    </g>
    <g id="ytick_2">
     <g id="line2d_17">
      <path d="M 47.72 363.98019 
L 853.2 363.98019 
" clip-path="url(#p9bd61c5ce9)" style="fill: none; stroke: #b0b0b0; stroke-width: 0.8; stroke-linecap: square"/>
     </g>
     <g id="line2d_18">
      <g>
       <use xlink:href="#ma7f5cb71e9" x="47.72" y="363.98019" style="stroke: #000000; stroke-width: 0.8"/>
      </g>
     </g>
     <g id="text_10">
      <!-- 0.4 -->
      <g transform="translate(24.816875 367.779409) scale(0.1 -0.1)">
       <defs>
        <path id="DejaVuSans-34" d="M 2419 4116 
L 825 1625 
L 2419 1625 
L 2419 4116 
z
M 2253 4666 
L 3047 4666 
L 3047 1625 
L 3713 1625 
L 3713 1100 
L 3047 1100 
L 3047 0 
L 2419 0 
L 2419 1100 
L 313 1100 
L 313 1709 
L 2253 4666 
z
" transform="scale(0.015625)"/>
       </defs>
       <use xlink:href="#DejaVuSans-30"/>
       <use xlink:href="#DejaVuSans-2e" x="63.623047"/>
       <use xlink:href="#DejaVuSans-34" x="95.410156"/>
      </g>
     </g>
    </g>
    <g id="ytick_3">
     <g id="line2d_19">
      <path d="M 47.72 313.87273 
L 853.2 313.87273 
" clip-path="url(#p9bd61c5ce9)" style="fill: none; stroke: #b0b0b0; stroke-width: 0.8; stroke-linecap: square"/>
     </g>
     <g id="line2d_20">
      <g>
       <use xlink:href="#ma7f5cb71e9" x="47.72" y="313.87273" style="stroke: #000000; stroke-width: 0.8"/>
      </g>
     </g>
     <g id="text_11">
      <!-- 0.5 -->
      <g transform="translate(24.816875 317.671949) scale(0.1 -0.1)">
       <use xlink:href="#DejaVuSans-30"/>
       <use xlink:href="#DejaVuSans-2e" x="63.623047"/>
       <use xlink:href="#DejaVuSans-35" x="95.410156"/>
      </g>
     </g>
    </g>
    <g id="ytick_4">
     <g id="line2d_21">
      <path d="M 47.72 263.765271 
L 853.2 263.765271 
" clip-path="url(#p9bd61c5ce9)" style="fill: none; stroke: #b0b0b0; stroke-width: 0.8; stroke-linecap: square"/>
     </g>
     <g id="line2d_22">
      <g>
       <use xlink:href="#ma7f5cb71e9" x="47.72" y="263.765271" style="stroke: #000000; stroke-width: 0.8"/>
      </g>
     </g>
     <g id="text_12">
      <!-- 0.6 -->
      <g transform="translate(24.816875 267.56449) scale(0.1 -0.1)">
       <defs>
        <path id="DejaVuSans-36" d="M 2113 2584 
Q 1688 2584 1439 2293 
Q 1191 2003 1191 1497 
Q 1191 994 1439 701 
Q 1688 409 2113 409 
Q 2538 409 2786 701 
Q 3034 994 3034 1497 
Q 3034 2003 2786 2293 
Q 2538 2584 2113 2584 
z
M 3366 4563 
L 3366 3988 
Q 3128 4100 2886 4159 
Q 2644 4219 2406 4219 
Q 1781 4219 1451 3797 
Q 1122 3375 1075 2522 
Q 1259 2794 1537 2939 
Q 1816 3084 2150 3084 
Q 2853 3084 3261 2657 
Q 3669 2231 3669 1497 
Q 3669 778 3244 343 
Q 2819 -91 2113 -91 
Q 1303 -91 875 529 
Q 447 1150 447 2328 
Q 447 3434 972 4092 
Q 1497 4750 2381 4750 
Q 2619 4750 2861 4703 
Q 3103 4656 3366 4563 
z
" transform="scale(0.015625)"/>
       </defs>
       <use xlink:href="#DejaVuSans-30"/>
       <use xlink:href="#DejaVuSans-2e" x="63.623047"/>
       <use xlink:href="#DejaVuSans-36" x="95.410156"/>
      </g>
     </g>
    </g>
    <g id="ytick_5">
     <g id="line2d_23">
      <path d="M 47.72 213.657812 
L 853.2 213.657812 
" clip-path="url(#p9bd61c5ce9)" style="fill: none; stroke: #b0b0b0; stroke-width: 0.8; stroke-linecap: square"/>
     </g>
     <g id="line2d_24">
      <g>
       <use xlink:href="#ma7f5cb71e9" x="47.72" y="213.657812" style="stroke: #000000; stroke-width: 0.8"/>
      </g>
     </g>
     <g id="text_13">
      <!-- 0.7 -->
      <g transform="translate(24.816875 217.45703) scale(0.1 -0.1)">
       <defs>
        <path id="DejaVuSans-37" d="M 525 4666 
L 3525 4666 
L 3525 4397 
L 1831 0 
L 1172 0 
L 2766 4134 
L 525 4134 
L 525 4666 
z
" transform="scale(0.015625)"/>
       </defs>
       <use xlink:href="#DejaVuSans-30"/>
       <use xlink:href="#DejaVuSans-2e" x="63.623047"/>
       <use xlink:href="#DejaVuSans-37" x="95.410156"/>
      </g>
     </g>
    </g>
    <g id="ytick_6">
     <g id="line2d_25">
      <path d="M 47.72 163.550352 
L 853.2 163.550352 
" clip-path="url(#p9bd61c5ce9)" style="fill: none; stroke: #b0b0b0; stroke-width: 0.8; stroke-linecap: square"/>
     </g>
     <g id="line2d_26">
      <g>
       <use xlink:href="#ma7f5cb71e9" x="47.72" y="163.550352" style="stroke: #000000; stroke-width: 0.8"/>
      </g>
     </g>
     <g id="text_14">
      <!-- 0.8 -->
      <g transform="translate(24.816875 167.349571) scale(0.1 -0.1)">
       <defs>
        <path id="DejaVuSans-38" d="M 2034 2216 
Q 1584 2216 1326 1975 
Q 1069 1734 1069 1313 
Q 1069 891 1326 650 
Q 1584 409 2034 409 
Q 2484 409 2743 651 
Q 3003 894 3003 1313 
Q 3003 1734 2745 1975 
Q 2488 2216 2034 2216 
z
M 1403 2484 
Q 997 2584 770 2862 
Q 544 3141 544 3541 
Q 544 4100 942 4425 
Q 1341 4750 2034 4750 
Q 2731 4750 3128 4425 
Q 3525 4100 3525 3541 
Q 3525 3141 3298 2862 
Q 3072 2584 2669 2484 
Q 3125 2378 3379 2068 
Q 3634 1759 3634 1313 
Q 3634 634 3220 271 
Q 2806 -91 2034 -91 
Q 1263 -91 848 271 
Q 434 634 434 1313 
Q 434 1759 690 2068 
Q 947 2378 1403 2484 
z
M 1172 3481 
Q 1172 3119 1398 2916 
Q 1625 2713 2034 2713 
Q 2441 2713 2670 2916 
Q 2900 3119 2900 3481 
Q 2900 3844 2670 4047 
Q 2441 4250 2034 4250 
Q 1625 4250 1398 4047 
Q 1172 3844 1172 3481 
z
" transform="scale(0.015625)"/>
       </defs>
       <use xlink:href="#DejaVuSans-30"/>
       <use xlink:href="#DejaVuSans-2e" x="63.623047"/>
       <use xlink:href="#DejaVuSans-38" x="95.410156"/>
      </g>
     </g>
    </g>
    <g id="ytick_7">
     <g id="line2d_27">
      <path d="M 47.72 113.442893 
L 853.2 113.442893 
" clip-path="url(#p9bd61c5ce9)" style="fill: none; stroke: #b0b0b0; stroke-width: 0.8; stroke-linecap: square"/>
     </g>
     <g id="line2d_28">
      <g>
       <use xlink:href="#ma7f5cb71e9" x="47.72" y="113.442893" style="stroke: #000000; stroke-width: 0.8"/>
      </g>
     </g>
     <g id="text_15">
      <!-- 0.9 -->
      <g transform="translate(24.816875 117.242112) scale(0.1 -0.1)">
       <defs>
        <path id="DejaVuSans-39" d="M 703 97 
L 703 672 
Q 941 559 1184 500 
Q 1428 441 1663 441 
Q 2288 441 2617 861 
Q 2947 1281 2994 2138 
Q 2813 1869 2534 1725 
Q 2256 1581 1919 1581 
Q 1219 1581 811 2004 
Q 403 2428 403 3163 
Q 403 3881 828 4315 
Q 1253 4750 1959 4750 
Q 2769 4750 3195 4129 
Q 3622 3509 3622 2328 
Q 3622 1225 3098 567 
Q 2575 -91 1691 -91 
Q 1453 -91 1209 -44 
Q 966 3 703 97 
z
M 1959 2075 
Q 2384 2075 2632 2365 
Q 2881 2656 2881 3163 
Q 2881 3666 2632 3958 
Q 2384 4250 1959 4250 
Q 1534 4250 1286 3958 
Q 1038 3666 1038 3163 
Q 1038 2656 1286 2365 
Q 1534 2075 1959 2075 
z
" transform="scale(0.015625)"/>
       </defs>
       <use xlink:href="#DejaVuSans-30"/>
       <use xlink:href="#DejaVuSans-2e" x="63.623047"/>
       <use xlink:href="#DejaVuSans-39" x="95.410156"/>
      </g>
     </g>
    </g>
    <g id="ytick_8">
     <g id="line2d_29">
      <path d="M 47.72 63.335433 
L 853.2 63.335433 
" clip-path="url(#p9bd61c5ce9)" style="fill: none; stroke: #b0b0b0; stroke-width: 0.8; stroke-linecap: square"/>
     </g>
     <g id="line2d_30">
      <g>
       <use xlink:href="#ma7f5cb71e9" x="47.72" y="63.335433" style="stroke: #000000; stroke-width: 0.8"/>
      </g>
     </g>
     <g id="text_16">
      <!-- 1.0 -->
      <g transform="translate(24.816875 67.134652) scale(0.1 -0.1)">
       <use xlink:href="#DejaVuSans-31"/>
       <use xlink:href="#DejaVuSans-2e" x="63.623047"/>
       <use xlink:href="#DejaVuSans-30" x="95.410156"/>
      </g>
     </g>
    </g>
    <g id="text_17">
     <!-- Accuracy -->
     <g transform="translate(18.737188 269.788125) rotate(-90) scale(0.1 -0.1)">
      <defs>
       <path id="DejaVuSans-41" d="M 2188 4044 
L 1331 1722 
L 3047 1722 
L 2188 4044 
z
M 1831 4666 
L 2547 4666 
L 4325 0 
L 3669 0 
L 3244 1197 
L 1141 1197 
L 716 0 
L 50 0 
L 1831 4666 
z
" transform="scale(0.015625)"/>
       <path id="DejaVuSans-63" d="M 3122 3366 
L 3122 2828 
Q 2878 2963 2633 3030 
Q 2388 3097 2138 3097 
Q 1578 3097 1268 2742 
Q 959 2388 959 1747 
Q 959 1106 1268 751 
Q 1578 397 2138 397 
Q 2388 397 2633 464 
Q 2878 531 3122 666 
L 3122 134 
Q 2881 22 2623 -34 
Q 2366 -91 2075 -91 
Q 1284 -91 818 406 
Q 353 903 353 1747 
Q 353 2603 823 3093 
Q 1294 3584 2113 3584 
Q 2378 3584 2631 3529 
Q 2884 3475 3122 3366 
z
" transform="scale(0.015625)"/>
       <path id="DejaVuSans-75" d="M 544 1381 
L 544 3500 
L 1119 3500 
L 1119 1403 
Q 1119 906 1312 657 
Q 1506 409 1894 409 
Q 2359 409 2629 706 
Q 2900 1003 2900 1516 
L 2900 3500 
L 3475 3500 
L 3475 0 
L 2900 0 
L 2900 538 
Q 2691 219 2414 64 
Q 2138 -91 1772 -91 
Q 1169 -91 856 284 
Q 544 659 544 1381 
z
M 1991 3584 
L 1991 3584 
z
" transform="scale(0.015625)"/>
       <path id="DejaVuSans-79" d="M 2059 -325 
Q 1816 -950 1584 -1140 
Q 1353 -1331 966 -1331 
L 506 -1331 
L 506 -850 
L 844 -850 
Q 1081 -850 1212 -737 
Q 1344 -625 1503 -206 
L 1606 56 
L 191 3500 
L 800 3500 
L 1894 763 
L 2988 3500 
L 3597 3500 
L 2059 -325 
z
" transform="scale(0.015625)"/>
      </defs>
      <use xlink:href="#DejaVuSans-41"/>
      <use xlink:href="#DejaVuSans-63" x="66.658203"/>
      <use xlink:href="#DejaVuSans-63" x="121.638672"/>
      <use xlink:href="#DejaVuSans-75" x="176.619141"/>
      <use xlink:href="#DejaVuSans-72" x="239.998047"/>
      <use xlink:href="#DejaVuSans-61" x="281.111328"/>
      <use xlink:href="#DejaVuSans-63" x="342.390625"/>
      <use xlink:href="#DejaVuSans-79" x="397.371094"/>
     </g>
    </g>
   </g>
   <g id="line2d_31">
    <path d="M 84.332727 425.650909 
L 84.357041 154.916451 
L 84.381355 92.012318 
L 84.405668 102.187987 
L 84.429982 76.286284 
L 84.454296 76.594638 
L 84.478609 73.202748 
L 84.502923 72.894395 
L 84.527237 72.277688 
L 84.55155 71.352627 
L 84.575864 71.044273 
L 84.600178 70.73592 
L 84.624491 70.73592 
L 84.648805 70.73592 
L 84.673119 70.73592 
L 84.697432 70.73592 
L 84.721746 70.73592 
L 84.74606 70.73592 
L 84.770373 70.427566 
L 84.794687 70.427566 
L 84.819001 70.119212 
L 84.843314 70.119212 
L 84.867628 69.502505 
L 84.891941 69.502505 
L 84.916255 69.502505 
L 84.940569 69.502505 
L 84.964882 69.502505 
L 84.989196 69.502505 
L 85.01351 69.502505 
L 85.037823 69.502505 
L 85.062137 69.502505 
L 85.086451 69.502505 
L 85.110764 69.502505 
L 85.135078 69.194152 
L 85.159392 69.194152 
L 85.183705 69.194152 
L 85.208019 69.194152 
L 85.232333 68.885798 
L 85.256646 68.885798 
L 85.28096 68.577445 
L 85.305274 68.577445 
L 85.329587 68.577445 
L 85.353901 68.269091 
" clip-path="url(#p9bd61c5ce9)" style="fill: none; stroke: #ffa500; stroke-width: 1.5; stroke-linecap: square"/>
   </g>
   <g id="line2d_32">
    <path d="M 84.332727 425.650909 
L 84.74606 327.286112 
L 86.034684 130.864871 
L 86.131938 125.931213 
L 86.666839 103.729754 
L 86.715466 103.729754 
L 87.128798 98.17939 
L 87.153112 99.721158 
L 87.226053 97.871036 
L 87.27468 98.17939 
L 87.444876 95.404207 
L 87.46919 95.404207 
L 87.639385 94.479147 
L 87.712326 96.637622 
L 87.73664 94.479147 
L 87.760954 94.479147 
L 87.979777 91.395611 
L 88.028404 91.395611 
L 88.198599 88.312075 
L 88.320168 91.087257 
L 88.417422 89.545489 
L 88.46605 90.47055 
L 88.490363 90.47055 
L 88.611932 89.237135 
L 88.636245 89.237135 
L 88.709186 86.153599 
L 88.757814 87.695367 
L 88.782127 89.237135 
L 88.830755 85.536892 
L 88.879382 85.536892 
L 88.952323 86.153599 
L 88.976637 85.536892 
L 89.219773 83.070064 
L 89.244087 83.378417 
L 89.341342 83.378417 
L 89.46291 83.995124 
L 89.560165 83.378417 
L 89.584478 83.686771 
L 89.657419 82.145003 
L 89.73036 82.453356 
L 89.827615 83.070064 
L 89.949183 81.219942 
L 89.99781 81.528296 
L 90.022124 81.219942 
L 90.046438 82.145003 
L 90.070751 81.836649 
L 90.095065 81.836649 
L 90.143692 82.145003 
L 90.240947 81.219942 
L 90.289574 81.836649 
L 90.313888 80.294881 
L 90.386829 81.219942 
L 90.508397 82.453356 
L 90.532711 82.145003 
L 90.775848 78.44476 
L 91.043298 78.44476 
L 91.286434 76.594638 
L 91.310748 76.594638 
L 91.45663 75.669577 
L 91.553885 77.211345 
L 91.578198 76.902992 
L 91.651139 76.594638 
L 91.675453 76.902992 
L 91.72408 76.902992 
L 91.797021 76.594638 
L 91.821335 76.902992 
L 91.845649 76.902992 
L 91.967217 76.286284 
L 91.991531 76.286284 
L 92.210354 74.744516 
L 92.331922 74.744516 
L 92.404863 75.05287 
L 92.429177 74.744516 
L 92.45349 74.744516 
L 92.526431 74.436163 
L 92.575059 75.05287 
L 92.672313 74.127809 
L 92.696627 74.436163 
L 92.866822 75.361224 
L 92.964077 74.436163 
L 93.012704 74.744516 
L 93.037018 74.744516 
L 93.061332 75.05287 
L 93.109959 74.436163 
L 93.231527 74.127809 
L 93.255841 74.127809 
L 93.377409 72.894395 
L 93.426037 73.202748 
L 93.474664 73.819456 
L 93.523291 72.894395 
L 93.547605 72.894395 
L 93.64486 73.202748 
L 93.766428 72.894395 
L 93.936624 72.894395 
L 94.058192 73.202748 
L 94.106819 73.202748 
L 94.228388 72.894395 
L 94.738974 72.894395 
L 94.860543 72.586041 
L 94.933484 72.586041 
L 95.055052 72.894395 
L 95.079366 72.894395 
L 95.152307 72.586041 
L 95.17662 72.894395 
L 95.200934 72.894395 
L 95.273875 72.586041 
L 95.298189 72.894395 
L 95.492698 72.894395 
L 95.565639 72.277688 
L 95.589953 72.586041 
L 95.662894 73.202748 
L 95.687207 72.586041 
L 95.808776 72.277688 
L 95.930344 72.894395 
L 96.684067 72.894395 
L 96.829949 72.277688 
L 96.878577 72.894395 
L 96.927204 71.969334 
L 96.951518 71.969334 
L 97.024459 72.894395 
L 97.0974 72.586041 
L 97.121713 72.586041 
L 97.243282 72.277688 
L 97.389164 72.277688 
L 97.510732 72.894395 
L 97.6323 72.277688 
L 97.753868 72.277688 
L 97.875437 71.969334 
L 98.021319 71.969334 
L 98.118573 72.277688 
L 98.240142 71.969334 
L 98.434651 71.969334 
L 98.556219 72.277688 
L 98.653474 72.277688 
L 98.799356 71.66098 
L 99.066806 71.66098 
L 99.164061 71.352627 
L 99.237002 72.277688 
L 99.261315 71.969334 
L 99.285629 71.352627 
L 99.382884 71.66098 
L 99.431511 72.277688 
L 99.480138 71.66098 
L 99.553079 71.352627 
L 99.577393 71.969334 
L 99.650334 71.352627 
L 99.674648 71.044273 
L 99.747589 71.352627 
L 99.82053 71.352627 
L 99.844843 71.044273 
L 99.917784 71.352627 
L 99.942098 71.969334 
L 100.015039 71.352627 
L 100.08798 71.044273 
L 100.112294 71.352627 
L 100.209548 71.352627 
L 100.306803 71.969334 
L 100.452685 71.044273 
L 100.476999 71.044273 
L 100.598567 71.352627 
L 100.695822 71.044273 
L 100.890331 72.277688 
L 100.987585 72.277688 
L 101.157781 71.352627 
L 101.230722 71.352627 
L 101.400918 72.277688 
L 101.449545 72.277688 
L 101.473859 71.66098 
L 101.5468 72.277688 
L 101.595427 72.277688 
L 101.619741 71.352627 
L 101.692682 72.277688 
L 101.765623 72.277688 
L 101.935818 73.511102 
L 102.106014 71.044273 
L 102.227582 71.352627 
L 102.27621 71.044273 
L 102.324837 71.352627 
L 102.446405 71.352627 
L 102.567973 71.044273 
L 102.616601 71.044273 
L 102.713855 71.352627 
L 102.81111 71.044273 
L 102.932678 71.352627 
L 102.956992 71.352627 
L 103.07856 71.044273 
L 103.710716 71.044273 
L 103.832284 71.352627 
L 103.880911 71.352627 
L 103.978166 71.044273 
L 104.099734 71.352627 
L 104.196989 71.044273 
L 104.318557 71.352627 
L 104.342871 71.044273 
L 104.415812 71.352627 
L 104.513066 71.352627 
L 104.634635 71.66098 
L 104.756203 71.044273 
L 104.80483 71.66098 
L 104.877771 71.352627 
L 104.950712 71.66098 
L 104.975026 71.352627 
L 104.99934 71.352627 
L 105.047967 71.044273 
L 105.096594 71.352627 
L 105.218163 71.66098 
L 105.53424 71.66098 
L 105.558554 71.352627 
L 105.631495 71.66098 
L 105.826004 71.66098 
L 105.971886 71.044273 
L 106.117768 71.66098 
L 106.166395 71.66098 
L 106.287964 71.044273 
L 106.409532 71.66098 
L 106.506787 71.044273 
L 106.5311 71.352627 
L 106.579728 71.352627 
L 106.652669 71.66098 
L 106.676982 71.352627 
L 106.701296 71.352627 
L 106.822864 71.044273 
L 106.871492 71.044273 
L 106.99306 71.66098 
L 107.114628 71.044273 
L 107.138942 71.044273 
L 107.26051 70.73592 
L 110.007954 70.73592 
L 110.153836 71.66098 
L 110.275404 70.73592 
L 111.053441 70.73592 
L 111.150696 71.044273 
L 111.223637 70.73592 
L 111.247951 71.044273 
L 111.320892 71.044273 
L 111.44246 70.73592 
L 111.588342 70.73592 
L 111.70991 71.044273 
L 111.855792 71.044273 
L 111.97736 71.352627 
L 112.123242 70.73592 
L 112.147556 70.73592 
L 112.293438 71.352627 
L 112.390693 70.73592 
L 112.415006 71.044273 
L 112.536575 70.73592 
L 112.682457 70.73592 
L 112.731084 71.044273 
L 112.779711 70.73592 
L 112.998534 70.73592 
L 113.047162 70.427566 
L 113.095789 70.73592 
L 113.120103 70.73592 
L 113.144416 70.427566 
L 113.217357 70.73592 
L 113.752258 70.73592 
L 113.89814 70.119212 
L 113.922453 70.119212 
L 113.971081 70.427566 
L 114.019708 70.119212 
L 114.044022 70.119212 
L 114.189904 70.73592 
L 114.238531 70.73592 
L 114.262845 70.119212 
L 114.335786 70.427566 
L 114.457354 70.73592 
L 114.992255 70.73592 
L 115.065195 70.119212 
L 115.089509 70.73592 
L 115.113823 70.73592 
L 115.186764 70.119212 
L 115.211077 70.427566 
L 115.284018 70.119212 
L 115.332646 70.73592 
L 116.086369 70.73592 
L 116.110683 70.119212 
L 116.183624 70.73592 
L 118.055776 70.73592 
L 118.201658 70.119212 
L 118.225971 70.119212 
L 118.34754 69.810859 
L 118.371853 69.810859 
L 118.493422 70.119212 
L 118.61499 70.119212 
L 118.639304 70.73592 
L 118.687931 69.810859 
L 118.712245 70.119212 
L 118.833813 70.119212 
L 118.955381 69.810859 
L 119.101263 69.810859 
L 119.222832 70.119212 
L 119.417341 70.119212 
L 119.563223 69.502505 
L 119.587537 69.502505 
L 119.61185 69.810859 
L 119.684791 69.502505 
L 119.927928 69.502505 
L 120.025182 70.119212 
L 120.049496 69.810859 
L 120.07381 69.810859 
L 120.098123 69.502505 
L 120.171064 69.810859 
L 120.34126 69.810859 
L 120.365574 69.502505 
L 120.438515 69.810859 
L 120.487142 69.810859 
L 120.60871 69.502505 
L 120.778906 69.502505 
L 120.80322 69.810859 
L 120.876161 69.502505 
L 121.484002 69.502505 
L 121.60557 69.810859 
L 122.79694 69.810859 
L 122.918508 70.119212 
L 123.720859 70.119212 
L 123.842427 69.810859 
L 126.589871 69.810859 
L 126.614185 69.502505 
L 126.687126 69.810859 
L 127.051831 69.810859 
L 127.173399 69.502505 
L 143.658061 69.502505 
L 143.77963 69.194152 
L 150.781964 69.194152 
L 150.903533 68.885798 
L 159.534883 68.885798 
L 159.656451 68.577445 
L 163.716832 68.577445 
L 163.741146 68.269091 
L 163.741146 68.269091 
" clip-path="url(#p9bd61c5ce9)" style="fill: none; stroke: #c83cbc; stroke-width: 1.5; stroke-linecap: square"/>
   </g>
   <g id="line2d_33">
    <path d="M 84.332727 425.650909 
L 84.357041 97.562683 
L 84.381355 97.254329 
L 84.405668 94.479147 
L 84.429982 75.669577 
L 84.454296 73.819456 
L 84.478609 72.277688 
L 84.502923 71.352627 
L 84.527237 71.044273 
L 84.55155 71.044273 
L 84.575864 70.73592 
L 84.600178 70.73592 
L 84.624491 70.73592 
L 84.648805 70.73592 
L 84.673119 70.73592 
L 84.697432 70.73592 
L 84.721746 70.427566 
L 84.74606 70.119212 
L 84.770373 70.119212 
L 84.794687 69.810859 
L 84.819001 69.810859 
L 84.843314 69.502505 
L 84.867628 69.502505 
L 84.891941 69.502505 
L 84.916255 69.502505 
L 84.940569 69.502505 
L 84.964882 69.502505 
L 84.989196 69.194152 
L 85.01351 69.194152 
L 85.037823 69.194152 
L 85.062137 69.194152 
L 85.086451 68.885798 
L 85.110764 68.885798 
L 85.135078 68.885798 
L 85.159392 68.885798 
L 85.183705 68.577445 
L 85.208019 68.577445 
L 85.232333 68.577445 
L 85.256646 68.269091 
" clip-path="url(#p9bd61c5ce9)" style="fill: none; stroke: #1c1c84; stroke-width: 1.5; stroke-linecap: square"/>
   </g>
   <g id="line2d_34">
    <path d="M 84.332727 425.650909 
L 84.429982 425.650909 
L 84.55155 418.558776 
L 84.624491 418.558776 
L 84.74606 414.858533 
L 84.819001 414.858533 
L 84.940569 410.233229 
L 85.086451 410.233229 
L 85.28096 380.014577 
L 85.378215 380.014577 
L 85.499783 375.697626 
L 85.645665 375.697626 
L 85.864488 350.412632 
L 86.156252 350.412632 
L 86.27782 347.945803 
L 86.302134 347.945803 
L 86.423702 343.012145 
L 86.496643 343.012145 
L 86.618211 337.461781 
L 86.642525 337.461781 
L 86.764093 331.911416 
L 87.201739 331.911416 
L 87.323308 329.444587 
L 87.590758 329.444587 
L 87.712326 325.744344 
L 87.931149 325.744344 
L 88.077031 317.110443 
L 88.198599 317.110443 
L 88.320168 313.4102 
L 88.368795 313.4102 
L 88.514677 303.542885 
L 88.587618 303.542885 
L 88.709186 297.684167 
L 88.855068 297.684167 
L 88.976637 293.983923 
L 89.122519 293.983923 
L 89.268401 286.583437 
L 90.046438 286.583437 
L 90.168006 284.116608 
L 90.678593 284.116608 
L 90.800161 280.108012 
L 90.970357 280.108012 
L 91.091925 275.174354 
L 91.480944 275.174354 
L 91.602512 268.390575 
L 91.675453 268.390575 
L 91.797021 264.998685 
L 92.040158 264.998685 
L 92.210354 248.039238 
L 92.404863 248.039238 
L 92.526431 245.264055 
L 92.939763 245.264055 
L 93.061332 235.705094 
L 93.085645 235.705094 
L 93.231527 227.379547 
L 93.377409 227.379547 
L 93.498978 220.904121 
L 93.547605 220.904121 
L 93.669173 215.66211 
L 93.717801 215.66211 
L 93.863683 207.95327 
L 94.009565 207.95327 
L 94.228388 192.53559 
L 94.520151 192.53559 
L 94.64172 187.293579 
L 94.90917 187.293579 
L 95.030738 184.82675 
L 95.152307 184.82675 
L 95.273875 179.584739 
L 95.565639 179.584739 
L 95.687207 176.809557 
L 95.808776 176.809557 
L 95.930344 173.726021 
L 96.149167 173.726021 
L 96.343676 165.708827 
L 96.805636 165.708827 
L 96.927204 163.241999 
L 97.121713 163.241999 
L 97.243282 162.933645 
L 97.6323 162.933645 
L 97.802496 153.683037 
L 97.89975 153.683037 
L 98.069946 145.665844 
L 98.215828 145.665844 
L 98.337396 143.815722 
L 98.677788 143.815722 
L 98.896611 135.490175 
L 99.042493 135.490175 
L 99.237002 133.3317 
L 99.723275 133.3317 
L 99.844843 131.173225 
L 100.258176 131.173225 
L 100.622881 124.697799 
L 100.695822 124.697799 
L 100.866017 122.847677 
L 101.449545 122.847677 
L 101.571113 122.23097 
L 101.741309 122.23097 
L 101.887191 118.222374 
L 102.130328 118.222374 
L 102.300523 114.213777 
L 102.592287 114.213777 
L 102.713855 112.672009 
L 102.956992 112.672009 
L 103.102874 110.821887 
L 103.151501 110.821887 
L 103.297383 108.663412 
L 103.443265 108.663412 
L 103.613461 106.81329 
L 104.26993 106.81329 
L 104.391498 106.504937 
L 105.047967 106.504937 
L 105.193849 104.963169 
L 105.218163 104.963169 
L 105.339731 105.579876 
L 106.044827 105.579876 
L 106.166395 104.654815 
L 106.190709 104.654815 
L 106.312277 104.038108 
L 106.482473 104.038108 
L 106.628355 103.421401 
L 106.895805 103.421401 
L 107.017374 103.113047 
L 107.114628 103.113047 
L 107.236196 102.187987 
L 107.430706 102.187987 
L 107.625215 100.954572 
L 108.038547 100.954572 
L 108.160116 100.646219 
L 108.816584 100.646219 
L 108.889525 99.721158 
L 108.938153 100.029511 
L 109.44874 100.029511 
L 109.570308 99.412804 
L 110.032268 99.412804 
L 110.153836 98.796097 
L 110.9805 98.796097 
L 111.102069 98.487743 
L 111.247951 98.487743 
L 111.369519 98.17939 
L 111.44246 98.17939 
L 111.661283 96.637622 
L 111.685597 96.637622 
L 111.807165 97.254329 
L 112.123242 97.254329 
L 112.244811 96.637622 
L 112.293438 96.637622 
L 112.512261 95.095854 
L 112.804025 95.095854 
L 112.90128 96.020915 
L 113.022848 95.095854 
L 115.186764 95.095854 
L 115.308332 94.7875 
L 115.332646 94.7875 
L 115.356959 94.479147 
L 115.381273 95.095854 
L 115.405587 95.095854 
L 115.770292 95.095854 
L 115.89186 94.479147 
L 115.940487 94.479147 
L 115.989115 94.7875 
L 116.013428 94.170793 
L 116.718524 94.170793 
L 116.840093 94.479147 
L 118.08009 94.479147 
L 118.201658 94.170793 
L 118.250285 94.170793 
L 118.371853 93.862439 
L 118.639304 93.862439 
L 118.760872 93.245732 
L 118.88244 93.554086 
L 119.149891 93.554086 
L 119.271459 93.245732 
L 119.490282 93.245732 
L 119.61185 92.012318 
L 119.80636 92.012318 
L 119.952241 91.087257 
L 119.976555 91.087257 
L 120.07381 90.47055 
L 120.098123 90.778903 
L 120.171064 90.778903 
L 120.292633 90.47055 
L 122.505176 90.47055 
L 122.626744 90.162196 
L 125.276933 90.162196 
L 125.398502 89.545489 
L 127.392222 89.545489 
L 127.51379 88.928782 
L 127.611045 88.928782 
L 127.635359 89.237135 
L 127.756927 87.695367 
L 128.000063 87.695367 
L 128.121632 86.461953 
L 128.267514 86.461953 
L 128.389082 86.153599 
L 129.434569 86.153599 
L 129.531824 85.228539 
L 129.556138 85.536892 
L 129.750647 85.536892 
L 129.872215 85.228539 
L 130.091038 85.228539 
L 130.212607 84.920185 
L 131.403976 84.920185 
L 131.525544 84.611832 
L 134.832202 84.611832 
L 134.953771 83.686771 
L 135.634553 83.686771 
L 135.756121 83.070064 
L 135.950631 83.070064 
L 136.072199 83.378417 
L 136.218081 83.378417 
L 136.291022 83.070064 
L 136.315336 83.378417 
L 137.093373 83.378417 
L 137.214941 83.070064 
L 137.847096 83.070064 
L 138.017292 82.145003 
L 138.33337 82.145003 
L 138.454938 82.76171 
L 138.479252 82.76171 
L 138.60082 82.453356 
L 138.86827 82.453356 
L 138.989838 82.145003 
L 139.281602 82.145003 
L 139.33023 83.070064 
L 139.354543 81.528296 
L 139.573366 81.528296 
L 139.719248 82.145003 
L 140.716108 82.145003 
L 140.813363 81.528296 
L 140.934931 82.145003 
L 141.178068 82.145003 
L 141.299636 81.219942 
L 141.421205 81.219942 
L 141.567087 80.603235 
L 142.174928 80.603235 
L 142.296496 80.911588 
L 142.32081 80.911588 
L 142.442378 80.603235 
L 144.168648 80.603235 
L 144.290217 80.294881 
L 144.630608 80.294881 
L 144.752176 80.603235 
L 144.77649 80.603235 
L 144.898058 79.986528 
L 145.724723 79.986528 
L 145.797664 80.294881 
L 145.943546 79.36982 
L 146.332564 79.36982 
L 146.454133 78.753113 
L 146.77021 78.753113 
L 146.891778 78.44476 
L 149.274517 78.44476 
L 149.396086 78.136406 
L 151.000787 78.136406 
L 151.098042 77.828052 
L 151.21961 78.136406 
L 151.608629 78.136406 
L 151.730197 77.519699 
L 151.94902 77.519699 
L 152.070588 77.211345 
L 152.581175 77.211345 
L 152.702744 76.594638 
L 152.775685 76.902992 
L 152.799998 76.594638 
L 157.687044 76.594638 
L 157.808613 76.286284 
L 158.027435 76.286284 
L 158.149004 76.594638 
L 159.340373 76.594638 
L 159.461942 76.286284 
L 159.778019 76.286284 
L 159.899587 75.977931 
L 159.996842 75.977931 
L 160.11841 76.286284 
L 160.483115 76.286284 
L 160.604684 75.977931 
L 161.698798 75.977931 
L 161.820367 76.286284 
L 163.084677 76.286284 
L 163.206245 75.977931 
L 163.254873 75.977931 
L 163.376441 75.669577 
L 167.193686 75.669577 
L 167.315254 75.361224 
L 168.433683 75.361224 
L 168.555251 75.05287 
L 169.552111 75.05287 
L 169.673679 74.744516 
L 171.010931 74.744516 
L 171.083872 75.05287 
L 171.108185 74.744516 
L 171.351322 74.744516 
L 171.47289 75.05287 
L 173.223474 75.05287 
L 173.345042 74.744516 
L 174.001511 74.744516 
L 174.074452 75.05287 
L 174.098766 74.744516 
L 176.189741 74.744516 
L 176.311309 74.436163 
L 177.867383 74.436163 
L 177.988952 74.127809 
L 181.538746 74.127809 
L 181.660315 73.819456 
L 181.781883 73.819456 
L 181.903451 74.127809 
L 182.219529 74.127809 
L 182.341097 73.511102 
L 182.948939 73.511102 
L 183.070507 73.819456 
L 184.164622 73.819456 
L 184.28619 73.511102 
L 184.55364 73.511102 
L 184.675209 73.202748 
L 184.845404 73.202748 
L 184.966973 73.511102 
L 185.307364 73.511102 
L 185.453246 72.894395 
L 186.109715 72.894395 
L 186.231283 73.202748 
L 186.936379 73.202748 
L 187.057947 72.894395 
L 188.297944 72.894395 
L 188.395199 73.202748 
L 188.516767 72.894395 
L 189.319118 72.894395 
L 189.440686 73.202748 
L 189.562255 73.202748 
L 189.683823 72.894395 
L 190.024214 72.894395 
L 190.145782 72.586041 
L 190.413233 72.586041 
L 190.534801 72.894395 
L 191.069702 72.894395 
L 191.19127 73.202748 
L 191.969307 73.202748 
L 191.993621 72.894395 
L 192.066562 73.202748 
L 192.163816 73.202748 
L 192.285385 72.894395 
L 193.574009 72.894395 
L 193.719891 72.277688 
L 194.206164 72.277688 
L 194.327732 72.586041 
L 195.446161 72.586041 
L 195.494788 72.277688 
L 195.543415 72.586041 
L 195.567729 72.586041 
L 195.689297 72.894395 
L 197.488508 72.894395 
L 197.610077 72.277688 
L 205.487703 72.277688 
L 205.609271 71.969334 
L 205.852408 71.969334 
L 205.876721 72.277688 
L 205.949662 71.969334 
L 222.628834 71.969334 
L 222.750403 72.277688 
L 223.820204 72.277688 
L 223.941772 71.969334 
L 225.473533 71.969334 
L 225.595101 72.277688 
L 226.421765 72.277688 
L 226.543334 71.969334 
L 240.353494 71.969334 
L 240.475062 71.66098 
L 240.572317 71.66098 
L 240.693885 71.352627 
L 241.933882 71.352627 
L 242.05545 71.044273 
L 242.444468 71.044273 
L 242.566037 71.352627 
L 243.587211 71.352627 
L 243.708779 71.044273 
L 243.951915 71.044273 
L 244.073484 71.352627 
L 244.705639 71.352627 
L 244.827207 71.044273 
L 244.973089 71.044273 
L 245.094658 71.352627 
L 246.261713 71.352627 
L 246.383282 71.044273 
L 247.088378 71.044273 
L 247.209946 71.352627 
L 248.182493 71.352627 
L 248.304061 71.044273 
L 275.900067 71.044273 
L 276.021635 70.73592 
L 276.045949 70.73592 
L 276.167517 71.044273 
L 276.823986 71.044273 
L 276.945554 70.73592 
L 286.841214 70.73592 
L 286.962783 71.044273 
L 288.397289 71.044273 
L 288.518857 70.73592 
L 289.272581 70.73592 
L 289.394149 71.044273 
L 290.245127 71.044273 
L 290.366695 70.73592 
L 418.305183 70.73592 
L 418.426751 70.427566 
L 421.465959 70.427566 
L 421.514586 70.73592 
L 421.563213 70.427566 
L 428.298097 70.427566 
L 428.419666 70.119212 
L 437.61023 70.119212 
L 437.731798 69.810859 
L 437.999248 69.810859 
L 438.120817 69.502505 
L 669.465307 69.502505 
L 669.586875 69.194152 
L 679.263712 69.194152 
L 679.38528 68.885798 
L 680.673905 68.885798 
L 680.795473 69.194152 
L 682.351547 69.194152 
L 682.473116 68.885798 
L 683.494289 68.885798 
L 683.615858 69.194152 
L 683.664485 69.194152 
L 683.786053 68.885798 
L 683.858994 68.885798 
L 683.980563 69.194152 
L 701.510713 69.194152 
L 701.632281 68.885798 
L 703.01816 68.885798 
L 703.139728 69.194152 
L 703.455805 69.194152 
L 703.577374 68.885798 
L 703.626001 68.885798 
L 703.747569 69.194152 
L 705.668349 69.194152 
L 705.789917 68.885798 
L 708.585988 68.885798 
L 708.707556 69.194152 
L 708.926379 69.194152 
L 709.047948 68.885798 
L 722.566343 68.885798 
L 722.687912 69.194152 
L 723.587517 69.194152 
L 723.709086 68.885798 
L 723.830654 69.194152 
L 723.952222 69.194152 
L 724.07379 68.885798 
L 724.122418 69.194152 
L 724.171045 68.885798 
L 749.943526 68.885798 
L 750.065095 68.577445 
L 760.349774 68.577445 
L 760.471342 68.885798 
L 760.544283 68.885798 
L 760.665851 68.577445 
L 795.774778 68.577445 
L 795.896347 68.885798 
L 796.042229 68.885798 
L 796.139483 68.577445 
L 796.261052 68.885798 
L 796.625757 68.885798 
L 796.747325 68.577445 
L 797.719871 68.577445 
L 797.84144 68.885798 
L 797.865753 68.885798 
L 797.987322 68.577445 
L 804.600638 68.577445 
L 804.722206 68.885798 
L 810.484544 68.885798 
L 810.606112 68.577445 
L 810.72768 68.577445 
L 810.849249 68.885798 
L 811.748854 68.885798 
L 811.870422 68.577445 
L 816.562959 68.577445 
L 816.587273 68.269091 
L 816.587273 68.269091 
" clip-path="url(#p9bd61c5ce9)" style="fill: none; stroke: #ff0000; stroke-width: 1.5; stroke-linecap: square"/>
   </g>
   <g id="patch_3">
    <path d="M 47.72 443.52 
L 47.72 50.4 
" style="fill: none; stroke: #000000; stroke-width: 0.8; stroke-linejoin: miter; stroke-linecap: square"/>
   </g>
   <g id="patch_4">
    <path d="M 853.2 443.52 
L 853.2 50.4 
" style="fill: none; stroke: #000000; stroke-width: 0.8; stroke-linejoin: miter; stroke-linecap: square"/>
   </g>
   <g id="patch_5">
    <path d="M 47.72 443.52 
L 853.2 443.52 
" style="fill: none; stroke: #000000; stroke-width: 0.8; stroke-linejoin: miter; stroke-linecap: square"/>
   </g>
   <g id="patch_6">
    <path d="M 47.72 50.4 
L 853.2 50.4 
" style="fill: none; stroke: #000000; stroke-width: 0.8; stroke-linejoin: miter; stroke-linecap: square"/>
   </g>
   <g id="text_18">
    <!-- Accuracy over Iterations -->
    <g transform="translate(377.295625 44.4) scale(0.12 -0.12)">
     <defs>
      <path id="DejaVuSans-20" transform="scale(0.015625)"/>
      <path id="DejaVuSans-76" d="M 191 3500 
L 800 3500 
L 1894 563 
L 2988 3500 
L 3597 3500 
L 2284 0 
L 1503 0 
L 191 3500 
z
" transform="scale(0.015625)"/>
     </defs>
     <use xlink:href="#DejaVuSans-41"/>
     <use xlink:href="#DejaVuSans-63" x="66.658203"/>
     <use xlink:href="#DejaVuSans-63" x="121.638672"/>
     <use xlink:href="#DejaVuSans-75" x="176.619141"/>
     <use xlink:href="#DejaVuSans-72" x="239.998047"/>
     <use xlink:href="#DejaVuSans-61" x="281.111328"/>
     <use xlink:href="#DejaVuSans-63" x="342.390625"/>
     <use xlink:href="#DejaVuSans-79" x="397.371094"/>
     <use xlink:href="#DejaVuSans-20" x="456.550781"/>
     <use xlink:href="#DejaVuSans-6f" x="488.337891"/>
     <use xlink:href="#DejaVuSans-76" x="549.519531"/>
     <use xlink:href="#DejaVuSans-65" x="608.699219"/>
     <use xlink:href="#DejaVuSans-72" x="670.222656"/>
     <use xlink:href="#DejaVuSans-20" x="711.335938"/>
     <use xlink:href="#DejaVuSans-49" x="743.123047"/>
     <use xlink:href="#DejaVuSans-74" x="772.615234"/>
     <use xlink:href="#DejaVuSans-65" x="811.824219"/>
     <use xlink:href="#DejaVuSans-72" x="873.347656"/>
     <use xlink:href="#DejaVuSans-61" x="914.460938"/>
     <use xlink:href="#DejaVuSans-74" x="975.740234"/>
     <use xlink:href="#DejaVuSans-69" x="1014.949219"/>
     <use xlink:href="#DejaVuSans-6f" x="1042.732422"/>
     <use xlink:href="#DejaVuSans-6e" x="1103.914062"/>
     <use xlink:href="#DejaVuSans-73" x="1167.292969"/>
    </g>
   </g>
   <g id="legend_1">
    <g id="patch_7">
     <path d="M 777.309375 438.52 
L 846.2 438.52 
Q 848.2 438.52 848.2 436.52 
L 848.2 378.8075 
Q 848.2 376.8075 846.2 376.8075 
L 777.309375 376.8075 
Q 775.309375 376.8075 775.309375 378.8075 
L 775.309375 436.52 
Q 775.309375 438.52 777.309375 438.52 
z
" style="fill: #ffffff; opacity: 0.8; stroke: #cccccc; stroke-linejoin: miter"/>
    </g>
    <g id="line2d_35">
     <path d="M 779.309375 384.905937 
L 789.309375 384.905937 
L 799.309375 384.905937 
" style="fill: none; stroke: #ffa500; stroke-width: 1.5; stroke-linecap: square"/>
    </g>
    <g id="text_19">
     <!-- SVRG -->
     <g transform="translate(807.309375 388.405937) scale(0.1 -0.1)">
      <defs>
       <path id="DejaVuSans-53" d="M 3425 4513 
L 3425 3897 
Q 3066 4069 2747 4153 
Q 2428 4238 2131 4238 
Q 1616 4238 1336 4038 
Q 1056 3838 1056 3469 
Q 1056 3159 1242 3001 
Q 1428 2844 1947 2747 
L 2328 2669 
Q 3034 2534 3370 2195 
Q 3706 1856 3706 1288 
Q 3706 609 3251 259 
Q 2797 -91 1919 -91 
Q 1588 -91 1214 -16 
Q 841 59 441 206 
L 441 856 
Q 825 641 1194 531 
Q 1563 422 1919 422 
Q 2459 422 2753 634 
Q 3047 847 3047 1241 
Q 3047 1584 2836 1778 
Q 2625 1972 2144 2069 
L 1759 2144 
Q 1053 2284 737 2584 
Q 422 2884 422 3419 
Q 422 4038 858 4394 
Q 1294 4750 2059 4750 
Q 2388 4750 2728 4690 
Q 3069 4631 3425 4513 
z
" transform="scale(0.015625)"/>
       <path id="DejaVuSans-56" d="M 1831 0 
L 50 4666 
L 709 4666 
L 2188 738 
L 3669 4666 
L 4325 4666 
L 2547 0 
L 1831 0 
z
" transform="scale(0.015625)"/>
       <path id="DejaVuSans-52" d="M 2841 2188 
Q 3044 2119 3236 1894 
Q 3428 1669 3622 1275 
L 4263 0 
L 3584 0 
L 2988 1197 
Q 2756 1666 2539 1819 
Q 2322 1972 1947 1972 
L 1259 1972 
L 1259 0 
L 628 0 
L 628 4666 
L 2053 4666 
Q 2853 4666 3247 4331 
Q 3641 3997 3641 3322 
Q 3641 2881 3436 2590 
Q 3231 2300 2841 2188 
z
M 1259 4147 
L 1259 2491 
L 2053 2491 
Q 2509 2491 2742 2702 
Q 2975 2913 2975 3322 
Q 2975 3731 2742 3939 
Q 2509 4147 2053 4147 
L 1259 4147 
z
" transform="scale(0.015625)"/>
       <path id="DejaVuSans-47" d="M 3809 666 
L 3809 1919 
L 2778 1919 
L 2778 2438 
L 4434 2438 
L 4434 434 
Q 4069 175 3628 42 
Q 3188 -91 2688 -91 
Q 1594 -91 976 548 
Q 359 1188 359 2328 
Q 359 3472 976 4111 
Q 1594 4750 2688 4750 
Q 3144 4750 3555 4637 
Q 3966 4525 4313 4306 
L 4313 3634 
Q 3963 3931 3569 4081 
Q 3175 4231 2741 4231 
Q 1884 4231 1454 3753 
Q 1025 3275 1025 2328 
Q 1025 1384 1454 906 
Q 1884 428 2741 428 
Q 3075 428 3337 486 
Q 3600 544 3809 666 
z
" transform="scale(0.015625)"/>
      </defs>
      <use xlink:href="#DejaVuSans-53"/>
      <use xlink:href="#DejaVuSans-56" x="63.476562"/>
      <use xlink:href="#DejaVuSans-52" x="131.884766"/>
      <use xlink:href="#DejaVuSans-47" x="201.367188"/>
     </g>
    </g>
    <g id="line2d_36">
     <path d="M 779.309375 399.584063 
L 789.309375 399.584063 
L 799.309375 399.584063 
" style="fill: none; stroke: #c83cbc; stroke-width: 1.5; stroke-linecap: square"/>
    </g>
    <g id="text_20">
     <!-- L-SVRG -->
     <g transform="translate(807.309375 403.084063) scale(0.1 -0.1)">
      <defs>
       <path id="DejaVuSans-4c" d="M 628 4666 
L 1259 4666 
L 1259 531 
L 3531 531 
L 3531 0 
L 628 0 
L 628 4666 
z
" transform="scale(0.015625)"/>
       <path id="DejaVuSans-2d" d="M 313 2009 
L 1997 2009 
L 1997 1497 
L 313 1497 
L 313 2009 
z
" transform="scale(0.015625)"/>
      </defs>
      <use xlink:href="#DejaVuSans-4c"/>
      <use xlink:href="#DejaVuSans-2d" x="53.962891"/>
      <use xlink:href="#DejaVuSans-53" x="90.046875"/>
      <use xlink:href="#DejaVuSans-56" x="153.523438"/>
      <use xlink:href="#DejaVuSans-52" x="221.931641"/>
      <use xlink:href="#DejaVuSans-47" x="291.414062"/>
     </g>
    </g>
    <g id="line2d_37">
     <path d="M 779.309375 414.262187 
L 789.309375 414.262187 
L 799.309375 414.262187 
" style="fill: none; stroke: #1c1c84; stroke-width: 1.5; stroke-linecap: square"/>
    </g>
    <g id="text_21">
     <!-- SARAH -->
     <g transform="translate(807.309375 417.762187) scale(0.1 -0.1)">
      <defs>
       <path id="DejaVuSans-48" d="M 628 4666 
L 1259 4666 
L 1259 2753 
L 3553 2753 
L 3553 4666 
L 4184 4666 
L 4184 0 
L 3553 0 
L 3553 2222 
L 1259 2222 
L 1259 0 
L 628 0 
L 628 4666 
z
" transform="scale(0.015625)"/>
      </defs>
      <use xlink:href="#DejaVuSans-53"/>
      <use xlink:href="#DejaVuSans-41" x="65.351562"/>
      <use xlink:href="#DejaVuSans-52" x="133.759766"/>
      <use xlink:href="#DejaVuSans-41" x="199.242188"/>
      <use xlink:href="#DejaVuSans-48" x="267.650391"/>
     </g>
    </g>
    <g id="line2d_38">
     <path d="M 779.309375 428.940313 
L 789.309375 428.940313 
L 799.309375 428.940313 
" style="fill: none; stroke: #ff0000; stroke-width: 1.5; stroke-linecap: square"/>
    </g>
    <g id="text_22">
     <!-- PAGE -->
     <g transform="translate(807.309375 432.440313) scale(0.1 -0.1)">
      <defs>
       <path id="DejaVuSans-50" d="M 1259 4147 
L 1259 2394 
L 2053 2394 
Q 2494 2394 2734 2622 
Q 2975 2850 2975 3272 
Q 2975 3691 2734 3919 
Q 2494 4147 2053 4147 
L 1259 4147 
z
M 628 4666 
L 2053 4666 
Q 2838 4666 3239 4311 
Q 3641 3956 3641 3272 
Q 3641 2581 3239 2228 
Q 2838 1875 2053 1875 
L 1259 1875 
L 1259 0 
L 628 0 
L 628 4666 
z
" transform="scale(0.015625)"/>
       <path id="DejaVuSans-45" d="M 628 4666 
L 3578 4666 
L 3578 4134 
L 1259 4134 
L 1259 2753 
L 3481 2753 
L 3481 2222 
L 1259 2222 
L 1259 531 
L 3634 531 
L 3634 0 
L 628 0 
L 628 4666 
z
" transform="scale(0.015625)"/>
      </defs>
      <use xlink:href="#DejaVuSans-50"/>
      <use xlink:href="#DejaVuSans-41" x="53.927734"/>
      <use xlink:href="#DejaVuSans-47" x="120.585938"/>
      <use xlink:href="#DejaVuSans-45" x="198.076172"/>
     </g>
    </g>
   </g>
  </g>
  <g id="text_23">
   <!-- Mushrooms | OneLayerFC -->
   <g transform="translate(342.196562 20.779063) scale(0.14 -0.14)">
    <defs>
     <path id="DejaVuSans-4d" d="M 628 4666 
L 1569 4666 
L 2759 1491 
L 3956 4666 
L 4897 4666 
L 4897 0 
L 4281 0 
L 4281 4097 
L 3078 897 
L 2444 897 
L 1241 4097 
L 1241 0 
L 628 0 
L 628 4666 
z
" transform="scale(0.015625)"/>
     <path id="DejaVuSans-68" d="M 3513 2113 
L 3513 0 
L 2938 0 
L 2938 2094 
Q 2938 2591 2744 2837 
Q 2550 3084 2163 3084 
Q 1697 3084 1428 2787 
Q 1159 2491 1159 1978 
L 1159 0 
L 581 0 
L 581 4863 
L 1159 4863 
L 1159 2956 
Q 1366 3272 1645 3428 
Q 1925 3584 2291 3584 
Q 2894 3584 3203 3211 
Q 3513 2838 3513 2113 
z
" transform="scale(0.015625)"/>
     <path id="DejaVuSans-6d" d="M 3328 2828 
Q 3544 3216 3844 3400 
Q 4144 3584 4550 3584 
Q 5097 3584 5394 3201 
Q 5691 2819 5691 2113 
L 5691 0 
L 5113 0 
L 5113 2094 
Q 5113 2597 4934 2840 
Q 4756 3084 4391 3084 
Q 3944 3084 3684 2787 
Q 3425 2491 3425 1978 
L 3425 0 
L 2847 0 
L 2847 2094 
Q 2847 2600 2669 2842 
Q 2491 3084 2119 3084 
Q 1678 3084 1418 2786 
Q 1159 2488 1159 1978 
L 1159 0 
L 581 0 
L 581 3500 
L 1159 3500 
L 1159 2956 
Q 1356 3278 1631 3431 
Q 1906 3584 2284 3584 
Q 2666 3584 2933 3390 
Q 3200 3197 3328 2828 
z
" transform="scale(0.015625)"/>
     <path id="DejaVuSans-7c" d="M 1344 4891 
L 1344 -1509 
L 813 -1509 
L 813 4891 
L 1344 4891 
z
" transform="scale(0.015625)"/>
     <path id="DejaVuSans-4f" d="M 2522 4238 
Q 1834 4238 1429 3725 
Q 1025 3213 1025 2328 
Q 1025 1447 1429 934 
Q 1834 422 2522 422 
Q 3209 422 3611 934 
Q 4013 1447 4013 2328 
Q 4013 3213 3611 3725 
Q 3209 4238 2522 4238 
z
M 2522 4750 
Q 3503 4750 4090 4092 
Q 4678 3434 4678 2328 
Q 4678 1225 4090 567 
Q 3503 -91 2522 -91 
Q 1538 -91 948 565 
Q 359 1222 359 2328 
Q 359 3434 948 4092 
Q 1538 4750 2522 4750 
z
" transform="scale(0.015625)"/>
     <path id="DejaVuSans-46" d="M 628 4666 
L 3309 4666 
L 3309 4134 
L 1259 4134 
L 1259 2759 
L 3109 2759 
L 3109 2228 
L 1259 2228 
L 1259 0 
L 628 0 
L 628 4666 
z
" transform="scale(0.015625)"/>
     <path id="DejaVuSans-43" d="M 4122 4306 
L 4122 3641 
Q 3803 3938 3442 4084 
Q 3081 4231 2675 4231 
Q 1875 4231 1450 3742 
Q 1025 3253 1025 2328 
Q 1025 1406 1450 917 
Q 1875 428 2675 428 
Q 3081 428 3442 575 
Q 3803 722 4122 1019 
L 4122 359 
Q 3791 134 3420 21 
Q 3050 -91 2638 -91 
Q 1578 -91 968 557 
Q 359 1206 359 2328 
Q 359 3453 968 4101 
Q 1578 4750 2638 4750 
Q 3056 4750 3426 4639 
Q 3797 4528 4122 4306 
z
" transform="scale(0.015625)"/>
    </defs>
    <use xlink:href="#DejaVuSans-4d"/>
    <use xlink:href="#DejaVuSans-75" x="86.279297"/>
    <use xlink:href="#DejaVuSans-73" x="149.658203"/>
    <use xlink:href="#DejaVuSans-68" x="201.757812"/>
    <use xlink:href="#DejaVuSans-72" x="265.136719"/>
    <use xlink:href="#DejaVuSans-6f" x="304"/>
    <use xlink:href="#DejaVuSans-6f" x="365.181641"/>
    <use xlink:href="#DejaVuSans-6d" x="426.363281"/>
    <use xlink:href="#DejaVuSans-73" x="523.775391"/>
    <use xlink:href="#DejaVuSans-20" x="575.875"/>
    <use xlink:href="#DejaVuSans-7c" x="607.662109"/>
    <use xlink:href="#DejaVuSans-20" x="641.353516"/>
    <use xlink:href="#DejaVuSans-4f" x="673.140625"/>
    <use xlink:href="#DejaVuSans-6e" x="751.851562"/>
    <use xlink:href="#DejaVuSans-65" x="815.230469"/>
    <use xlink:href="#DejaVuSans-4c" x="876.753906"/>
    <use xlink:href="#DejaVuSans-61" x="932.466797"/>
    <use xlink:href="#DejaVuSans-79" x="993.746094"/>
    <use xlink:href="#DejaVuSans-65" x="1052.925781"/>
    <use xlink:href="#DejaVuSans-72" x="1114.449219"/>
    <use xlink:href="#DejaVuSans-46" x="1155.5625"/>
    <use xlink:href="#DejaVuSans-43" x="1213.082031"/>
   </g>
  </g>
 </g>
 <defs>
  <clipPath id="p9bd61c5ce9">
   <rect x="47.72" y="50.4" width="805.48" height="393.12"/>
  </clipPath>
 </defs>
</svg>
